<?xml version="1.0" encoding="UTF-8"?>
<svg xmlns="http://www.w3.org/2000/svg" xmlns:xlink="http://www.w3.org/1999/xlink" version="1.1" id="Calque_1" x="0px" y="0px" viewBox="0 0 570 590" style="enable-background:new 0 0 570 590;" xml:space="preserve">
<style type="text/css">
	.st0{fill:url(#SVGID_1_);}
	.st1{fill:url(#Tracé_462_00000070117611690459276500000018289038310707904175_);}
	.st2{opacity:0.512;fill:#FFFFFF;enable-background:new    ;}
	.st3{fill:url(#SVGID_00000148625975554354153560000008471359272845800622_);stroke:#F58B5D;stroke-width:3;stroke-miterlimit:10;}
	.st4{fill:none;stroke:#F58B5D;stroke-width:3;stroke-miterlimit:10;}
	.st5{fill:url(#Tracé_470_00000112610261320020457690000003786528007186292121_);}
	.st6{fill:#FFFFFF;}
	.st7{fill:url(#Tracé_470-2_00000011025194562703553490000017762715997792229255_);}
	.st8{fill:url(#Tracé_470-4_00000097490096364959415620000015261280252562657455_);}
	.st9{fill:url(#Tracé_470-5_00000003784693189833473560000004428923819752214147_);}
	.st10{fill:url(#Tracé_470-6_00000132062133718339509940000016578204040242129587_);}
	.st11{fill:#004590;}
	.st12{fill:url(#Tracé_470-5_00000178890436638901376590000016531794243418659246_);}
	.st13{fill:url(#Tracé_470-3_00000057125522203341811800000018031840524993685164_);}
	.st14{opacity:0.3;}
	.st15{fill:url(#Tracé_470-3_00000047054504638154218840000012951174039419803572_);}
</style>
<g id="Carte" transform="translate(19.79 20)">
	<g>
		
			<linearGradient id="SVGID_1_" gradientUnits="userSpaceOnUse" x1="150.911" y1="310.1712" x2="151.685" y2="309.6562" gradientTransform="matrix(509.9951 0 0 -530.0118 -76945.1406 164491.7188)">
			<stop offset="0" style="stop-color:#E2E1DF"></stop>
			<stop offset="1" style="stop-color:#CECECE"></stop>
		</linearGradient>
		<path class="st0" d="M509.2,118.3l-20.5-6.6c-0.2-0.1-0.3-0.1-0.5-0.1l-27.2,1.7c-0.4,0-0.9-0.2-1.2-0.5    c-3-3.6-20.4-24.1-23.1-24.1h-35.3c-0.4,0-0.7-0.1-1-0.4L352,44.7c-0.4-0.3-0.8-0.4-1.3-0.3l-9.6,2.5c-0.5,0.1-1,0-1.4-0.4    l-16.1-16c-0.3-0.3-0.6-0.4-1-0.4h-5.1c-0.5,0-1-0.3-1.2-0.7L310,18.9c-0.2-0.3-0.6-0.6-1-0.7l-4.1-0.8l-3.6-0.7l-6.7-1.2    c-0.2,0-0.3-0.1-0.5-0.2l-6.7-4.2c-0.4-0.3-0.7-0.7-0.7-1.2V1.4c0-0.8-0.6-1.4-1.4-1.4c-0.1,0-0.2,0-0.3,0l-31.9,7.5    c-0.6,0.1-1.1,0.7-1.1,1.4v39.6c0,0.5-0.3,1-0.8,1.3l-47.8,24.1c-0.2,0.1-0.3,0.2-0.5,0.4L190,90c-0.2,0.3-0.3,0.6-0.3,1l0.4,5.2    c0,0.5-0.2,1.1-0.7,1.3l-8.7,5c-0.3,0.2-0.6,0.2-0.9,0.2L143,97.1c-0.6-0.1-1.1-0.6-1.2-1.2l-2.6-15.4c-0.1-0.7-0.7-1.2-1.4-1.2    h-24.4c-0.8,0-1.4,0.6-1.4,1.4l0,0v28c0,0.3,0.1,0.7,0.4,0.9l10,11.2c0.4,0.4,0.5,1,0.2,1.5l-1.1,2.4c-0.1,0.2-0.1,0.4-0.1,0.6    l0,12.6c0,0.7-0.5,1.3-1.2,1.4l-17.8,3.2c-0.3,0.1-0.6,0-0.9-0.1l-12.4-6.5c-0.4-0.2-0.9-0.2-1.3,0l-8.8,4.9    c-0.6,0.3-1.4,0.2-1.8-0.4l-14.7-20c-0.3-0.4-0.8-0.6-1.3-0.6L41.2,122c-0.3,0-0.5,0.1-0.7,0.3l-8.8,7.1c-0.2,0.2-0.4,0.3-0.7,0.3    l-29.6,4.5c-0.7,0.1-1.2,0.7-1.2,1.4v23.2c0,0.5,0.3,0.9,0.7,1.2l2.8,1.7c0.7,0.4,0.9,1.3,0.5,1.9c-0.1,0.2-0.2,0.3-0.4,0.4    l-2.9,2.1c-0.4,0.3-0.6,0.7-0.6,1.1v12.9c0,0.3,0.1,0.6,0.3,0.9l12.1,15.5c0.4,0.5,0.9,0.6,1.5,0.5l14.4-3.9    c0.4-0.1,0.8,0,1.1,0.2l56.8,36.4c0.2,0.1,0.5,0.2,0.8,0.2h4.6c0.8,0,1.4,0.6,1.4,1.4l0,0V254l0,0v13.4c0,0.5,0.2,0.9,0.6,1.2    l30.2,20.4c0.2,0.2,0.5,0.2,0.8,0.2h8.1c0.8,0,1.4,0.6,1.4,1.4l0,0v16.6c0,0.4-0.2,0.8-0.5,1.1l-4.9,3.9c-0.3,0.2-0.5,0.6-0.5,0.9    l-6.4,54.2l-0.4,3.7l-7.2,60.7c0,0.2-0.1,0.4-0.2,0.6l-11.4,18.1c-0.1,0.2-0.2,0.5-0.2,0.7v12.9c0,0.5,0.3,0.9,0.7,1.2l12.8,8    c0.4,0.3,0.7,0.7,0.7,1.2v8.1c0,0.6,0.4,1.2,1,1.3l16.2,5.2c0.3,0.1,0.6,0.1,0.8,0l13.5-4.1c0.5-0.2,1,0,1.4,0.4l21.3,21.3    c0.3,0.3,0.6,0.4,1,0.4h33.8c0.2,0,0.4,0,0.5-0.1l6.2-2.6c0.4-0.2,0.8-0.1,1.2,0l45.1,21.3c0.1,0.1,0.3,0.1,0.4,0.1    c2.6,0.4,28.1,4.1,29.8,4.1c1.5,0,11.3-3.7,14.4-4.9c0.5-0.2,0.9-0.7,0.9-1.3v-36.3c0-0.5,0.3-1,0.8-1.3l38.3-19.4    c0.2-0.1,0.5-0.2,0.7-0.1l38,2.9c0.3,0,0.6-0.1,0.9-0.2l10.9-7.1c0.3-0.2,0.7-0.3,1-0.2l4.8,0.9c0.7,0.1,1.2,0.7,1.2,1.4v6.3    c0,0.4,0.2,0.8,0.5,1.1c2.7,2.1,14.4,11.3,16.5,11.3H452c0.4,0,0.7-0.1,1-0.4l53.3-52.3c0.3-0.3,0.4-0.6,0.4-1v-13.4    c0-0.1,0-0.2,0-0.4l-3.1-12c-0.2-0.8-1-1.2-1.7-1c0,0-0.1,0-0.1,0l-11.4,3.9c-0.4,0.2-0.9,0.1-1.3-0.2l-31.7-22.6    c-0.4-0.3-0.6-0.7-0.6-1.1v-4.9c0-0.1,0-0.3,0.1-0.4l3.8-13.6c0.1-0.5,0.6-0.9,1.1-1l6.9-1.5c0.3-0.1,0.6-0.2,0.8-0.4l9.3-10.4    c0.2-0.3,0.4-0.6,0.4-0.9v-13.2c0-0.3-0.1-0.5-0.2-0.8c-1.2-1.9-6.8-10.8-10.7-17.6c-0.2-0.4-0.2-0.9,0-1.3    c1.4-2.7,2.7-5.3,3.2-6.1c0.1-0.2,0.2-0.4,0.2-0.7v-13.1c0-0.4-0.2-0.8-0.5-1.1l-9.7-8.6c-0.3-0.3-0.5-0.6-0.5-1l-0.5-11.5    c0-0.8-0.7-1.4-1.5-1.3l-11.3,0.5c-0.5,0-0.9,0.3-1.2,0.7l-8.6,14.5c-0.3,0.4-0.7,0.7-1.2,0.7h-1.6c-0.8,0-1.4-0.6-1.4-1.4    c0,0,0,0,0,0c0-2,0.1-5.6,0-7c0-0.4,0.1-0.8,0.4-1c4.4-4.4,12.2-12.5,12.2-13.9v-16.2c0-0.5,0.2-0.9,0.6-1.2l16.4-11.6    c0.4-0.3,0.6-0.7,0.6-1.2l0-9.8c0-0.4,0.2-0.9,0.6-1.1l7-5.4c0.4-0.3,1-0.4,1.5-0.1l6.7,3.3c0.5,0.2,1.1,0.2,1.5-0.1l5.8-4.3    c0.4-0.3,0.6-0.7,0.6-1.1v-13.4c0,0-0.6-25.1-0.6-25.1c0.6-1.7,9-27.3,9.9-30.2c0.1-0.2,0.1-0.3,0.3-0.5l13-15.2    c0.2-0.3,0.3-0.6,0.3-0.9v-12.6C510.2,119,509.8,118.4,509.2,118.3z"></path>
	</g>
	
		<linearGradient id="Tracé_462_00000132809431578538684650000018089055245778847150_" gradientUnits="userSpaceOnUse" x1="150.874" y1="309.8681" x2="151.874" y2="309.8681" gradientTransform="matrix(508.9784 0 0 -515.9893 -76791.4141 160146.5938)">
		<stop offset="0" style="stop-color:#F7F7F7"></stop>
		<stop offset="1" style="stop-color:#E6E5E3"></stop>
	</linearGradient>
	<path id="Tracé_462" style="fill:url(#Tracé_462_00000132809431578538684650000018089055245778847150_);" d="M503.5,403.8   l2.9,11.4c0.1,0.5,0,1-0.4,1.4L453,468.7c-0.3,0.3-0.6,0.4-1,0.4h-34.1c-2.1,0-13.9-9.2-16.5-11.3c-0.3-0.3-0.5-0.7-0.5-1.1v-6.3   c0-0.7-0.5-1.3-1.2-1.4l-4.8-0.9c-0.4-0.1-0.7,0-1,0.2l-10.9,7.1c-0.3,0.2-0.6,0.2-0.9,0.2l-15.6-1.2l-3.6-0.3l-18.8-1.4   c-0.3,0-0.5,0-0.7,0.1l-38.3,19.4c-0.5,0.2-0.8,0.7-0.8,1.3v36.3c0,0.6-0.4,1.1-0.9,1.3c-3.1,1.2-12.9,4.9-14.4,4.9   c-1.7,0-27.2-3.7-29.8-4.1c-0.1,0-0.3-0.1-0.4-0.1l-45.1-21.3c-0.4-0.2-0.8-0.2-1.2,0l-6.2,2.6c-0.2,0.1-0.4,0.1-0.5,0.1H172   c-0.4,0-0.7-0.1-1-0.4l-21.3-21.3c-0.4-0.4-0.9-0.5-1.4-0.4l-13.5,4.1c-0.3,0.1-0.6,0.1-0.8,0l-16.2-5.2c-0.6-0.2-1-0.7-1-1.3v-8.1   c0-0.5-0.3-0.9-0.7-1.2l-12.3-7.6c-0.7-0.4-0.9-1.3-0.5-1.9c0,0,0,0,0,0l10.8-17.3c0.1-0.2,0.2-0.4,0.2-0.6l7.2-60.7l0.4-3.7   l6.4-54.3c0-0.4,0.2-0.7,0.5-0.9l4.9-3.9c0.3-0.3,0.5-0.7,0.5-1.1v-30.7c0-0.8-0.6-1.4-1.4-1.4l0,0h-8.1c-0.3,0-0.6-0.1-0.8-0.2   l-30.2-20.4c-0.4-0.3-0.6-0.7-0.6-1.2v-29.7c0-0.4,0.2-0.8,0.5-1.1l4.8-4.1c0.6-0.5,0.7-1.4,0.2-2c-0.3-0.3-0.7-0.5-1.1-0.5H87.1   c-0.3,0-0.5-0.1-0.8-0.2l-56.8-36.4c-0.3-0.2-0.8-0.3-1.1-0.2L14.1,183c-0.6,0.1-1.1,0-1.5-0.5L1.1,167.8c-0.5-0.6-0.4-1.5,0.2-2   c0,0,0,0,0,0l8.8-6.3c0.4-0.3,0.6-0.7,0.6-1.1v-5.5c0-0.5-0.3-1-0.7-1.2L0.9,146c-0.4-0.3-0.7-0.7-0.7-1.2v-9.1   c0-0.7,0.5-1.3,1.2-1.4l29.6-4.5c0.2,0,0.5-0.1,0.7-0.3l8.8-7.1c0.2-0.2,0.5-0.3,0.7-0.3l19.9-2.2c0.5-0.1,1,0.2,1.3,0.6l14.7,20   c0.4,0.6,1.2,0.7,1.8,0.4l8.8-4.9c0.4-0.2,0.9-0.2,1.3,0l12.4,6.5c0.3,0.1,0.6,0.2,0.9,0.1l26.6-4.8c0.8-0.1,1.3-0.9,1.1-1.6   c0-0.2-0.1-0.5-0.3-0.6l-7.9-9.8c-0.3-0.4-0.4-1-0.2-1.5l5.1-11.3c0.2-0.5,0.1-1.1-0.2-1.5l-14.3-15.9c-0.2-0.3-0.4-0.6-0.4-0.9   V80.7c0-0.8,0.6-1.4,1.4-1.4h24.4c0.7,0,1.3,0.5,1.4,1.2l2.6,15.4c0.1,0.6,0.6,1.1,1.2,1.2l36.7,5.6c0.3,0,0.6,0,0.9-0.2l13.5-7.7   c0.7-0.4,0.9-1.2,0.5-1.9c-0.2-0.3-0.4-0.5-0.7-0.6l-2.6-1.1c-0.7-0.3-1.1-1.1-0.8-1.8c0.1-0.1,0.1-0.3,0.2-0.4L203,74.3   c0.1-0.2,0.3-0.3,0.5-0.4l47.8-24.1c0.5-0.2,0.8-0.7,0.8-1.3V8.9c0-0.7,0.5-1.2,1.1-1.4L284.9,0c0.8-0.2,1.5,0.3,1.7,1   c0,0.1,0,0.2,0,0.3V10c0,0.5,0.3,0.9,0.7,1.2l6.7,4.2c0.2,0.1,0.3,0.2,0.5,0.2l6.7,1.2l3.6,0.7l4.1,0.8c0.4,0.1,0.7,0.3,1,0.7   l6.3,10.5c0.3,0.4,0.7,0.7,1.2,0.7h5.1c0.4,0,0.7,0.1,1,0.4l16.1,16c0.4,0.4,0.9,0.5,1.4,0.4l9.6-2.5c0.5-0.1,1,0,1.3,0.3   l48.4,43.7c0.3,0.2,0.6,0.4,1,0.4h35.3c2.7,0,20,20.5,23.1,24.1c0.3,0.3,0.7,0.5,1.2,0.5l27.2-1.7c0.2,0,0.4,0,0.5,0.1l19.5,6.3   c0.7,0.2,1.2,1,0.9,1.8c-0.1,0.2-0.1,0.3-0.3,0.5l-3.2,3.7l-4.1,4.9l-4.7,5.4c-0.1,0.1-0.2,0.3-0.3,0.5c-0.3,1-1.6,4.9-3.1,9.6   c-0.4,1.3-0.9,2.7-1.3,4.1c-2.5,7.6-5.1,15.6-5.4,16.5c-0.5,1.6,0.4,33.3,0.6,38.5c0,0.5-0.2,0.9-0.6,1.2l-5.8,4.3   c-0.4,0.3-1,0.4-1.5,0.1l-6.7-3.3c-0.5-0.2-1.1-0.2-1.5,0.1l-7.5,5.8c-0.4,0.3-0.6,0.7-0.6,1.2l0.5,9.3c0,0.5-0.2,1-0.6,1.2   l-16.4,11.5c-0.4,0.3-0.6,0.7-0.6,1.2v16.2c0,1.8-12.4,14.1-14.7,16.4c-1.9,1.9,0.8,7.3,1.9,9.2c0.3,0.5,0.2,1,0,1.4l-5.2,8.2   c-0.4,0.7-0.2,1.5,0.4,1.9c0.2,0.1,0.5,0.2,0.8,0.2h7.2c0.5,0,1-0.3,1.2-0.7l8.6-14.5c0.2-0.4,0.7-0.7,1.2-0.7l11.3-0.5   c0.8,0,1.4,0.6,1.5,1.3l0.5,11.5c0,0.4,0.2,0.7,0.5,1l9.3,8.2c0.5,0.4,0.6,1.1,0.3,1.7c-1.5,2.9-6.1,11.6-6.5,13.1   c-0.5,1.6,11.4,20.5,14.1,24.9c0.3,0.5,0.3,1.2-0.1,1.7l-9,10c-0.2,0.2-0.5,0.4-0.8,0.4l-6.9,1.5c-0.5,0.1-0.9,0.5-1.1,1l-3.8,13.6   c0,0.1-0.1,0.3-0.1,0.4v19c0,0.5,0.2,0.9,0.6,1.1l31.8,22.6c0.4,0.3,0.9,0.3,1.3,0.2l11.4-3.9c0.7-0.3,1.5,0.1,1.8,0.9   C503.5,403.7,503.5,403.7,503.5,403.8z"></path>
	<path id="Tracé_463" class="st2" d="M505.7,123.9c-6.7,1.4-13,4.3-18.4,8.5c-1.6-3.8-3.4-8-6.9-10.2c-4.5-2.8-10.9-1.6-15.5,0.4   c-4.4,1.9-7.7,5.2-10.9,8.6c-4.1,4.3-8.2,8-14.5,7.6c-4.2-0.3-8.1-2-12.1-3.3c-2.5-13.8-10.8-28.3-0.5-40.7c1.7-2,3.7-4,5.7-6.1   H428c-3.3,3.4-6.5,6.8-8.1,10.4c-5.1,11.6,1,23.8,3.5,35.4c-0.2,0-0.5-0.1-0.7-0.1c-0.2,0-0.4-0.1-0.6-0.1c-0.1,0-0.2,0-0.3,0   c-7-1.1-14.2-1.5-21.3-1.2c-3.9,0.2-7.8,0.5-11.7,1.1c-4.4,0.7-9,2.2-13.4,1.9c-8.6-0.5-14.2-10.6-18.7-17   c-5.2-7.3-10.3-14.7-15.4-22.1c-0.2-0.3-0.5-0.5-0.8-0.7c0.9-5.4-0.7-11-4.4-15.1c-4.3-4.8-10.7-5.2-15.8-8.8   c-4-2.8-5.6-7.8-6.7-12.3c-1.2-4.8-2-9.8-4.2-14.4c-0.9-2-2.3-3.8-3.9-5.3c-2-1.7-5.9-2.3-7.1-4.5c-2.3-3.9,2.1-8.4,4.3-11.2   c1.8-2.3,3.3-4.8,4.4-7.4l-3.5-0.7c-0.1,0.2-0.2,0.5-0.3,0.7c-2.4,4.9-7.5,8.7-8.6,14.2c-0.9,4.8,1.5,7.8,5.6,9.7   c4.4,2,6.4,5.6,7.8,10.1c2.3,7.6,2.7,16.9,8.9,22.6c4.4,4.1,10.9,4.4,15.4,8.2c5.1,4.3,6.6,11.6,3.6,17.6c-3.1,6.1-8.9,7-14.7,9.2   c-4.9,1.8-7.8,5.2-10.9,9.2c-1.6,2.2-3.4,4.6-5.7,6.1c-3,1.9-6.5,2-9.9,1.9c-4.6-0.3-9.4-1.1-13.9-0.1c-0.1-0.2-0.3-0.5-0.4-0.6   c-0.8-2.5-1.6-5-2.3-7.5c-5.7-19.6-10.4-39.6-13.9-59.7c-1.8-10.1-3.3-20.2-4.7-30.3c-0.7-4.9-1.8-10.1-4.7-14v8.2   c0.8,3.2,1.3,6.4,1.7,9.6c1.2,9,2.6,18,4.2,26.9c3.2,17.7,7,35.4,11.9,52.7c1.5,5.4,3.1,10.7,4.8,16.1c-5.2,2.4-9.2,6.6-14.8,8.3   c-6.3,1.8-12.9,1.5-19.3,1.3c-5.7-0.2-12-0.7-17.6,0.9c-1.9,0.5-3.7,1.5-5.2,2.8c-2.3,2.2-3.3,5.3-5.8,7.4   c-4.4,3.7-10.9,3.4-16.3,3.5c-5.5,0.1-11.1,0.2-16.2,2.5c-6.2,2.8-11.5,8.2-18.7,8.4c-7.7,0.3-14.8-4.6-20.9-8.7   c-0.8-0.5-1.9-0.2-2.4,0.7c-0.1,0.1-0.1,0.3-0.2,0.4c-1.9,5.4-4.7,10.4-8.3,14.8c-3.1,3.7-7.2,6.3-10.5,9.9   c-3.1,3.4-3.3,7.5-2.4,11.9c1.2,5.9,1.9,11.9,2,17.9c0.3,11.9,2.5,23.4,4.8,35c2.1,10.3,4.2,20.6,6.3,30.9h3.6   c-2.1-10.2-4.2-20.3-6.2-30.5c-2.4-11.7-4.7-23.4-5-35.4c0-5.3-0.5-10.7-1.5-15.9c-0.6-2.7-1.6-5.6-0.8-8.4c0.8-3,3.6-4.8,5.8-6.6   c6.5-5.5,11.6-12.5,14.7-20.4c9.9,6.5,20.4,11.1,31.7,4.8c5.4-3,10.1-6.5,16.4-7.3c5.4-0.6,10.9-0.1,16.4-0.8c4.6-0.6,9-2.2,12-5.8   c2.2-2.6,3.3-5.9,6.7-7.2c3-1.2,6.6-1.2,9.8-1.3c12.7-0.2,25.5,2.1,36.7-5.4c1.3-0.9,2.5-1.8,3.8-2.7c-1.5,3.7-3.9,7-7,9.5   c-2.1,1.7-4.8,2.8-6.8,4.7c-1.7,1.8-2.9,4.1-3.3,6.5c-3.3,13.4-1.8,27.5,0.9,40.8c1.5,7,3.3,14,5.2,20.9c1,3.3,1.9,6.6,2.5,9.9   c0.7,4.6-1.8,7.3-4.1,10.8c-7.6,11.3-10.8,25.3-14.9,38.1c-4.9,15.4-10.8,30.9-13.5,46.9c-5.1,0.5-9.8-2.2-14.4-4.1   c-4.4-1.8-9-2.9-13.6-1.8c-9.6,2.3-15.6,11.9-20.4,19.8c-3.6,5.8-7.1,11.7-10.6,17.5c-1.7,2.7-3.3,5.5-5,8.2   c-1.9,3.1-3.6,6.9-6.2,9.3c-9.4,8.7-25.5-0.7-36.1-1.8c-0.7-0.1-1.5-0.1-2.2-0.1l-0.4,3.7c2.9,0,5.9,0.4,8.7,1.1   c9.5,2.3,21.2,7.1,30.4,1.2c4.5-2.9,6.9-8.4,9.6-12.8c3.3-5.5,6.6-10.9,9.9-16.4c5.3-8.8,10.8-21.2,20.8-25.5   c10.9-4.8,20.4,6.9,31.5,4.9c0.6-0.2,1.1-0.6,1.2-1.2c2.4-14.6,7.5-28.6,12-42.7c4.3-13.4,7.6-28.3,14.9-40.4   c3.2-5.2,6.9-8.9,5.9-15.4c-1.1-6.9-3.6-13.8-5.3-20.6c-3.6-14.3-6.6-29.2-4.4-44c0.5-3.8,1-8.4,4.1-10.9c2.4-1.9,5.1-3.1,7.3-5.2   c2.9-2.8,5.2-6.1,6.7-9.9c3.1,9.5,6.6,18.8,10.4,28c1.6,3.7,3.5,7.6,3.9,11.7c0.5,4.5-1.4,8.8-2.5,13.1c-1.7,6.9-0.9,14.2,2.2,20.5   c1.6,3.2,3.9,5.7,6,8.5c2.9,3.7,4.2,7.8,5.3,12.3c2.1,9,4,18,6.1,27c2.1,9.4,4.8,18.9,5.9,28.6c1,8.9-0.7,17.1-2.9,25.7   c-1.9,7.4-3.9,15.1-2.8,22.9c1.1,8.4,6.3,15.4,5.4,24.1c-0.9,8.6-5.1,16.9-8.4,24.7c-3.2,7.9-6.8,15.7-10.8,23.2   c-4.5,8.1-10.2,15-15.7,22.3c-4.7,6.1-7.3,12.9-6.8,20.7c1,14.7,11.5,29.4,6.6,44.2c-0.2,0.8,0.1,1.6,0.8,2c7.6,4,16.1,5.7,24.6,5   v-3.5c-7.4,0.7-14.9-0.6-21.6-3.9c3.5-12.7-3.2-25.2-5.9-37.4c-1.7-7.8-1.4-15.2,3-22.1c4.3-6.7,10-12.3,14.2-19.1   c8.9-14.1,15.8-30.4,21.2-46.2c2.8-8.2,3-15.6,0-23.8c-1.5-4.1-3.1-8.1-3.4-12.5c-0.1-1.4-0.1-2.8,0-4.1c5.7-5.8,12.4-6.9,20.3-7.2   c4.3-0.1,10-1,12.6,3.3c1.9,3.1,2.3,6.9,4.3,10.1c5.9,9.6,19.2,12.8,27.3,5.9c-1,8.6-0.5,17.4,1.3,25.9c1.3,5.9,4.5,11.8,4.6,17.9   c0.1,5.8-3.7,10.6-5,16.1c-1.3,5.3-0.9,10.9-0.9,16.3c0.1,5.9-1,11.7-3.1,17.2c-3.3,8.1-8.3,15.5-11,23.8l3.6,0.3   c2.9-8.4,8.1-15.9,11.2-24.2c1.7-4.6,2.7-9.5,2.8-14.5c0.2-5.8-0.6-11.6,0.6-17.3c1.1-5.1,4.3-9.6,5.1-14.8   c0.8-4.9-0.9-9.6-2.4-14.2c-4.1-12.5-4.5-25.1-2.6-38v0c7.1-19.2,14.1-38.4,21.4-57.4c3.7-9.5,9.1-17.6,14-26.5   c2-3.5,3.5-7.2,4.6-11.1c1.2-4.6,1.7-8.8,6-11.3c5.4-3.2,12.7-3.5,16.9-8.6c2.5-3,2.4-6.9,4.2-10.2c2-3.6,6.1-5,9.7-6.4   c7.2-2.8,12.5-6.5,14.6-14.4c2.5-9.2-0.5-18.7,1.3-27.9c1.4-7.4,5.1-14.2,10.5-19.5c1.3,2.8,2.9,5.5,4.6,8.1c0.5,0.7,1,1.4,1.5,2.1   c0.5-1.4,0.9-2.8,1.3-4.1c-1.8-2.7-3.4-5.5-4.8-8.5c3.8-3.1,8.1-5.4,12.8-7L505.7,123.9z M478,142.5c-4.6,7.2-6.8,15.6-6.5,24.1   c0.2,9.7,2.1,22.4-8.1,27.8c-6.1,3.3-14.1,4.2-17,11.4c-1.6,3.9-1.7,7.9-5.6,10.3c-3.1,2-6.9,2.8-10.3,4.2c-2.8,1-5.3,2.7-7.3,4.9   c-2.8,3.5-3,8.2-4.4,12.4c-3,9.2-9.5,16.8-13.7,25.5c-5.4,11-9.1,22.9-13.4,34.4c-4.1,10.9-8.1,21.7-12.2,32.6   c-3.8,7.4-12.9,9.3-19.9,4.7c-3.4-2.4-5.9-5.8-7.2-9.7c-1.1-3-1.9-6.3-4.4-8.5c-4.7-4.2-13.7-2.7-19.4-2.1c-5,0.4-9.8,2.2-13.8,5.2   c0.2-1.2,0.5-2.5,0.7-3.7c1.7-7.9,4.4-15.6,4.9-23.7c0.6-9-1.6-17.9-3.6-26.6c-2.1-9.3-4.2-18.7-6.3-28.1   c-1.7-7.8-2.7-16.7-7.4-23.3c-2.2-3.1-4.8-5.7-6.6-9c-2.2-4.2-3.2-8.9-2.9-13.6c0.5-8.2,4.9-15,2.4-23.4s-6.6-16.4-9.6-24.7   c-1.7-4.7-3.3-9.4-4.9-14.2c2.9-0.5,5.8-0.5,8.6-0.2c5.4,0.5,11.2,1.1,16.1-2c4.7-3,6.9-8.3,10.8-12c4.7-4.4,11.7-4.1,16.7-7.9   c2.5-1.9,4.4-4.4,5.6-7.3c5,7.2,10,14.5,15.1,21.6c4.2,5.9,9,14,16,16.7c3.5,1.4,7.3,1,11,0.4c4.8-0.8,9.5-1.8,14.4-2.2   c8.8-0.7,17.7-0.4,26.4,1.1c8.6,1.7,17.1,7.2,25.7,2.7c8.3-4.3,12.1-14,21.9-16c3.2-0.7,7.2-0.9,9.7,1.6c1.5,1.7,2.7,3.7,3.5,5.8   c0.4,0.9,0.9,1.9,1.3,2.8C482,137.1,479.9,139.7,478,142.5L478,142.5z"></path>
	<g id="clusters" transform="translate(171.731 54.757)">
		<g>
			
				<linearGradient id="SVGID_00000070099595668716219630000005136159026108953231_" gradientUnits="userSpaceOnUse" x1="38.1537" y1="134.9525" x2="197.5919" y2="134.9525" gradientTransform="matrix(3.550322e-02 0.9994 -0.9994 3.550322e-02 281.1679 36.4306)">
				<stop offset="0" style="stop-color:#F7F7F7"></stop>
				<stop offset="1" style="stop-color:#E6E5E3"></stop>
			</linearGradient>
			
				<circle style="fill:url(#SVGID_00000070099595668716219630000005136159026108953231_);stroke:#F58B5D;stroke-width:3;stroke-miterlimit:10;" cx="150.5" cy="159" r="79.7"></circle>
			<line class="st4" x1="114.8" y1="87.7" x2="107.3" y2="73.6"></line>
		</g>
		<g id="Groupe_617" transform="translate(60 360)">
			
				<linearGradient id="Tracé_470_00000090974943398127010610000010494483321336078765_" gradientUnits="userSpaceOnUse" x1="-85.7043" y1="-99.3504" x2="-84.3213" y2="-98.3504" gradientTransform="matrix(31.575 0 0 -41.9752 2713.4507 -4143.6938)">
				<stop offset="0" style="stop-color:#F58B5D"></stop>
				<stop offset="1" style="stop-color:#FFFFFF"></stop>
			</linearGradient>
			<path id="Tracé_470" style="fill:url(#Tracé_470_00000090974943398127010610000010494483321336078765_);" d="M14.2,41.3     C2.2,23.9,0,22.2,0,15.8C0.1,7.1,7.2,0.1,15.9,0.1c8.6,0.1,15.6,7,15.7,15.7c0,6.4-2.2,8.1-14.2,25.5c-0.6,0.9-1.9,1.1-2.7,0.5     C14.5,41.6,14.3,41.4,14.2,41.3z"></path>
			<path id="Tracé_138" class="st6" d="M22.5,8l-6.2,4.3L6.4,6.7v10.6l5.6,2.8V28l10.5-7.3v-5.2h3.7v-1.5h-3.7V8z M13.5,25.2v-4.3     l3.6,1.8L13.5,25.2z M21,20l-2.5,1.8L7.9,16.4V9.3L21,16.7L21,20z M21,15l-3.2-1.8l3.2-2.2V15z"></path>
		</g>
		<g id="Groupe_618" transform="translate(32)">
			
				<linearGradient id="Tracé_470-2_00000119103729314408651500000009925552773723144114_" gradientUnits="userSpaceOnUse" x1="-57.7043" y1="260.6496" x2="-56.3213" y2="261.6496" gradientTransform="matrix(31.575 0 0 -41.9752 1829.3507 10967.3945)">
				<stop offset="0" style="stop-color:#F58B5D"></stop>
				<stop offset="1" style="stop-color:#FFFFFF"></stop>
			</linearGradient>
			<path id="Tracé_470-2" style="fill:url(#Tracé_470-2_00000119103729314408651500000009925552773723144114_);" d="M14.2,41.3     C2.2,23.9,0,22.2,0,15.8C0.1,7.1,7.2,0.1,15.9,0.1c8.6,0.1,15.6,7,15.7,15.7c0,6.4-2.2,8.1-14.2,25.5c-0.6,0.9-1.9,1.1-2.7,0.5     C14.5,41.6,14.3,41.4,14.2,41.3z"></path>
			<path id="Tracé_138-2" class="st6" d="M22.5,8l-6.2,4.3L6.4,6.7v10.6l5.6,2.8V28l10.5-7.3v-5.2h3.7v-1.5h-3.7V8z M13.5,25.2     v-4.3l3.6,1.8L13.5,25.2z M21,20l-2.5,1.8L7.9,16.4V9.3L21,16.7L21,20z M21,15l-3.2-1.8l3.2-2.2V15z"></path>
		</g>
		<g id="Groupe_619" transform="translate(216 359)">
			
				<linearGradient id="Tracé_470-4_00000111154176969010157160000008959891070200962724_" gradientUnits="userSpaceOnUse" x1="-241.7043" y1="-98.3504" x2="-240.3213" y2="-97.3504" gradientTransform="matrix(31.575 0 0 -41.9752 7639.1509 -4101.7188)">
				<stop offset="0" style="stop-color:#F58B5D"></stop>
				<stop offset="1" style="stop-color:#FFFFFF"></stop>
			</linearGradient>
			<path id="Tracé_470-4" style="fill:url(#Tracé_470-4_00000111154176969010157160000008959891070200962724_);" d="M14.2,41.3     C2.2,23.9,0,22.2,0,15.8C0.1,7.1,7.2,0.1,15.9,0.1c8.6,0.1,15.6,7,15.7,15.7c0,6.4-2.2,8.1-14.2,25.5c-0.6,0.9-1.9,1.1-2.7,0.5     C14.5,41.6,14.3,41.4,14.2,41.3z"></path>
			<path id="Tracé_138-4" class="st6" d="M22.5,8l-6.2,4.3L6.4,6.7v10.6l5.6,2.8V28l10.5-7.3v-5.2h3.7v-1.5h-3.7V8z M13.5,25.2     v-4.3l3.6,1.8L13.5,25.2z M21,20l-2.5,1.8L7.9,16.4V9.3L21,16.7L21,20z M21,15l-3.2-1.8l3.2-2.2V15z"></path>
		</g>
		<g id="Groupe_620" transform="translate(198.425 243.025)">
			
				<linearGradient id="Tracé_470-5_00000110441584755579833480000018252766146322620318_" gradientUnits="userSpaceOnUse" x1="-224.1293" y1="17.6246" x2="-222.7463" y2="18.6246" gradientTransform="matrix(31.575 0 0 -41.9752 7084.2202 766.3607)">
				<stop offset="0" style="stop-color:#F58B5D"></stop>
				<stop offset="1" style="stop-color:#FFFFFF"></stop>
			</linearGradient>
			<path id="Tracé_470-5" style="fill:url(#Tracé_470-5_00000110441584755579833480000018252766146322620318_);" d="M14.2,41.3     C2.2,23.9,0,22.2,0,15.8C0.1,7.1,7.2,0.1,15.9,0.1c8.6,0.1,15.6,7,15.7,15.7c0,6.4-2.2,8.1-14.2,25.5c-0.6,0.9-1.9,1.1-2.7,0.5     C14.5,41.6,14.3,41.4,14.2,41.3z"></path>
			<path id="Tracé_138-5" class="st6" d="M22.5,8l-6.2,4.3L6.4,6.7v10.6l5.6,2.8V28l10.5-7.3v-5.2h3.7v-1.5h-3.7V8z M13.5,25.2     v-4.3l3.6,1.8L13.5,25.2z M21,20l-2.5,1.8L7.9,16.4V9.3L21,16.7L21,20z M21,15l-3.2-1.8l3.2-2.2V15z"></path>
		</g>
		<g id="Groupe_622" transform="translate(0 113.95)">
			
				<linearGradient id="Tracé_470-6_00000132792693211251135850000009849491230294692738_" gradientUnits="userSpaceOnUse" x1="-25.7043" y1="146.6996" x2="-24.3213" y2="147.6996" gradientTransform="matrix(31.575 0 0 -41.9752 818.9507 6184.3154)">
				<stop offset="0" style="stop-color:#F58B5D"></stop>
				<stop offset="1" style="stop-color:#FFFFFF"></stop>
			</linearGradient>
			<path id="Tracé_470-6" style="fill:url(#Tracé_470-6_00000132792693211251135850000009849491230294692738_);" d="M14.2,41.3     C2.2,23.9,0,22.2,0,15.8C0.1,7.1,7.2,0.1,15.9,0.1c8.6,0.1,15.6,7,15.7,15.7c0,6.4-2.2,8.1-14.2,25.5c-0.6,0.9-1.9,1.1-2.7,0.5     C14.5,41.6,14.3,41.4,14.2,41.3z"></path>
			<path id="Tracé_138-6" class="st6" d="M22.5,8l-6.2,4.3L6.4,6.7v10.6l5.6,2.8V28l10.5-7.3v-5.2h3.7v-1.5h-3.7V8z M13.5,25.2     v-4.3l3.6,1.8L13.5,25.2z M21,20l-2.5,1.8L7.9,16.4V9.3L21,16.7L21,20z M21,15l-3.2-1.8l3.2-2.2V15z"></path>
		</g>
		<path id="Tracé_2190" class="st11" d="M0.4,166.4v1.9h-2.6v7.9h-2.4v-7.9h-2.6v-1.9H0.4z M6.3,176.3c-0.9,0-1.8-0.2-2.5-0.6    c-0.8-0.4-1.4-1-1.8-1.8c-0.5-0.8-0.7-1.7-0.7-2.6c0-0.9,0.2-1.8,0.7-2.6c0.4-0.8,1.1-1.4,1.8-1.8c0.8-0.4,1.7-0.7,2.5-0.6    c0.9,0,1.8,0.2,2.5,0.6c0.8,0.4,1.4,1,1.8,1.8c0.4,0.8,0.7,1.7,0.7,2.6c0,0.9-0.2,1.8-0.7,2.6c-0.4,0.8-1.1,1.4-1.8,1.8    C8,176.1,7.2,176.4,6.3,176.3z M6.3,174.2c0.7,0,1.4-0.3,1.9-0.8c0.5-0.6,0.7-1.3,0.7-2.1c0-0.8-0.2-1.5-0.7-2.1    c-0.5-0.5-1.2-0.8-1.9-0.8c-0.7,0-1.4,0.2-1.9,0.8c-0.5,0.6-0.7,1.3-0.7,2.1c0,0.8,0.2,1.5,0.7,2.1C4.9,173.9,5.6,174.2,6.3,174.2    L6.3,174.2z M15,166.4v5.9c0,0.5,0.1,1,0.4,1.4c0.3,0.3,0.8,0.5,1.3,0.5c0.5,0,0.9-0.1,1.3-0.5c0.3-0.4,0.5-0.9,0.4-1.4v-5.9h2.4    v5.9c0,0.8-0.2,1.6-0.6,2.2c-0.4,0.6-0.9,1.1-1.5,1.4c-0.7,0.3-1.4,0.5-2.1,0.5c-0.7,0-1.4-0.1-2.1-0.5c-0.6-0.3-1.1-0.8-1.4-1.4    c-0.4-0.7-0.6-1.5-0.5-2.2v-5.9H15z M27.5,176.2l-2-3.7h-0.6v3.7h-2.4v-9.8h4c0.7,0,1.4,0.1,2,0.4c0.5,0.2,0.9,0.6,1.2,1.1    c0.3,0.5,0.4,1,0.4,1.6c0,0.6-0.2,1.2-0.6,1.8c-0.4,0.5-1,0.9-1.6,1.1l2.3,3.9H27.5z M24.9,170.8h1.5c0.4,0,0.7-0.1,1-0.3    c0.2-0.2,0.4-0.6,0.3-0.9c0-0.3-0.1-0.6-0.3-0.9c-0.3-0.2-0.6-0.3-1-0.3h-1.5V170.8z M35.2,176.3c-0.7,0-1.3-0.1-1.9-0.4    c-0.5-0.2-1-0.6-1.4-1c-0.3-0.5-0.5-1.1-0.5-1.7h2.5c0,0.3,0.2,0.6,0.4,0.8c0.2,0.2,0.5,0.3,0.8,0.3c0.3,0,0.6-0.1,0.8-0.2    c0.2-0.2,0.3-0.4,0.3-0.7c0-0.2-0.1-0.4-0.2-0.6c-0.2-0.2-0.4-0.3-0.6-0.4c-0.3-0.1-0.7-0.3-1-0.3c-0.5-0.2-1.1-0.4-1.6-0.6    c-0.4-0.2-0.8-0.5-1-0.9c-0.3-0.4-0.5-1-0.4-1.5c0-0.8,0.3-1.6,1-2.1c0.8-0.5,1.7-0.8,2.6-0.8c0.9,0,1.9,0.2,2.6,0.8    c0.7,0.5,1.1,1.3,1.1,2.2H36c0-0.3-0.1-0.6-0.3-0.7c-0.2-0.2-0.5-0.3-0.8-0.3c-0.3,0-0.5,0.1-0.7,0.2c-0.2,0.2-0.3,0.4-0.3,0.7    c0,0.3,0.2,0.6,0.4,0.7c0.4,0.2,0.9,0.4,1.4,0.6c0.5,0.2,1,0.4,1.5,0.6c0.4,0.2,0.8,0.5,1,0.9c0.3,0.4,0.5,0.9,0.4,1.4    c0,0.5-0.1,1.1-0.4,1.5c-0.3,0.5-0.7,0.9-1.2,1.1C36.5,176.2,35.8,176.4,35.2,176.3z"></path>
		<path id="Tracé_2188" class="st11" d="M29.4,62.2l-2-3.7h-0.6v3.7h-2.4v-9.8h4c0.7,0,1.4,0.1,2,0.4c0.5,0.2,0.9,0.6,1.2,1.1    c0.3,0.5,0.4,1,0.4,1.6c0,0.6-0.2,1.2-0.6,1.8c-0.4,0.5-1,0.9-1.6,1.1l2.3,3.9H29.4z M26.7,56.8h1.5c0.4,0,0.7-0.1,1-0.3    c0.2-0.2,0.4-0.6,0.3-0.9c0-0.3-0.1-0.6-0.3-0.9c-0.3-0.2-0.6-0.3-1-0.3h-1.5V56.8z M38.1,62.3c-0.9,0-1.8-0.2-2.5-0.6    c-0.8-0.4-1.4-1-1.8-1.8c-0.5-0.8-0.7-1.7-0.7-2.6c0-0.9,0.2-1.8,0.7-2.6c0.4-0.8,1.1-1.4,1.8-1.8c0.8-0.4,1.7-0.7,2.5-0.6    c0.9,0,1.8,0.2,2.5,0.6c0.8,0.4,1.4,1,1.8,1.8c0.4,0.8,0.7,1.7,0.7,2.6c0,0.9-0.2,1.8-0.7,2.6c-0.4,0.8-1.1,1.4-1.8,1.8    C39.9,62.1,39,62.4,38.1,62.3z M38.1,60.2c0.7,0,1.4-0.3,1.9-0.8c0.5-0.6,0.7-1.3,0.7-2.1c0-0.8-0.2-1.5-0.7-2.1    c-0.5-0.5-1.2-0.8-1.9-0.8c-0.7,0-1.4,0.2-1.9,0.8c-0.5,0.6-0.7,1.3-0.7,2.1c0,0.8,0.2,1.5,0.7,2.1C36.7,59.9,37.4,60.2,38.1,60.2    L38.1,60.2z M46.8,52.4v5.9c0,0.5,0.1,1,0.4,1.4c0.3,0.3,0.8,0.5,1.3,0.5c0.5,0,0.9-0.1,1.3-0.5c0.3-0.4,0.5-0.9,0.5-1.4v-5.9h2.4    v5.9c0,0.8-0.2,1.6-0.6,2.2c-0.4,0.6-0.9,1.1-1.5,1.4c-0.7,0.3-1.4,0.5-2.1,0.5c-0.7,0-1.4-0.1-2.1-0.5c-0.6-0.3-1.1-0.8-1.4-1.4    c-0.4-0.7-0.6-1.5-0.5-2.2v-5.9L46.8,52.4z M56.7,54.3v2h3.2v1.8h-3.2v2.2h3.6v1.9h-6v-9.8h6v1.9H56.7z M70.7,62.2h-2.4l-4-6.1    v6.1h-2.4v-9.8h2.4l4,6.1v-6.1h2.4L70.7,62.2z"></path>
		<path id="Tracé_2191" class="st11" d="M198.7,302.4h3.1v1.8h-5.5v-9.8h2.4V302.4z M211.5,294.4l-3.4,6.6v3.2h-2.4V301l-3.4-6.6    h2.7l1.9,4.1l1.9-4.1H211.5z M217.1,304.3c-0.9,0-1.8-0.2-2.5-0.6c-0.8-0.4-1.4-1-1.8-1.8c-0.5-0.8-0.7-1.7-0.7-2.6    c0-0.9,0.2-1.8,0.7-2.6c0.4-0.8,1.1-1.4,1.8-1.8c0.8-0.4,1.7-0.7,2.5-0.6c0.9,0,1.8,0.2,2.5,0.6c0.8,0.4,1.4,1,1.8,1.8    c0.4,0.8,0.7,1.7,0.7,2.6c0,0.9-0.2,1.8-0.7,2.6c-0.4,0.8-1.1,1.4-1.8,1.8C218.8,304.1,218,304.4,217.1,304.3z M217.1,302.2    c0.7,0,1.4-0.3,1.9-0.8c0.5-0.6,0.7-1.3,0.7-2.1c0-0.8-0.2-1.5-0.7-2.1c-0.5-0.5-1.2-0.8-1.9-0.8c-0.7,0-1.4,0.2-1.9,0.8    c-0.5,0.6-0.7,1.3-0.7,2.1c0,0.8,0.2,1.5,0.7,2.1C215.7,301.9,216.3,302.2,217.1,302.2L217.1,302.2z M232.2,304.2h-2.4l-4-6.1v6.1    h-2.4v-9.8h2.4l4,6.1v-6.1h2.4L232.2,304.2z"></path>
		<g id="Groupe_620_00000176039102201748173530000015399637829797213847_" transform="translate(198.425 243.025)">
			
				<linearGradient id="Tracé_470-5_00000119099483439290133410000012516431461619374214_" gradientUnits="userSpaceOnUse" x1="-223.7128" y1="23.2818" x2="-222.3298" y2="24.2818" gradientTransform="matrix(31.575 0 0 -41.9752 7084.2202 766.3607)">
				<stop offset="0" style="stop-color:#F58B5D"></stop>
				<stop offset="1" style="stop-color:#FFFFFF"></stop>
			</linearGradient>
			
				<path id="Tracé_470-5_00000137828757367507824620000012176359199985503634_" style="fill:url(#Tracé_470-5_00000119099483439290133410000012516431461619374214_);" d="     M27.3-196.2c-11.9-17.3-14.2-19.1-14.2-25.5c0.1-8.7,7.2-15.7,15.9-15.7c8.6,0.1,15.6,7,15.7,15.7c0,6.4-2.2,8.1-14.2,25.5     c-0.6,0.9-1.9,1.1-2.7,0.5C27.6-195.8,27.5-196,27.3-196.2z"></path>
			<path id="Tracé_138-5_00000173151439709560910810000000322604829132333478_" class="st6" d="M35.6-229.4l-6.2,4.3l-9.9-5.6v10.6     l5.6,2.8v7.9l10.5-7.3v-5.2h3.7v-1.5h-3.7V-229.4z M26.6-212.3v-4.3l3.6,1.8L26.6-212.3z M34.1-217.4l-2.5,1.8l-10.5-5.4v-7.1     l13.1,7.4L34.1-217.4z M34.1-222.5l-3.2-1.8l3.2-2.2V-222.5z"></path>
		</g>
		<path id="Tracé_2193" class="st11" d="M47.4,412.4v1.9h-2.6v7.9h-2.4v-7.9h-2.6v-1.9H47.4z M53.3,422.3c-0.9,0-1.8-0.2-2.5-0.6    c-0.8-0.4-1.4-1-1.8-1.8c-0.5-0.8-0.7-1.7-0.7-2.6c0-0.9,0.2-1.8,0.7-2.6c0.4-0.8,1.1-1.4,1.8-1.8c0.8-0.4,1.7-0.7,2.5-0.6    c0.9,0,1.8,0.2,2.5,0.6c0.8,0.4,1.4,1,1.8,1.8c0.4,0.8,0.7,1.7,0.7,2.6c0,0.9-0.2,1.8-0.7,2.6c-0.4,0.8-1.1,1.4-1.8,1.8    C55,422.1,54.2,422.4,53.3,422.3z M53.3,420.2c0.7,0,1.4-0.3,1.9-0.8c0.5-0.6,0.7-1.3,0.7-2.1c0-0.8-0.2-1.5-0.7-2.1    c-0.5-0.5-1.2-0.8-1.9-0.8c-0.7,0-1.4,0.2-1.9,0.8c-0.5,0.6-0.7,1.3-0.7,2.1c0,0.8,0.2,1.5,0.7,2.1    C51.9,419.9,52.6,420.2,53.3,420.2L53.3,420.2z M62,412.4v5.9c0,0.5,0.1,1,0.4,1.4c0.3,0.3,0.8,0.5,1.3,0.5c0.5,0,0.9-0.1,1.3-0.5    c0.3-0.4,0.5-0.9,0.4-1.4v-5.9h2.4v5.9c0,0.8-0.2,1.6-0.6,2.2c-0.4,0.6-0.9,1.1-1.5,1.4c-0.7,0.3-1.4,0.5-2.1,0.5    c-0.7,0-1.4-0.1-2.1-0.5c-0.6-0.3-1.1-0.8-1.4-1.4c-0.4-0.7-0.6-1.5-0.5-2.2v-5.9H62z M71.9,420.4H75v1.8h-5.5v-9.8h2.4    L71.9,420.4z M80.8,422.3c-0.9,0-1.8-0.2-2.5-0.6c-0.8-0.4-1.4-1-1.8-1.8c-0.5-0.8-0.7-1.7-0.7-2.6c0-0.9,0.2-1.8,0.7-2.6    c0.4-0.8,1.1-1.4,1.8-1.8c0.8-0.4,1.7-0.7,2.5-0.6c0.9,0,1.8,0.2,2.5,0.6c0.8,0.4,1.4,1,1.8,1.8c0.4,0.8,0.7,1.7,0.7,2.6    c0,0.9-0.2,1.8-0.7,2.6c-0.4,0.8-1.1,1.4-1.8,1.8C82.6,422.1,81.7,422.4,80.8,422.3z M80.8,420.2c0.7,0,1.4-0.3,1.9-0.8    c0.5-0.6,0.7-1.3,0.7-2.1c0-0.8-0.2-1.5-0.7-2.1c-0.5-0.5-1.2-0.8-1.9-0.8c-0.7,0-1.4,0.2-1.9,0.8c-0.5,0.6-0.7,1.3-0.7,2.1    c0,0.8,0.2,1.5,0.7,2.1C79.4,419.9,80.1,420.2,80.8,420.2L80.8,420.2z M89.5,412.4v5.9c0,0.5,0.1,1,0.4,1.4    c0.3,0.3,0.8,0.5,1.3,0.5c0.5,0,0.9-0.1,1.3-0.5c0.3-0.4,0.5-0.9,0.4-1.4v-5.9h2.4v5.9c0,0.8-0.2,1.6-0.6,2.2    c-0.4,0.6-0.9,1.1-1.5,1.4c-0.7,0.3-1.4,0.5-2.1,0.5c-0.7,0-1.4-0.1-2.1-0.5c-0.6-0.3-1.1-0.8-1.4-1.4c-0.4-0.7-0.6-1.5-0.5-2.2    v-5.9H89.5z M100.6,422.3c-0.7,0-1.3-0.1-1.9-0.4c-0.5-0.2-1-0.6-1.4-1c-0.3-0.5-0.5-1.1-0.5-1.7h2.5c0,0.3,0.2,0.6,0.4,0.8    c0.2,0.2,0.5,0.3,0.8,0.3c0.3,0,0.6-0.1,0.8-0.2c0.2-0.2,0.3-0.4,0.3-0.7c0-0.2-0.1-0.4-0.2-0.6c-0.2-0.2-0.4-0.3-0.6-0.4    c-0.3-0.1-0.7-0.3-1-0.4c-0.5-0.2-1.1-0.4-1.6-0.6c-0.4-0.2-0.8-0.5-1-0.9c-0.3-0.4-0.5-1-0.4-1.5c0-0.8,0.3-1.6,1-2.1    c0.8-0.5,1.7-0.8,2.6-0.8c0.9,0,1.9,0.2,2.6,0.8c0.7,0.5,1.1,1.3,1.1,2.2h-2.6c0-0.3-0.1-0.6-0.3-0.7c-0.2-0.2-0.5-0.3-0.8-0.3    c-0.3,0-0.5,0.1-0.7,0.2c-0.2,0.2-0.3,0.4-0.3,0.7c0,0.3,0.2,0.6,0.4,0.7c0.4,0.2,0.9,0.4,1.4,0.6c0.5,0.2,1,0.4,1.5,0.6    c0.4,0.2,0.8,0.5,1,0.9c0.3,0.4,0.5,0.9,0.4,1.4c0,0.5-0.1,1.1-0.4,1.5c-0.3,0.5-0.7,0.9-1.2,1.1    C101.9,422.2,101.3,422.4,100.6,422.3z M108.1,414.3v2h3.2v1.8h-3.2v2.2h3.6v1.9h-6v-9.8h6v1.9H108.1z"></path>
		<path id="Tracé_2192" class="st11" d="M206.5,411.4v9.8h-2.4v-5.9l-2.2,5.9H200l-2.2-5.9v5.9h-2.4v-9.8h2.8l2.8,6.8l2.7-6.8    H206.5z M214.3,419.5h-3.7l-0.6,1.7h-2.5l3.6-9.8h2.8l3.6,9.8h-2.5L214.3,419.5z M213.7,417.7l-1.2-3.6l-1.2,3.6L213.7,417.7z     M223.5,421.2l-2-3.7h-0.6v3.7h-2.4v-9.8h4c0.7,0,1.4,0.1,2,0.4c0.5,0.2,0.9,0.6,1.2,1.1c0.3,0.5,0.4,1,0.4,1.6    c0,0.6-0.2,1.2-0.6,1.8c-0.4,0.5-1,0.9-1.6,1.1l2.3,3.9H223.5z M220.9,415.8h1.5c0.4,0,0.7-0.1,1-0.3c0.2-0.2,0.4-0.6,0.3-0.9    c0-0.3-0.1-0.6-0.3-0.9c-0.3-0.2-0.6-0.3-1-0.3h-1.5V415.8z M231.2,421.3c-0.7,0-1.3-0.1-1.9-0.4c-0.5-0.2-1-0.6-1.4-1    c-0.3-0.5-0.5-1.1-0.5-1.7h2.5c0,0.3,0.2,0.6,0.4,0.8c0.2,0.2,0.5,0.3,0.8,0.3c0.3,0,0.6-0.1,0.8-0.2c0.2-0.2,0.3-0.4,0.3-0.7    c0-0.2-0.1-0.4-0.2-0.6c-0.2-0.2-0.4-0.3-0.6-0.4c-0.3-0.1-0.7-0.3-1-0.4c-0.5-0.2-1.1-0.4-1.6-0.6c-0.4-0.2-0.8-0.5-1-0.9    c-0.3-0.4-0.5-1-0.4-1.5c0-0.8,0.3-1.6,1-2.1c0.8-0.5,1.7-0.8,2.6-0.8c0.9,0,1.9,0.2,2.6,0.8c0.7,0.5,1.1,1.3,1.1,2.2h-2.6    c0-0.3-0.1-0.6-0.3-0.7c-0.2-0.2-0.5-0.3-0.8-0.3c-0.3,0-0.5,0.1-0.7,0.2c-0.2,0.2-0.3,0.4-0.3,0.7c0,0.3,0.2,0.6,0.4,0.7    c0.4,0.2,0.9,0.4,1.4,0.6c0.5,0.2,1,0.4,1.5,0.6c0.4,0.2,0.8,0.5,1,0.9c0.3,0.4,0.5,0.9,0.4,1.4c0,0.5-0.1,1.1-0.4,1.5    c-0.3,0.5-0.7,0.9-1.2,1.1C232.5,421.2,231.9,421.4,231.2,421.3z M238.6,413.3v2h3.2v1.8h-3.2v2.2h3.6v1.9h-6v-9.8h6v1.9H238.6z     M246.2,411.4v9.8h-2.4v-9.8H246.2z M250.4,419.4h3.1v1.8H248v-9.8h2.4V419.4z M257,419.4h3.1v1.8h-5.5v-9.8h2.4V419.4z     M263.7,413.3v2h3.2v1.8h-3.2v2.2h3.6v1.9h-6v-9.8h6v1.9H263.7z"></path>
		<g>
			<g id="Groupe_623" transform="translate(80 36)">
				
					<linearGradient id="Tracé_470-3_00000000937120277089599360000009208750861678195611_" gradientUnits="userSpaceOnUse" x1="-104.9945" y1="222.4476" x2="-103.7918" y2="223.3172" gradientTransform="matrix(31.575 0 0 -41.9752 3344.9507 9456.2861)">
					<stop offset="0" style="stop-color:#F58B5D"></stop>
					<stop offset="1" style="stop-color:#FFFFFF"></stop>
				</linearGradient>
				<path id="Tracé_470-3" style="fill:url(#Tracé_470-3_00000000937120277089599360000009208750861678195611_);" d="M35.7,131.8      c-10.4-15.1-12.3-16.6-12.3-22.1c0.1-7.6,6.3-13.7,13.8-13.6c7.5,0.1,13.6,6.1,13.6,13.6c0,5.5-1.9,7.1-12.3,22.1      c-0.5,0.8-1.6,1-2.4,0.4C36,132.1,35.8,131.9,35.7,131.8z"></path>
				<path id="Tracé_138-3" class="st6" d="M42.9,102.9l-5.4,3.7l-8.6-4.9v9.2l4.8,2.5v6.9l9.1-6.3v-4.5h3.2v-1.3h-3.2V102.9z       M35.1,117.8v-3.7l3.1,1.6L35.1,117.8z M41.6,113.3l-2.2,1.5l-9.2-4.7v-6.2l11.4,6.5L41.6,113.3z M41.6,108.9l-2.8-1.6l2.8-1.9      V108.9z"></path>
			</g>
			<g>
				<path class="st11" d="M90.9,175.4l-3,8.5h-2.6l-3-8.5h2.2l2.1,6.4l2.1-6.4H90.9z"></path>
				<path class="st11" d="M93.8,177v1.7h2.8v1.6h-2.8v1.9H97v1.7h-5.2v-8.5H97v1.7H93.8z"></path>
				<path class="st11" d="M102.7,183.9l-1.8-3.2h-0.5v3.2h-2.1v-8.5h3.5c0.7,0,1.2,0.1,1.7,0.4s0.8,0.6,1.1,1      c0.2,0.4,0.4,0.9,0.4,1.4c0,0.6-0.2,1.1-0.5,1.5c-0.3,0.4-0.8,0.8-1.4,0.9l2,3.4H102.7z M100.4,179.2h1.3c0.4,0,0.7-0.1,0.9-0.3      c0.2-0.2,0.3-0.5,0.3-0.8c0-0.3-0.1-0.6-0.3-0.8c-0.2-0.2-0.5-0.3-0.9-0.3h-1.3V179.2z"></path>
				<path class="st11" d="M107.7,183.7c-0.5-0.2-0.9-0.5-1.2-0.9c-0.3-0.4-0.5-0.9-0.5-1.4h2.2c0,0.3,0.1,0.6,0.3,0.7      c0.2,0.2,0.4,0.2,0.7,0.2c0.3,0,0.6-0.1,0.7-0.2c0.2-0.1,0.3-0.3,0.3-0.6c0-0.2-0.1-0.4-0.2-0.5c-0.1-0.1-0.3-0.3-0.5-0.3      c-0.2-0.1-0.5-0.2-0.9-0.3c-0.6-0.2-1-0.3-1.4-0.5c-0.3-0.2-0.6-0.4-0.9-0.8c-0.3-0.3-0.4-0.8-0.4-1.3c0-0.8,0.3-1.4,0.9-1.9      c0.6-0.5,1.3-0.7,2.3-0.7c0.9,0,1.7,0.2,2.3,0.7c0.6,0.5,0.9,1.1,0.9,1.9h-2.3c0-0.3-0.1-0.5-0.3-0.7c-0.2-0.2-0.4-0.2-0.7-0.2      c-0.3,0-0.5,0.1-0.6,0.2c-0.2,0.1-0.2,0.3-0.2,0.6c0,0.3,0.1,0.5,0.4,0.6c0.3,0.2,0.7,0.3,1.2,0.5c0.6,0.2,1,0.4,1.3,0.5      c0.3,0.2,0.6,0.4,0.9,0.7c0.3,0.3,0.4,0.7,0.4,1.3c0,0.5-0.1,0.9-0.4,1.3c-0.2,0.4-0.6,0.7-1.1,0.9c-0.5,0.2-1,0.4-1.7,0.4      C108.7,184,108.2,183.9,107.7,183.7z"></path>
				<path class="st11" d="M119,182.4h-3.2l-0.5,1.5h-2.2l3.1-8.5h2.4l3.1,8.5h-2.2L119,182.4z M118.5,180.8l-1.1-3.1l-1,3.1H118.5z"></path>
				<path class="st11" d="M124.8,175.4v8.5h-2.1v-8.5H124.8z"></path>
				<path class="st11" d="M128.4,182.3h2.7v1.6h-4.8v-8.5h2.1V182.3z"></path>
				<path class="st11" d="M134.2,182.3h2.7v1.6h-4.8v-8.5h2.1V182.3z"></path>
				<path class="st11" d="M140,177v1.7h2.8v1.6H140v1.9h3.2v1.7h-5.2v-8.5h5.2v1.7H140z"></path>
				<path class="st11" d="M145.9,183.7c-0.5-0.2-0.9-0.5-1.2-0.9c-0.3-0.4-0.5-0.9-0.5-1.4h2.2c0,0.3,0.1,0.6,0.3,0.7      c0.2,0.2,0.4,0.2,0.7,0.2c0.3,0,0.6-0.1,0.7-0.2c0.2-0.1,0.3-0.3,0.3-0.6c0-0.2-0.1-0.4-0.2-0.5c-0.1-0.1-0.3-0.3-0.5-0.3      c-0.2-0.1-0.5-0.2-0.9-0.3c-0.6-0.2-1-0.3-1.4-0.5c-0.3-0.2-0.6-0.4-0.9-0.8c-0.3-0.3-0.4-0.8-0.4-1.3c0-0.8,0.3-1.4,0.9-1.9      c0.6-0.5,1.3-0.7,2.3-0.7c0.9,0,1.7,0.2,2.3,0.7c0.6,0.5,0.9,1.1,0.9,1.9h-2.3c0-0.3-0.1-0.5-0.3-0.7c-0.2-0.2-0.4-0.2-0.7-0.2      c-0.3,0-0.5,0.1-0.6,0.2c-0.2,0.1-0.2,0.3-0.2,0.6c0,0.3,0.1,0.5,0.4,0.6c0.3,0.2,0.7,0.3,1.2,0.5c0.6,0.2,1,0.4,1.3,0.5      c0.3,0.2,0.6,0.4,0.9,0.7c0.3,0.3,0.4,0.7,0.4,1.3c0,0.5-0.1,0.9-0.4,1.3c-0.2,0.4-0.6,0.7-1.1,0.9c-0.5,0.2-1,0.4-1.7,0.4      C146.9,184,146.4,183.9,145.9,183.7z"></path>
			</g>
		</g>
		<g>
			<g>
				<g class="st14">
					<circle cx="164.6" cy="146.8" r="5.5"></circle>
				</g>
				<g>
					<circle class="st6" cx="162.9" cy="145" r="5.5"></circle>
				</g>
			</g>
			<g>
				<g class="st14">
					<path d="M151.4,127.6c-0.3,0.5-0.7,0.9-1.3,1.2c-0.6,0.3-1.3,0.5-2.1,0.5h-1.6v3.7h-2.5v-10.4h4.1c0.8,0,1.5,0.1,2.1,0.4       c0.6,0.3,1,0.7,1.3,1.2c0.3,0.5,0.4,1.1,0.4,1.7C151.8,126.5,151.7,127.1,151.4,127.6z M148.9,126.9c0.2-0.2,0.4-0.5,0.4-1       s-0.1-0.7-0.4-1c-0.2-0.2-0.6-0.3-1.1-0.3h-1.4v2.6h1.4C148.3,127.2,148.6,127.1,148.9,126.9z"></path>
					<path d="M159.6,131.1h-3.9l-0.6,1.8h-2.7l3.8-10.4h2.9l3.8,10.4h-2.7L159.6,131.1z M159,129.2l-1.3-3.8l-1.3,3.8H159z"></path>
					<path d="M169.4,133l-2.2-3.9h-0.6v3.9h-2.5v-10.4h4.3c0.8,0,1.5,0.1,2.1,0.4c0.6,0.3,1,0.7,1.3,1.2c0.3,0.5,0.4,1.1,0.4,1.7       c0,0.7-0.2,1.3-0.6,1.9c-0.4,0.5-1,0.9-1.7,1.2l2.4,4.1H169.4z M166.6,127.2h1.6c0.5,0,0.8-0.1,1-0.3c0.2-0.2,0.3-0.5,0.3-1       c0-0.4-0.1-0.7-0.3-0.9c-0.2-0.2-0.6-0.3-1-0.3h-1.6V127.2z"></path>
					<path d="M176.3,122.6V133h-2.5v-10.4H176.3z"></path>
					<path d="M179.8,132.7c-0.6-0.2-1.1-0.6-1.4-1.1c-0.4-0.5-0.6-1.1-0.6-1.7h2.7c0,0.4,0.2,0.7,0.4,0.9c0.2,0.2,0.5,0.3,0.9,0.3       c0.4,0,0.7-0.1,0.9-0.3c0.2-0.2,0.3-0.4,0.3-0.7c0-0.3-0.1-0.5-0.3-0.6c-0.2-0.2-0.4-0.3-0.6-0.4c-0.3-0.1-0.6-0.2-1.1-0.4       c-0.7-0.2-1.2-0.4-1.6-0.6c-0.4-0.2-0.8-0.5-1.1-0.9c-0.3-0.4-0.5-0.9-0.5-1.6c0-1,0.4-1.7,1.1-2.3c0.7-0.5,1.6-0.8,2.7-0.8       c1.1,0,2.1,0.3,2.8,0.8c0.7,0.5,1.1,1.3,1.1,2.3h-2.7c0-0.3-0.1-0.6-0.4-0.8c-0.2-0.2-0.5-0.3-0.9-0.3c-0.3,0-0.6,0.1-0.7,0.2       c-0.2,0.2-0.3,0.4-0.3,0.7c0,0.3,0.2,0.6,0.5,0.8c0.3,0.2,0.8,0.4,1.5,0.6c0.7,0.2,1.2,0.4,1.6,0.7c0.4,0.2,0.8,0.5,1.1,0.9       c0.3,0.4,0.5,0.9,0.5,1.5c0,0.6-0.2,1.1-0.5,1.6s-0.7,0.9-1.3,1.2c-0.6,0.3-1.2,0.4-2,0.4C181.1,133.1,180.4,132.9,179.8,132.7       z"></path>
				</g>
				<g>
					<path class="st6" d="M149.7,125.8c-0.3,0.5-0.7,0.9-1.3,1.2c-0.6,0.3-1.3,0.5-2.1,0.5h-1.6v3.7h-2.5v-10.4h4.1       c0.8,0,1.5,0.1,2.1,0.4c0.6,0.3,1,0.7,1.3,1.2c0.3,0.5,0.4,1.1,0.4,1.7C150.1,124.8,150,125.3,149.7,125.8z M147.2,125.1       c0.2-0.2,0.4-0.5,0.4-1s-0.1-0.7-0.4-1c-0.2-0.2-0.6-0.3-1.1-0.3h-1.4v2.6h1.4C146.6,125.5,146.9,125.4,147.2,125.1z"></path>
					<path class="st6" d="M157.9,129.4H154l-0.6,1.8h-2.7l3.8-10.4h2.9l3.8,10.4h-2.7L157.9,129.4z M157.2,127.4l-1.3-3.8l-1.3,3.8       H157.2z"></path>
					<path class="st6" d="M167.6,131.2l-2.2-3.9h-0.6v3.9h-2.5v-10.4h4.3c0.8,0,1.5,0.1,2.1,0.4c0.6,0.3,1,0.7,1.3,1.2       c0.3,0.5,0.4,1.1,0.4,1.7c0,0.7-0.2,1.3-0.6,1.9s-1,0.9-1.7,1.2l2.4,4.1H167.6z M164.9,125.5h1.6c0.5,0,0.8-0.1,1-0.3       c0.2-0.2,0.3-0.5,0.3-1c0-0.4-0.1-0.7-0.3-0.9c-0.2-0.2-0.6-0.3-1-0.3h-1.6V125.5z"></path>
					<path class="st6" d="M174.5,120.8v10.4H172v-10.4H174.5z"></path>
					<path class="st6" d="M178.1,131c-0.6-0.2-1.1-0.6-1.4-1.1c-0.4-0.5-0.6-1.1-0.6-1.7h2.7c0,0.4,0.2,0.7,0.4,0.9       c0.2,0.2,0.5,0.3,0.9,0.3c0.4,0,0.7-0.1,0.9-0.3c0.2-0.2,0.3-0.4,0.3-0.7c0-0.3-0.1-0.5-0.3-0.6c-0.2-0.2-0.4-0.3-0.6-0.4       c-0.3-0.1-0.6-0.2-1.1-0.4c-0.7-0.2-1.2-0.4-1.6-0.6c-0.4-0.2-0.8-0.5-1.1-0.9c-0.3-0.4-0.5-0.9-0.5-1.6c0-1,0.4-1.7,1.1-2.3       c0.7-0.5,1.6-0.8,2.7-0.8c1.1,0,2.1,0.3,2.8,0.8c0.7,0.5,1.1,1.3,1.1,2.3h-2.7c0-0.3-0.1-0.6-0.4-0.8c-0.2-0.2-0.5-0.3-0.9-0.3       c-0.3,0-0.6,0.1-0.7,0.2c-0.2,0.2-0.3,0.4-0.3,0.7c0,0.3,0.2,0.6,0.5,0.8c0.3,0.2,0.8,0.4,1.5,0.6c0.7,0.2,1.2,0.4,1.6,0.7       c0.4,0.2,0.8,0.5,1.1,0.9c0.3,0.4,0.5,0.9,0.5,1.5c0,0.6-0.2,1.1-0.5,1.6s-0.7,0.9-1.3,1.2c-0.6,0.3-1.2,0.4-2,0.4       C179.4,131.3,178.7,131.2,178.1,131z"></path>
				</g>
			</g>
		</g>
		<g>
			<g id="Groupe_623_00000041289270945687704730000004362075766773640605_" transform="translate(80 36)">
				
					<linearGradient id="Tracé_470-3_00000183942145102764306020000015874711013083521410_" gradientUnits="userSpaceOnUse" x1="-102.6411" y1="222.3529" x2="-101.4384" y2="223.2226" gradientTransform="matrix(31.575 0 0 -41.9752 3344.9507 9456.2861)">
					<stop offset="0" style="stop-color:#F58B5D"></stop>
					<stop offset="1" style="stop-color:#FFFFFF"></stop>
				</linearGradient>
				
					<path id="Tracé_470-3_00000090979791533857064140000015035329981623064225_" style="fill:url(#Tracé_470-3_00000183942145102764306020000015874711013083521410_);" d="      M110,135.7c-10.4-15.1-12.3-16.6-12.3-22.1c0.1-7.6,6.3-13.7,13.8-13.6c7.5,0.1,13.6,6.1,13.6,13.6c0,5.5-1.9,7.1-12.3,22.1      c-0.5,0.8-1.6,1-2.4,0.4C110.3,136.1,110.1,135.9,110,135.7z"></path>
				<path id="Tracé_138-3_00000138542760675027395740000008550713563706749882_" class="st6" d="M117.2,106.9l-5.4,3.7l-8.6-4.9      v9.2l4.8,2.5v6.9l9.1-6.3v-4.5h3.2v-1.3h-3.2V106.9z M109.4,121.8v-3.7l3.1,1.6L109.4,121.8z M115.9,117.3l-2.2,1.5l-9.2-4.7      v-6.2l11.4,6.5L115.9,117.3z M115.9,112.9l-2.8-1.6l2.8-1.9V112.9z"></path>
			</g>
			<g>
				<path class="st11" d="M169.8,182.8c0.4-0.7,0.9-1.2,1.5-1.5c0.7-0.4,1.4-0.6,2.2-0.6c1,0,1.9,0.3,2.6,0.8      c0.7,0.5,1.2,1.3,1.4,2.2h-2.3c-0.2-0.4-0.4-0.6-0.7-0.8c-0.3-0.2-0.7-0.3-1.1-0.3c-0.6,0-1.2,0.2-1.6,0.7      c-0.4,0.4-0.6,1-0.6,1.8c0,0.7,0.2,1.3,0.6,1.8c0.4,0.4,0.9,0.7,1.6,0.7c0.4,0,0.8-0.1,1.1-0.3c0.3-0.2,0.6-0.5,0.7-0.8h2.3      c-0.2,0.9-0.7,1.7-1.4,2.2c-0.7,0.5-1.6,0.8-2.6,0.8c-0.8,0-1.6-0.2-2.2-0.6c-0.7-0.4-1.2-0.9-1.5-1.5c-0.4-0.7-0.5-1.4-0.5-2.3      C169.3,184.2,169.5,183.4,169.8,182.8z"></path>
				<path class="st11" d="M183.3,189.3l-1.8-3.2H181v3.2h-2.1v-8.5h3.5c0.7,0,1.2,0.1,1.7,0.4s0.8,0.6,1.1,1      c0.2,0.4,0.4,0.9,0.4,1.4c0,0.6-0.2,1.1-0.5,1.5c-0.3,0.4-0.8,0.8-1.4,0.9l2,3.4H183.3z M181,184.6h1.3c0.4,0,0.7-0.1,0.9-0.3      c0.2-0.2,0.3-0.5,0.3-0.8c0-0.3-0.1-0.6-0.3-0.8c-0.2-0.2-0.5-0.3-0.9-0.3H181V184.6z"></path>
				<path class="st11" d="M188.9,182.5v1.7h2.8v1.6h-2.8v1.9h3.2v1.7h-5.2v-8.5h5.2v1.7H188.9z M190.8,179.1l-2.9,1.2v-1.4l2.9-1.4      V179.1z"></path>
				<path class="st11" d="M199.6,180.8v1.7h-2.3v6.9h-2.1v-6.9h-2.3v-1.7H199.6z"></path>
				<path class="st11" d="M202.7,182.5v1.7h2.8v1.6h-2.8v1.9h3.2v1.7h-5.2v-8.5h5.2v1.7H202.7z"></path>
				<path class="st11" d="M209.3,180.8v8.5h-2.1v-8.5H209.3z"></path>
				<path class="st11" d="M212.8,187.7h2.7v1.6h-4.8v-8.5h2.1V187.7z"></path>
			</g>
		</g>
		<g>
			<path class="st11" d="M207.9,57.4l-3.5,9.8h-3l-3.5-9.8h2.5l2.4,7.4l2.4-7.4H207.9z"></path>
			<path class="st11" d="M211.3,59.4v2h3.2v1.8h-3.2v2.2h3.6v1.9h-6v-9.8h6v1.9H211.3z"></path>
			<path class="st11" d="M221.5,67.3l-2-3.7h-0.6v3.7h-2.4v-9.8h4c0.8,0,1.4,0.1,2,0.4s1,0.6,1.2,1.1c0.3,0.5,0.4,1,0.4,1.6     c0,0.7-0.2,1.2-0.6,1.8c-0.4,0.5-0.9,0.9-1.6,1.1l2.3,3.9H221.5z M218.9,61.9h1.5c0.4,0,0.8-0.1,1-0.3c0.2-0.2,0.3-0.5,0.3-0.9     c0-0.4-0.1-0.7-0.3-0.9c-0.2-0.2-0.5-0.3-1-0.3h-1.5V61.9z"></path>
			<path class="st11" d="M232,58.1c0.8,0.4,1.4,1,1.8,1.7c0.4,0.7,0.6,1.6,0.6,2.6c0,1-0.2,1.8-0.6,2.6c-0.4,0.7-1,1.3-1.8,1.7     c-0.8,0.4-1.7,0.6-2.7,0.6h-3.7v-9.8h3.7C230.3,57.4,231.2,57.7,232,58.1z M231.2,64.5c0.5-0.5,0.8-1.2,0.8-2.1s-0.3-1.6-0.8-2.1     c-0.5-0.5-1.2-0.8-2.1-0.8H228v5.7h1.1C230,65.2,230.7,65,231.2,64.5z"></path>
			<path class="st11" d="M238.1,57.4v5.9c0,0.6,0.1,1,0.4,1.4c0.3,0.3,0.7,0.5,1.3,0.5c0.6,0,1-0.2,1.3-0.5s0.4-0.8,0.4-1.4v-5.9     h2.4v5.9c0,0.9-0.2,1.6-0.6,2.2c-0.4,0.6-0.9,1.1-1.5,1.4c-0.6,0.3-1.3,0.5-2.1,0.5s-1.5-0.2-2.1-0.5s-1.1-0.8-1.4-1.4     c-0.4-0.6-0.5-1.4-0.5-2.2v-5.9H238.1z"></path>
			<path class="st11" d="M254.4,67.3H252l-4-6.1v6.1h-2.4v-9.8h2.4l4,6.1v-6.1h2.4V67.3z"></path>
		</g>
	</g>
</g>
</svg>
