<svg xmlns="http://www.w3.org/2000/svg" xmlns:xlink="http://www.w3.org/1999/xlink" width="700" height="500" viewBox="0 0 700 500">
  <defs>
    <linearGradient id="linear-gradient" y1="0.5" x2="1" y2="0.5" gradientUnits="objectBoundingBox">
      <stop offset="0" stop-color="#bedefc"/>
      <stop offset="1" stop-color="#fff"/>
    </linearGradient>
    <linearGradient id="linear-gradient-3" y1="0.5" x2="1" y2="0.5" gradientUnits="objectBoundingBox">
      <stop offset="0" stop-color="#efa861"/>
      <stop offset="1" stop-color="#fff4df"/>
    </linearGradient>
    <linearGradient id="linear-gradient-4" y1="0.5" x2="1" y2="0.5" gradientUnits="objectBoundingBox">
      <stop offset="0" stop-color="#ef9348"/>
      <stop offset="1" stop-color="#fff4df"/>
    </linearGradient>
    <clipPath id="clip-path">
      <path id="Tracé_1437" data-name="Tracé 1437" d="M382.936-388.267v10.154H502.919V-573H382.936Z" fill="none"/>
    </clipPath>
    <linearGradient id="linear-gradient-7" y1="0.5" x2="1" y2="0.5" gradientUnits="objectBoundingBox">
      <stop offset="0" stop-color="#95bd3f"/>
      <stop offset="1" stop-color="#e1f1c1"/>
    </linearGradient>
    <clipPath id="clip-Collecte_et_traitement_de_matière">
      <rect width="700" height="500"/>
    </clipPath>
  </defs>
  <g id="Collecte_et_traitement_de_matière" data-name="Collecte et traitement de matière" clip-path="url(#clip-Collecte_et_traitement_de_matière)">
    <rect width="700" height="500" fill="#fff"/>
    <g id="Groupe_2004" data-name="Groupe 2004" transform="translate(10.617 604.999)">
      <g id="Groupe_1922" data-name="Groupe 1922">
        <g id="Groupe_1910" data-name="Groupe 1910">
          <path id="Tracé_1420" data-name="Tracé 1420" d="M414.97-367.962c0-15.319-8.264-27.92-18.86-29.464l-16.307-.161v59.249l16.307-.16C406.706-340.042,414.97-352.644,414.97-367.962Z" fill="#122a4c"/>
          <ellipse id="Ellipse_57" data-name="Ellipse 57" cx="21.054" cy="29.624" rx="21.054" ry="29.624" transform="translate(358.749 -397.587)" fill="#1c3661"/>
        </g>
        <rect id="Rectangle_362" data-name="Rectangle 362" width="107.764" height="19.297" transform="translate(494.624 -361.297) rotate(-180)" fill="#19559f"/>
        <g id="Groupe_1911" data-name="Groupe 1911">
          <path id="Tracé_1421" data-name="Tracé 1421" d="M2.383-410.676A11.321,11.321,0,0,1,13.67-421.964h0a11.322,11.322,0,0,1,11.288,11.288v4.8H2.383Z" fill="#19559f"/>
          <path id="Tracé_1422" data-name="Tracé 1422" d="M24.958-405.877v5.975A11.321,11.321,0,0,1,13.67-388.614h0A11.32,11.32,0,0,1,2.383-399.9v-5.975Z" fill="#1c3661"/>
        </g>
        <path id="Tracé_1423" data-name="Tracé 1423" d="M288.949-407.018a28.906,28.906,0,0,1,28.9,28.906H260.043A28.906,28.906,0,0,1,288.949-407.018Z" fill="#122a4c"/>
        <g id="Groupe_1912" data-name="Groupe 1912">
          <path id="Tracé_1424" data-name="Tracé 1424" d="M207.326-367.962c0-15.319-8.264-27.92-18.86-29.464l-16.307-.161v59.249l16.307-.16C199.062-340.042,207.326-352.644,207.326-367.962Z" fill="#122a4c"/>
          <ellipse id="Ellipse_58" data-name="Ellipse 58" cx="21.054" cy="29.624" rx="21.054" ry="29.624" transform="translate(151.105 -397.587)" fill="#1c3661"/>
        </g>
        <path id="Tracé_1425" data-name="Tracé 1425" d="M105.882-378.112s-38.377-9.356-63.716-4.139c-2.114.435-1.517-25.446-3.187-25.486-18.347-.438-10.6-19,13.989-21.053,26.83-2.236,32.792-.373,32.792-.373l16.768,9.316S120.414-391.155,105.882-378.112Z" fill="#90b3d3"/>
        <g id="Groupe_1913" data-name="Groupe 1913">
          <path id="Tracé_1426" data-name="Tracé 1426" d="M98.387-367.962c0-15.319-8.263-27.92-18.86-29.464l-16.307-.161v59.249l16.307-.16C90.124-340.042,98.387-352.644,98.387-367.962Z" fill="#1c3661"/>
          <ellipse id="Ellipse_59" data-name="Ellipse 59" cx="21.054" cy="29.624" rx="21.054" ry="29.624" transform="translate(42.166 -397.587)" fill="#19559f"/>
          <ellipse id="Ellipse_60" data-name="Ellipse 60" cx="10.581" cy="16.815" rx="10.581" ry="16.815" transform="translate(52.639 -384.777)" fill="#fff"/>
          <path id="Tracé_1427" data-name="Tracé 1427" d="M63.22-384.777a6.92,6.92,0,0,0-2.445.456c4.663,1.755,8.135,8.41,8.135,16.359s-3.472,14.6-8.135,16.358a6.9,6.9,0,0,0,2.445.457c5.843,0,10.581-7.529,10.581-16.815S69.063-384.777,63.22-384.777Z" fill="url(#linear-gradient)"/>
        </g>
        <g id="Groupe_1914" data-name="Groupe 1914">
          <path id="Tracé_1428" data-name="Tracé 1428" d="M321.708-367.962c0-15.319-8.264-27.92-18.86-29.464l-16.307-.161v59.249l16.307-.16C313.444-340.042,321.708-352.644,321.708-367.962Z" fill="#1c3661"/>
          <ellipse id="Ellipse_61" data-name="Ellipse 61" cx="21.054" cy="29.624" rx="21.054" ry="29.624" transform="translate(265.487 -397.587)" fill="#19559f"/>
          <ellipse id="Ellipse_62" data-name="Ellipse 62" cx="10.581" cy="16.815" rx="10.581" ry="16.815" transform="translate(275.96 -384.777)" fill="#fff"/>
          <path id="Tracé_1429" data-name="Tracé 1429" d="M286.541-384.777a6.929,6.929,0,0,0-2.446.456c4.664,1.755,8.135,8.41,8.135,16.359s-3.471,14.6-8.135,16.358a6.908,6.908,0,0,0,2.446.457c5.843,0,10.58-7.529,10.58-16.815S292.384-384.777,286.541-384.777Z" fill="url(#linear-gradient)"/>
        </g>
        <path id="Tracé_1430" data-name="Tracé 1430" d="M64.352-510.252a16.57,16.57,0,0,1,9.373-5.557c10.2-2.067,98.727-4.056,101.972,6.878,2.464,8.3,4.756,26.123,5.084,35.8.745,21.986,1.49,95.022,1.49,95.022H105.882s-.746-35.4-33.91-35.4c-20.66,0-27.574,31.261-27.574,31.261H26.546a12.154,12.154,0,0,1-12.154-12.155v-40.546a28.308,28.308,0,0,1,17.765-26.271L35.84-462.7Z" fill="#bedefc"/>
        <g id="Groupe_1915" data-name="Groupe 1915">
          <path id="Tracé_1431" data-name="Tracé 1431" d="M58.162-496.123l-9.284,16.768c-2.852,5.152-1.525,12.021,3.2,15.1a9.436,9.436,0,0,0,5.191,1.553H83.177c5.971,0,10.646-5.6,10.136-12.12-.572-7.308-1.666-16.6-3.748-23.992a10.268,10.268,0,0,0-9.7-7.765H72.355c-3.867,0-6.261,0-10.428,4.926A34.185,34.185,0,0,0,58.162-496.123Z" fill="#1c3661"/>
          <path id="Tracé_1432" data-name="Tracé 1432" d="M77.059-503.689s5.476-.373,8.537,3.167,5.272,24.594,3.571,29.438S67.2-503.922,77.059-503.689Z" fill="#19559f"/>
        </g>
        <path id="Tracé_1433" data-name="Tracé 1433" d="M382.936-388.267v10.154H502.919V-573H382.936Z" fill="#1c3661"/>
        <g id="Groupe_1916" data-name="Groupe 1916">
          <rect id="Rectangle_363" data-name="Rectangle 363" width="126.261" height="74.439" transform="translate(376.658 -572.999)" fill="#1c3661"/>
          <rect id="Rectangle_364" data-name="Rectangle 364" width="126.261" height="5.077" transform="translate(376.658 -548.519)" fill="#19559f"/>
          <rect id="Rectangle_365" data-name="Rectangle 365" width="126.261" height="5.077" transform="translate(376.658 -535.78)" fill="#19559f"/>
          <rect id="Rectangle_366" data-name="Rectangle 366" width="126.261" height="5.077" transform="translate(376.658 -523.04)" fill="#19559f"/>
          <rect id="Rectangle_367" data-name="Rectangle 367" width="126.261" height="5.077" transform="translate(376.658 -510.301)" fill="#19559f"/>
          <path id="Tracé_1434" data-name="Tracé 1434" d="M486.832-556.128H376.658V-573h126.26v74.439H486.832Z" fill="#19559f"/>
        </g>
        <path id="Tracé_1435" data-name="Tracé 1435" d="M382.936-566.721h113.7V-384.39h-113.7V-566.721M376.658-573v194.887H502.919V-573Z" fill="#1c3661"/>
        <path id="Tracé_1436" data-name="Tracé 1436" d="M377-573v194.887H317.854a28.906,28.906,0,0,0-28.9-28.906,28.906,28.906,0,0,0-28.906,28.906H115.329V-573Z" fill="#19559f"/>
        <rect id="Rectangle_368" data-name="Rectangle 368" width="4.185" height="157.456" transform="translate(347.625 -407.018) rotate(-180)" fill="#1c3661"/>
        <rect id="Rectangle_369" data-name="Rectangle 369" width="4.185" height="157.456" transform="translate(314.871 -407.018) rotate(-180)" fill="#1c3661"/>
        <rect id="Rectangle_370" data-name="Rectangle 370" width="4.185" height="157.456" transform="translate(282.117 -407.018) rotate(-180)" fill="#1c3661"/>
        <rect id="Rectangle_371" data-name="Rectangle 371" width="4.185" height="157.456" transform="translate(249.363 -407.018) rotate(-180)" fill="#1c3661"/>
        <rect id="Rectangle_372" data-name="Rectangle 372" width="4.185" height="157.456" transform="translate(216.609 -407.018) rotate(-180)" fill="#1c3661"/>
        <rect id="Rectangle_373" data-name="Rectangle 373" width="4.185" height="157.456" transform="translate(183.855 -407.018) rotate(-180)" fill="#1c3661"/>
        <rect id="Rectangle_374" data-name="Rectangle 374" width="4.185" height="157.456" transform="translate(151.101 -407.018) rotate(-180)" fill="#1c3661"/>
        <g id="Groupe_1917" data-name="Groupe 1917">
          <rect id="Rectangle_375" data-name="Rectangle 375" width="46.685" height="41.042" transform="translate(455.875 -384.39) rotate(-180)" fill="#f58b5d"/>
          <rect id="Rectangle_376" data-name="Rectangle 376" width="46.685" height="41.042" transform="translate(470.387 -384.39) rotate(-180)" fill="url(#linear-gradient-3)"/>
          <rect id="Rectangle_377" data-name="Rectangle 377" width="6.164" height="41.042" transform="translate(450.126 -384.39) rotate(-180)" fill="#f58b5d"/>
          <rect id="Rectangle_378" data-name="Rectangle 378" width="9.926" height="6.449" transform="translate(465.802 -413.021) rotate(-180)" fill="url(#linear-gradient-4)"/>
        </g>
        <g id="Groupe_1921" data-name="Groupe 1921">
          <g id="Groupe_1920" data-name="Groupe 1920" clip-path="url(#clip-path)">
            <g id="Groupe_1918" data-name="Groupe 1918">
              <rect id="Rectangle_379" data-name="Rectangle 379" width="46.685" height="41.042" transform="translate(399.023 -384.39) rotate(-180)" fill="#ff9147"/>
              <rect id="Rectangle_380" data-name="Rectangle 380" width="46.685" height="41.042" transform="translate(413.534 -384.39) rotate(-180)" fill="url(#linear-gradient-3)"/>
              <rect id="Rectangle_381" data-name="Rectangle 381" width="6.164" height="41.042" transform="translate(393.274 -384.39) rotate(-180)" fill="#f58b5d"/>
              <rect id="Rectangle_382" data-name="Rectangle 382" width="9.926" height="6.449" transform="translate(408.949 -413.021) rotate(-180)" fill="#f58b5d"/>
            </g>
            <g id="Groupe_1919" data-name="Groupe 1919">
              <rect id="Rectangle_383" data-name="Rectangle 383" width="58.658" height="41.042" transform="translate(417.407 -425.432) rotate(-180)" fill="#1c3661"/>
              <rect id="Rectangle_384" data-name="Rectangle 384" width="58.658" height="41.042" transform="translate(435.639 -425.432) rotate(-180)" fill="url(#linear-gradient-3)"/>
              <rect id="Rectangle_385" data-name="Rectangle 385" width="7.745" height="41.042" transform="translate(410.183 -425.432) rotate(-180)" fill="#f58b5d"/>
              <rect id="Rectangle_386" data-name="Rectangle 386" width="12.472" height="6.449" transform="translate(429.879 -454.063) rotate(-180)" fill="#f58b5d"/>
            </g>
          </g>
        </g>
        <path id="Tracé_138" data-name="Tracé 138" d="M1784.973-1167.254,1769-1156.215l-25.542-14.528v27.4l14.405,7.363v20.414l27.106-18.737V-1147.7h9.474v-3.857h-9.474Zm-23.227,44.311V-1134l9.195,4.695Zm19.348-13.374-6.545,4.523-27.209-13.9v-18.4l33.754,19.2Zm0-13.022-8.36-4.756,8.36-5.778Z" transform="translate(-1522.079 657.707)" fill="#fff"/>
      </g>
      <g id="Groupe_1937" data-name="Groupe 1937">
        <path id="Tracé_1438" data-name="Tracé 1438" d="M595.283-429.191s6.864,26.331,3.638,28.947c-7.634,6.19-57.35,1.291-57.308,8.556.067,12.008,26.444,11.629,47.724,8.813s33.547-.313,31.638-14.865S603.107-436.859,595.283-429.191Z" fill="#f5b29c"/>
        <g id="Groupe_1923" data-name="Groupe 1923">
          <path id="Tracé_1439" data-name="Tracé 1439" d="M620.36-400.985c-3.525-14.641-17.81-35.328-25.077-28.206,0,0,5.58,21.406,4.312,27.533A193.863,193.863,0,0,0,620.36-400.985Z" fill="#19559f"/>
        </g>
        <g id="Groupe_1925" data-name="Groupe 1925">
          <path id="Tracé_1440" data-name="Tracé 1440" d="M654.357-223.544s2.067,9.428.9,11.549a3.923,3.923,0,0,0,3.04,1.372,41.9,41.9,0,0,0,8.174-.821c-.781-3.125.461-11.2.368-12.96a84.615,84.615,0,0,1-9.141,1.546C654.39-222.632,654.357-223.544,654.357-223.544Z" fill="#122a4c"/>
          <g id="Groupe_1924" data-name="Groupe 1924">
            <path id="Tracé_1441" data-name="Tracé 1441" d="M657.56-205.266a94.989,94.989,0,0,1-14.454-.612,5.239,5.239,0,0,0-.154,1.083c-.074,1.944,19.64,2.616,23.026.873a3.09,3.09,0,0,0,1.442-2.718A62.364,62.364,0,0,1,657.56-205.266Z" fill="#fff"/>
            <path id="Tracé_1442" data-name="Tracé 1442" d="M657.56-205.266a62.364,62.364,0,0,0,9.86-1.374,9.352,9.352,0,0,0-.662-3.839,8.753,8.753,0,0,1-.29-.965,41.9,41.9,0,0,1-8.174.821,3.923,3.923,0,0,1-3.04-1.372c-.027.047-.053.1-.082.138-.563.825-2.139,1.4-4.312,2.216-3.141,1.465-6.958.518-7.754,3.763A94.989,94.989,0,0,0,657.56-205.266Z" fill="#122a4c"/>
          </g>
        </g>
        <g id="Groupe_1927" data-name="Groupe 1927">
          <path id="Tracé_1443" data-name="Tracé 1443" d="M609.114-223.544s2.066,9.428.9,11.549a3.925,3.925,0,0,0,3.04,1.372,41.9,41.9,0,0,0,8.174-.821c-.78-3.125.462-11.2.369-12.96a84.651,84.651,0,0,1-9.142,1.546C609.146-222.632,609.114-223.544,609.114-223.544Z" fill="#122a4c"/>
          <g id="Groupe_1926" data-name="Groupe 1926">
            <path id="Tracé_1444" data-name="Tracé 1444" d="M612.316-205.266a94.989,94.989,0,0,1-14.454-.612,5.247,5.247,0,0,0-.154,1.083c-.074,1.944,19.641,2.616,23.027.873a3.089,3.089,0,0,0,1.441-2.718A62.365,62.365,0,0,1,612.316-205.266Z" fill="#fff"/>
            <path id="Tracé_1445" data-name="Tracé 1445" d="M612.316-205.266a62.365,62.365,0,0,0,9.86-1.374,9.352,9.352,0,0,0-.661-3.839,8.526,8.526,0,0,1-.291-.965,41.9,41.9,0,0,1-8.174.821,3.925,3.925,0,0,1-3.04-1.372c-.027.047-.053.1-.081.138-.564.825-2.139,1.4-4.313,2.216-3.141,1.465-6.957.518-7.754,3.763A94.989,94.989,0,0,0,612.316-205.266Z" fill="#122a4c"/>
          </g>
        </g>
        <path id="Tracé_1446" data-name="Tracé 1446" d="M598.468-308.144c3.1-39.412,6.882-72.78,13.153-85.392,2.666-7.092,54.165-.973,55.8,1.476,17.625,26.429,2.64,86.332,4.737,102.454,3.738,28.721,0,55.651-2.4,68.377-1.374,7.269-16.452,4.548-20.167,2.367-.225-.132-13.763-119.56-13.763-119.56s-6.856,28.66-7.871,42.906c-.842,11.843,1.253,58.219-4.15,74.842-1.167,3.591-11.858,2.46-14.835,2.444C601.428-218.27,597.312-293.458,598.468-308.144Z" fill="url(#linear-gradient-7)"/>
        <path id="Tracé_1447" data-name="Tracé 1447" d="M669.752-221.229c2.4-12.726,6.143-39.656,2.4-68.377-1.979-15.208,9.342-60.272,3.637-92.281-6.643,7.832-61.8,4.008-61.8,12.994,0,7.229,41.446,11.72,41.421,14.415-.26,28.131,11.383,103.374,8.17,116.654-2.928,12.1-5.566,17.706-4.278,21.277C664.153-216.27,669-217.255,669.752-221.229Z" fill="#95bd3f"/>
        <path id="Tracé_1448" data-name="Tracé 1448" d="M675.926-392.148c-4.3-35.706-19.078-63.2-24.744-67.068-18.759-12.79-55.885.861-59.54,18.235-3.374,16.035,18.5,22.649,14.734,58.617C630.646-378.436,656.968-375.631,675.926-392.148Z" fill="#19559f"/>
        <path id="Tracé_1449" data-name="Tracé 1449" d="M606.7-387.275c-.281,2.676-1.016,10.41-1.6,13.428-.711,3.667,13.437,10.423,32.582,11.7,13.813.92,38.947,2.509,39.183-1.51a160.087,160.087,0,0,0-.941-28.49C657.729-382.838,636.178-379.986,606.7-387.275Z" fill="#95bd3f"/>
        <path id="Tracé_1450" data-name="Tracé 1450" d="M606.08-379.782q-.383,2.849-.978,5.935c-.216,1.113.946,2.512,3.194,3.955,13.821-2.656,25.534-9.548,32.286-20.377,13.755-22.06,12.839-38.329,12.839-38.329s-3.333,7.113-12.839,20.844C634.027-398.286,616.4-386.307,606.08-379.782Z" fill="#1c3661"/>
        <g id="Groupe_1933" data-name="Groupe 1933">
          <path id="Tracé_1451" data-name="Tracé 1451" d="M597.3-482.868s-.933-7.662,6.016-9.13c9.844-2.079,14.415,8.367,13.161,12.511-1.752,5.791-5.634,4.686-9.337,3.138S597.3-482.868,597.3-482.868Z" fill="#19559f"/>
          <path id="Tracé_1452" data-name="Tracé 1452" d="M611.448-481.631s-8.751-8.342-13.781-8.9c-6.879-.763-8.328,5.4-6.7,7.971s9.064,6.818,10.964,6.661S611.448-481.631,611.448-481.631Z" fill="#1c3661"/>
          <path id="Tracé_1453" data-name="Tracé 1453" d="M594.863-480.777a4.421,4.421,0,0,1,1.713-2.859,6.292,6.292,0,0,1,2.194-1.11,14.9,14.9,0,0,1,12.586,1.758,4.688,4.688,0,0,1,1.478,1.392,23.011,23.011,0,0,1,2.949,10.872,47.729,47.729,0,0,1-11.4-1.022C601.16-472.475,594.393-476.681,594.863-480.777Z" fill="#1c3661"/>
          <path id="Tracé_1454" data-name="Tracé 1454" d="M612.095-475.342l11.3,14.152c.842,2.264-9.1,12.983-13.723,11.407-1.353-.461-1.848-2.742-1.713-5.458l1.23-14.969Z" fill="#f5b29c"/>
          <path id="Tracé_1455" data-name="Tracé 1455" d="M608.944-467.2c2.342-1.349,5.523-3.235,5.523-3.235a11.5,11.5,0,0,1-1.179,8.326,11.023,11.023,0,0,1-5.148,4.682Z" fill="#1c3661"/>
          <path id="Tracé_1456" data-name="Tracé 1456" d="M606.924-479.49l6.69,7.509a6.134,6.134,0,0,1-1.042,8.493,16.961,16.961,0,0,1-6.757,3.274c-2.636.788-4.969-1.054-6.4-4.336a33.461,33.461,0,0,1-2.492-11.1C596.617-481.115,602.206-484.065,606.924-479.49Z" fill="#f5b29c"/>
          <path id="Tracé_1457" data-name="Tracé 1457" d="M613.614-471.981l-6.588-8.2c-.577-.56-1.269-.315-1.86-.659.9,1.7,2.565,5.481,2.367,6.329-.509,2.174-1.071.626-4.051,1.82a19.581,19.581,0,0,0-5.447,4.1,27.8,27.8,0,0,0,1.38,4.042c1.431,3.282,3.764,5.124,6.4,4.336a16.961,16.961,0,0,0,6.757-3.274A6.134,6.134,0,0,0,613.614-471.981Z" fill="#1c3661"/>
          <path id="Tracé_1458" data-name="Tracé 1458" d="M604.462-470.819a16.523,16.523,0,0,1-4.933,2.332s.752,1.942,2.2,2.1S604.763-468.24,604.462-470.819Z" fill="#fff"/>
          <g id="Groupe_1928" data-name="Groupe 1928">
            <path id="Tracé_1459" data-name="Tracé 1459" d="M603.617-463.132c2.556-1.784,6.536,1.532,9.763-4.663.6-1.155.306-3.171.088-4.35l.146.164a6.134,6.134,0,0,1-1.042,8.493,16.961,16.961,0,0,1-6.757,3.274,4.272,4.272,0,0,1-4.348-1.228C602-461.579,602.836-462.588,603.617-463.132Z" fill="#122a4c"/>
          </g>
          <path id="Tracé_1460" data-name="Tracé 1460" d="M608.232-475.845a8.759,8.759,0,0,0-.585-1.767c-.473-1.087-.923-2.81,1.033-2.719,2.845.133,5.178,5.4,2.686,7.005C609.515-472.131,608.542-474.306,608.232-475.845Z" fill="#f5b29c"/>
          <g id="Groupe_1932" data-name="Groupe 1932">
            <g id="Groupe_1929" data-name="Groupe 1929">
              <path id="Tracé_1461" data-name="Tracé 1461" d="M596.294-467.056l.542-.238a4.277,4.277,0,0,0,2.545-4.454l-.238-1.974a2.409,2.409,0,0,0-1.818-2.049h0a2.42,2.42,0,0,0-1.532.135l-3.7,1.623a2.406,2.406,0,0,0-1.236,3.166l.881,2.011A3.465,3.465,0,0,0,596.294-467.056Zm.77-7.638a1.3,1.3,0,0,1,.979,1.1l.238,1.975a3.175,3.175,0,0,1-1.89,3.307l-.542.238a2.356,2.356,0,0,1-3.1-1.21l-.881-2.011a1.3,1.3,0,0,1,.666-1.706l3.7-1.623a1.308,1.308,0,0,1,.826-.073Z" fill="#fff"/>
            </g>
            <g id="Groupe_1930" data-name="Groupe 1930">
              <path id="Tracé_1462" data-name="Tracé 1462" d="M605.733-471.193l.543-.238a3.464,3.464,0,0,0,1.78-4.559L607.174-478a2.4,2.4,0,0,0-3.165-1.236l-3.7,1.623a2.416,2.416,0,0,0-1.137,1.035h0a2.414,2.414,0,0,0,.275,2.725l1.291,1.513A4.278,4.278,0,0,0,605.733-471.193Zm-1.279-7.029a1.3,1.3,0,0,1,1.705.666l.882,2.011a2.355,2.355,0,0,1-1.21,3.1l-.543.238a3.178,3.178,0,0,1-3.713-.851l-1.29-1.513a1.3,1.3,0,0,1-.148-1.469,1.3,1.3,0,0,1,.613-.557Z" fill="#fff"/>
            </g>
            <g id="Groupe_1931" data-name="Groupe 1931">
              <path id="Tracé_1463" data-name="Tracé 1463" d="M598.942-473.956c.087-.181.174-.264.226-.278l.7-.923a1.293,1.293,0,0,0-1-.144,1.5,1.5,0,0,0-.925.862Z" fill="#fff"/>
            </g>
          </g>
        </g>
        <path id="Tracé_1464" data-name="Tracé 1464" d="M596.919-434.422c-.909-4.483-1.7-8.881-2.287-12.383,2.046-3.128,6.046-6.645,10.989-9.712-.3,5.24-.792,17.83,1.511,19.116,2.916,1.63,18.317-6.379,18.317-6.379l-.892-20.192a29.025,29.025,0,0,1,8.656-.243c.5.069.985.151,1.46.241-3.935,17,20.521,68.142,13.865,103.638-27.256.317-40.25-9.508-40.25-9.508-.088-.838,3.871-25.233,1.585-28.207a37,37,0,0,0-5.66-18.526A51.6,51.6,0,0,1,596.919-434.422Z" fill="#95bd3f"/>
        <path id="Tracé_1465" data-name="Tracé 1465" d="M645.565-458.285c-14.969-3.494-21.061,52.173-31.948,59.1-13.976,8.889-64.1,2.961-65.011,15.57-.852,11.858,42.112,16.965,73.456,4.631C647.154-388.86,664.788-453.8,645.565-458.285Z" fill="#f5b29c"/>
        <g id="Groupe_1935" data-name="Groupe 1935">
          <g id="Groupe_1934" data-name="Groupe 1934">
            <path id="Tracé_1466" data-name="Tracé 1466" d="M520.953-428.541a49.424,49.424,0,0,0,.7-19.158l57.125,3.875-2.821,10.995-3.006,1.033,2.2,2.441-1.766,9.418-2.911,1.949,2.469.967-.215,2.057-2.015,1.286,1.9,1.2s-.023.688-.033,1.041c-.271,9.449.148,22.868.148,22.868l-52.795,9.877a122.826,122.826,0,0,1-1.8-26.047q.014-.475.03-.956c.012-.324.024-.649.038-.976A130.608,130.608,0,0,1,520.953-428.541Z" fill="url(#linear-gradient)"/>
            <path id="Tracé_1467" data-name="Tracé 1467" d="M463.127-451.67l58.528,3.971a49.424,49.424,0,0,1-.7,19.158,127.715,127.715,0,0,0-2.278,14.919c-.053.573,14.1-.461,14.051.1-.024.3-14.246,2.2-14.268,2.489a127.691,127.691,0,0,0,1.48,32.339l-56.811-12.032s.3-20.531.361-37.819c0-.489,3.948.483,3.949,0,0-.321-3.943-2.1-3.943-2.417.007-3.156,0-6.161-.013-8.859,0-.447,3,.788,3,.359,0-.492-3.016-2.646-3.02-3.113C463.409-447.286,463.307-450.68,463.127-451.67Z" fill="#bedefc"/>
            <path id="Tracé_1468" data-name="Tracé 1468" d="M578.78-443.824s-35.761-9.313-46.705-14.817c-2.507-1.261-9.107-6.569-9.107-6.569l-59.841,13.54,57.826,23.129Z" fill="url(#linear-gradient)"/>
            <path id="Tracé_1469" data-name="Tracé 1469" d="M572.953-431.8l2.2,2.441-47.777,6.179Z" fill="#bedefc"/>
            <path id="Tracé_1470" data-name="Tracé 1470" d="M519-405.457l-7.1-1.277L519-403.3Z" fill="url(#linear-gradient)"/>
            <path id="Tracé_1471" data-name="Tracé 1471" d="M570.479-417.988l-15.085,2.155,17.554-1.188Z" fill="#bedefc"/>
            <path id="Tracé_1472" data-name="Tracé 1472" d="M570.718-413.678,543.1-410.8l29.516-1.671Z" fill="#bedefc"/>
          </g>
          <path id="Tracé_1473" data-name="Tracé 1473" d="M520.053-399.134l-11.166,2.7-51.456-17.679,5.975-1.066Z" fill="url(#linear-gradient)"/>
        </g>
        <path id="Tracé_1474" data-name="Tracé 1474" d="M554.325-384.9a3.066,3.066,0,0,0-.968-2.674c-1.565-1.424-4.786-3.824-8.143-3.162-4.7.927-7.448-2.231-7.309-.333s4.816,2.674,5.32,4.1c.414,1.173-6.9,2.978-9.513,3.582a.509.509,0,0,0-.214.89c1.122.921,3.73,2.448,8.708,2.473C548.6-379.991,553.736-380.479,554.325-384.9Z" fill="#f5b29c"/>
        <path id="Tracé_1475" data-name="Tracé 1475" d="M650.713-454.6c-1.245,3.724-4.029,11.782-8.175,22.28-5.784,14.647-2.822,28.948-20.191,41.779s-39.837,9.218-55.386,9.3c-13.087.072-16.376-1.913-18.053-.35,3.892,10.371,43.664,14.207,73.154,2.6C644.315-387.743,660.7-439.8,650.713-454.6Z" fill="#f5b29c"/>
        <path id="Tracé_1476" data-name="Tracé 1476" d="M644.559-404.967l-20.211-7.362s2.06,8.791,16.952,13.657C642.452-400.7,643.541-402.8,644.559-404.967Z" fill="#1c3661"/>
        <g id="Groupe_1936" data-name="Groupe 1936">
          <path id="Tracé_1477" data-name="Tracé 1477" d="M645.565-458.285c-10.68-2.493-16.841,25.124-23.448,43.673,3.544,3.972,12.6,11.8,22.1,13.9C656.119-423.374,658.7-455.219,645.565-458.285Z" fill="#19559f"/>
        </g>
        <path id="Tracé_1478" data-name="Tracé 1478" d="M645.565-458.285a5.767,5.767,0,0,0-1.879-.129c-.222,7.053-.911,18.584-3.026,27.774-1.765,7.672-5.382,17.318-8.351,24.6a37.183,37.183,0,0,0,11.911,5.324C656.119-423.374,658.7-455.219,645.565-458.285Z" fill="#1c3661"/>
        <path id="Tracé_1479" data-name="Tracé 1479" d="M618.441-311.836c.626,17.994,2.433,29.272-1.095,52.731-1.942,12.913-7.245,31.573-3.889,41.037,4.21.1,9.539-.131,10.344-2.606,5.4-16.623,3.308-63,4.15-74.842,1.015-14.246,7.871-42.906,7.871-42.906S617.815-329.831,618.441-311.836Z" fill="#95bd3f"/>
      </g>
      <g id="Groupe_2581" data-name="Groupe 2581" transform="translate(0.937 -589.593)">
        <g id="Groupe_2522" data-name="Groupe 2522">
          <path id="Tracé_2143" data-name="Tracé 2143" d="M169.141,160.449c.519-5.468,2.137-10.529,6.857-14.427a9.967,9.967,0,0,0,1.53-1.375,4.588,4.588,0,0,0,.4-4.625,8.828,8.828,0,0,0-3.231-3.571,17.185,17.185,0,0,0-18.826-.1c-1.843,1.238-1.634,2.9-2.858,4.494a8.583,8.583,0,0,1-6.076,2.832c-3.041.216-6.035-.674-9.028-1.254a31.6,31.6,0,0,0-15.2.425,19.886,19.886,0,0,0-11.8,9.214,7.39,7.39,0,0,0-1.036,4.893c.325,1.555,1.425,2.891,1.6,4.47.25,2.286-1.572,4.369-3.681,5.287s-4.473.97-6.76,1.211C90.784,169,80.724,174.671,76,183.821c-5.576,10.794-1.519,23.439,7.371,31.009,10.32,8.789,25.708,11.342,38.126,5.907a25.2,25.2,0,0,0,7.93-5.253c4.2-4.27,6.253-10.253,10.287-14.678a21.464,21.464,0,0,1,11.163-6.451c4.622-1.017,9.945-.66,13.438-3.852a11.96,11.96,0,0,0,2.932-4.64C170.15,178.259,168.342,168.87,169.141,160.449Z" fill="url(#linear-gradient-3)"/>
        </g>
        <g id="Groupe_2523" data-name="Groupe 2523">
          <path id="Tracé_2144" data-name="Tracé 2144" d="M185.621,171.111c6.568-2.87,18.887,15.62,22.456,35.8s16.435,34.213,26.868,29.411c6.453-2.97,44.715-17.937,40.1-.557-2.477,9.319-24.515,18.552-32.6,21.039a66.473,66.473,0,0,1-38.769.342,25.041,25.041,0,0,1-6.1-2.6C181.871,244.624,161.989,181.436,185.621,171.111Z" fill="#f5b29c"/>
        </g>
        <g id="Groupe_2525" data-name="Groupe 2525">
          <g id="Groupe_2524" data-name="Groupe 2524">
            <path id="Tracé_2145" data-name="Tracé 2145" d="M185.621,171.111c6.568-2.87,18.887,15.62,22.456,35.8,1.951,11.028,6.678,20.209,12.266,25.495a43.776,43.776,0,0,1-20.13,23.013C175.742,239.147,168.732,178.49,185.621,171.111Z" fill="#1c3661"/>
          </g>
        </g>
        <g id="Groupe_2552" data-name="Groupe 2552">
          <g id="Groupe_2549" data-name="Groupe 2549">
            <g id="Groupe_2526" data-name="Groupe 2526">
              <path id="Tracé_2146" data-name="Tracé 2146" d="M253.139,237.031l8.668-3.645a24.718,24.718,0,0,1,13.719-1.584l13.526,2.3a17.481,17.481,0,0,1,14.16,13.546L332.8,384.723l-7.28,1.571L296.669,252.631a17.481,17.481,0,0,0-13.734-13.469l-4.413-.863a24.714,24.714,0,0,0-15.1,1.815l-7.286,3.363a3.674,3.674,0,0,1-4.047-.569A3.556,3.556,0,0,1,253.139,237.031Z" fill="#1c3661"/>
            </g>
            <g id="Groupe_2527" data-name="Groupe 2527">
              <path id="Tracé_2147" data-name="Tracé 2147" d="M214.95,244.133l8.669-3.645a24.718,24.718,0,0,1,13.719-1.584l13.526,2.3a17.482,17.482,0,0,1,14.16,13.547l29.587,137.076-7.28,1.571-28.85-133.663a17.483,17.483,0,0,0-13.734-13.469l-4.413-.863a24.714,24.714,0,0,0-15.1,1.815l-7.286,3.362a3.672,3.672,0,0,1-4.047-.568A3.556,3.556,0,0,1,214.95,244.133Z" fill="#1c3661"/>
            </g>
            <g id="Groupe_2548" data-name="Groupe 2548">
              <g id="Groupe_2530" data-name="Groupe 2530">
                <g id="Groupe_2528" data-name="Groupe 2528">
                  <path id="Tracé_2148" data-name="Tracé 2148" d="M334.058,457.216a23.651,23.651,0,0,1,2.963-11.749v-4.419h5.57c3.979,0,7.216,7.253,7.216,16.168s-3.237,16.168-7.216,16.168h-5.57v-4.418A23.656,23.656,0,0,1,334.058,457.216Z" fill="#122a4c"/>
                </g>
                <g id="Groupe_2529" data-name="Groupe 2529">
                  <path id="Tracé_2149" data-name="Tracé 2149" d="M337.021,441.048c3.978,0,7.215,7.253,7.215,16.168s-3.237,16.168-7.215,16.168-7.216-7.252-7.216-16.168S333.042,441.048,337.021,441.048Z" fill="#19559f"/>
                </g>
              </g>
              <g id="Groupe_2531" data-name="Groupe 2531">
                <path id="Tracé_2150" data-name="Tracé 2150" d="M347.343,295.755l17.47,146.4a4.728,4.728,0,0,1-3.783,5.014l-69.692,14a4.731,4.731,0,0,1-5.344-2.935L239.967,316.059Z" fill="url(#linear-gradient-3)"/>
              </g>
              <g id="Groupe_2532" data-name="Groupe 2532">
                <path id="Tracé_2151" data-name="Tracé 2151" d="M284.671,392.743c9.285,23.837,48.913,40.234,53.064,59.1l-46.4,9.319a4.731,4.731,0,0,1-5.344-2.935L239.967,316.059l31.942-6.04C270.54,320.291,280.054,380.889,284.671,392.743Z" fill="#f58b5d"/>
              </g>
              <g id="Groupe_2533" data-name="Groupe 2533">
                <path id="Tracé_2152" data-name="Tracé 2152" d="M347.851,302.121l-14.1,2.831,1,8.424-5.8,1.164-2.433-8.136-27.206,5.464,1,8.424-5.8,1.164-2.433-8.136L259.3,319.905l1,8.424-5.8,1.164-2.433-8.136-9.34,1.876-2.768-7.174,107.376-20.3Z" fill="#f58b5d"/>
              </g>
              <g id="Groupe_2534" data-name="Groupe 2534">
                <path id="Tracé_2153" data-name="Tracé 2153" d="M236.427,305.344,346.184,283.3a5.353,5.353,0,0,1,6.364,5.933l-1.185,9.2L335.092,301.7l1,8.424-5.8,1.164-2.433-8.136-27.206,5.464,1,8.424-5.8,1.164-2.432-8.135-32.787,6.584,1,8.424-5.8,1.164-2.432-8.136-15.4,3.093L233,313.521A5.353,5.353,0,0,1,236.427,305.344Z" fill="url(#linear-gradient-3)"/>
              </g>
              <g id="Groupe_2537" data-name="Groupe 2537">
                <g id="Groupe_2535" data-name="Groupe 2535">
                  <path id="Tracé_2154" data-name="Tracé 2154" d="M273.059,457.216a23.662,23.662,0,0,1,2.963-11.749v-4.419h5.571c3.979,0,7.216,7.253,7.216,16.168s-3.237,16.168-7.216,16.168h-5.571v-4.418A23.666,23.666,0,0,1,273.059,457.216Z" fill="#122a4c"/>
                </g>
                <g id="Groupe_2536" data-name="Groupe 2536">
                  <path id="Tracé_2155" data-name="Tracé 2155" d="M276.022,441.048c3.979,0,7.216,7.253,7.216,16.168s-3.237,16.168-7.216,16.168-7.216-7.252-7.216-16.168S272.043,441.048,276.022,441.048Z" fill="#19559f"/>
                </g>
              </g>
              <g id="Groupe_2547" data-name="Groupe 2547">
                <g id="Groupe_2540" data-name="Groupe 2540">
                  <g id="Groupe_2538" data-name="Groupe 2538">
                    <path id="Tracé_2156" data-name="Tracé 2156" d="M307.506,345.059l-3.648,8.777,3.955,1.454L297.947,357l-3.336-6.32,2.735,1.1,1.929-4.6a3.161,3.161,0,0,1,2.829-1.958Z" fill="#fff"/>
                  </g>
                  <g id="Groupe_2539" data-name="Groupe 2539">
                    <path id="Tracé_2157" data-name="Tracé 2157" d="M309.415,345.875l8.069,5-4.117,5.456-7.881-5.01,2.3-5.583C308.1,344.973,308.711,345.439,309.415,345.875Z" fill="#fff"/>
                  </g>
                </g>
                <g id="Groupe_2543" data-name="Groupe 2543">
                  <g id="Groupe_2541" data-name="Groupe 2541">
                    <path id="Tracé_2158" data-name="Tracé 2158" d="M290.68,369.521l9.5-.266-.293-4.2,5.6,8.3-4.4,5.631-.119-2.945-4.981.122a3.16,3.16,0,0,1-2.945-1.779Z" fill="#fff"/>
                  </g>
                  <g id="Groupe_2542" data-name="Groupe 2542">
                    <path id="Tracé_2159" data-name="Tracé 2159" d="M290.644,367.445l1.257-9.41,6.664,1.522-1.344,9.242-6.034.191C290.359,369.016,290.534,368.266,290.644,367.445Z" fill="#fff"/>
                  </g>
                </g>
                <g id="Groupe_2546" data-name="Groupe 2546">
                  <g id="Groupe_2544" data-name="Groupe 2544">
                    <path id="Tracé_2160" data-name="Tracé 2160" d="M320.6,371.944l-3.66-8.771-3.817,1.782,5.738-8.2,6.836,2.085L322.986,360l1.9,4.606a3.162,3.162,0,0,1-.6,3.387Z" fill="#fff"/>
                  </g>
                  <g id="Groupe_2545" data-name="Groupe 2545">
                    <path id="Tracé_2161" data-name="Tracé 2161" d="M318.671,372.724l-9.233,2.2-.973-6.766,9.108-2.064,2.344,5.562C320.239,372.425,319.477,372.531,318.671,372.724Z" fill="#fff"/>
                  </g>
                </g>
              </g>
            </g>
          </g>
          <g id="Groupe_2551" data-name="Groupe 2551">
            <g id="Groupe_2550" data-name="Groupe 2550">
              <path id="Tracé_2162" data-name="Tracé 2162" d="M290.06,464.893a3.708,3.708,0,0,0,.737-.074l87.461-17.607a3.728,3.728,0,0,0-1.467-7.31L289.33,457.509a3.729,3.729,0,0,0,.73,7.384Z" fill="#122a4c"/>
            </g>
          </g>
        </g>
        <g id="Groupe_2553" data-name="Groupe 2553">
          <path id="Tracé_2163" data-name="Tracé 2163" d="M224.886,343.256a164.052,164.052,0,0,0-3.291-19c-5.935-26.83-17.325-62.467-17.325-62.467S170.2,247.127,162.024,254.8c-17.047,16.013,13.831,71.9,17.1,78.579,4.611,9.434,13.458,26.767,12.359,30.126-5.344,16.333-5.369,34.091-2.407,50.889,2.252,12.773,6.221,34.808,17.391,43.248,18.277,13.81,18.3-40.368,18.677-47.681C226.285,387.859,226.942,365.336,224.886,343.256Z" fill="url(#linear-gradient-7)"/>
        </g>
        <g id="Groupe_2554" data-name="Groupe 2554">
          <path id="Tracé_2164" data-name="Tracé 2164" d="M205.354,264.1c-1.937-11.424-8.7-20.762-9.124-32.7-.134-3.751.155-7.561-.7-11.216-.464-1.983-1.257-3.879-1.694-5.869a35.855,35.855,0,0,1-.456-8.415c.227-11.487-.275-23.3-4.8-33.861-1.266-2.952-2.524-3.653-5.327-3.887-20.084-1.681-63.276,5.583-59.384,34.064,1.515,11.083,6.861,15.371,7.251,28.5.272,9.159-2.129,35.752-2.295,38.171-.745,10.885,14.668,6.561,25.577,6.654C182.328,275.782,207.227,275.152,205.354,264.1Z" fill="#19559f"/>
        </g>
        <g id="Groupe_2555" data-name="Groupe 2555">
          <path id="Tracé_2165" data-name="Tracé 2165" d="M162.793,159.566c-2.609,1.589-3.591,5.978-5.92,7.947-.618.524-7.69,5.318-7.727,5.273,2.439,2.98,10.606,3.847,14.224,4.523,2.213.414,15.247.752,8.817-4.641A10.753,10.753,0,0,1,170,170.882a5.02,5.02,0,0,1-.572-3.009l.11-5.418c.057-2.849-3.607-4.2-6.131-3.2A3.982,3.982,0,0,0,162.793,159.566Z" fill="#f5b29c"/>
        </g>
        <g id="Groupe_2556" data-name="Groupe 2556">
          <path id="Tracé_2166" data-name="Tracé 2166" d="M165.787,161.335c-2.73-.273-6.46-.693-6.46-.693a11.674,11.674,0,0,0,4.561,7.215,11.189,11.189,0,0,0,6.715,2.189Z" fill="#1c3661"/>
        </g>
        <g id="Groupe_2557" data-name="Groupe 2557">
          <path id="Tracé_2167" data-name="Tracé 2167" d="M161.244,149.418l-2.074,9.995a6.228,6.228,0,0,0,5.224,6.939,17.2,17.2,0,0,0,7.6-.549c2.718-.643,3.835-3.446,3.429-7.058a33.933,33.933,0,0,0-3.441-11.025C169.482,142.762,163.072,143,161.244,149.418Z" fill="#f5b29c"/>
        </g>
        <g id="Groupe_2558" data-name="Groupe 2558">
          <path id="Tracé_2168" data-name="Tracé 2168" d="M168.062,160.54s5.072-1.6,5.52-.453c0,0,.22.674-1.182,1.135A4.878,4.878,0,0,1,168.062,160.54Z" fill="#fff"/>
        </g>
        <g id="Groupe_2559" data-name="Groupe 2559">
          <path id="Tracé_2169" data-name="Tracé 2169" d="M172.449,162.123c-3.153-.272-4.97,4.662-10.949.853-1.116-.711-1.878-2.633-2.284-3.781l-.046.218a6.228,6.228,0,0,0,5.224,6.939,17.2,17.2,0,0,0,7.6-.549,4.334,4.334,0,0,0,3.2-3.284A14.974,14.974,0,0,1,172.449,162.123Z" fill="#f5b29c"/>
        </g>
        <g id="Groupe_2560" data-name="Groupe 2560">
          <path id="Tracé_2170" data-name="Tracé 2170" d="M161.227,153.877a8.955,8.955,0,0,1-.95-1.633c-.507-1.09-1.515-2.592-2.761-1.043-1.813,2.252,1.211,7.91,4.111,7.1C163.78,157.7,162.189,155.148,161.227,153.877Z" fill="#f5b29c"/>
        </g>
        <g id="Groupe_2561" data-name="Groupe 2561">
          <path id="Tracé_2171" data-name="Tracé 2171" d="M162.393,295.968c7.084.646,19.712,3.174,24.09,12.906,6.213,13.812,25.072,28.723,20.147,43.635s-15.046,15.843-8.277,28.269,12.58,17.774,8.277,30.943c-4.023,12.067-2.574,29.907-2.565,42.583a2.745,2.745,0,0,1-.406,1.768c-1.162,1.428-3.265-.5-4.016-2.181a151.519,151.519,0,0,1-7.1-17.883c-6.134-20.311-7.726-52.028-1.063-72.5,1.1-3.363-7.75-20.691-12.36-30.123C177.435,329.936,168.4,313.382,162.393,295.968Z" fill="#95bd3f"/>
        </g>
        <g id="Groupe_2562" data-name="Groupe 2562">
          <path id="Tracé_2172" data-name="Tracé 2172" d="M117.354,365.052s3.329-50.7,9.235-81.859c.083-1.207,2.954-22.731,3.54-30.8,8.611-8.846,29.112-30.519,29.721-36.956.645-6.813-15.666-30.688-21.053-38.365a59.471,59.471,0,0,1,9.2-4.233L167.74,197.96l16.18-1.4L171.306,168.1a57.693,57.693,0,0,1,10.976.354c.5.069,2.535,4.859,2.7,5.454.5,1.813.032,3.148.162,5.011.317,4.518,3.483,8.5,6.415,11.708,3.683,4.025,7.881,8.234,8.457,13.659.518,4.881-2.052,9.479-3.484,14.174-2.492,8.165-1.231,16.6,2.489,24.147,3.048,6.182,5.173,14.633,6.336,21.494,1.325,7.822-10.761,10.423-27.833,11.192-8.232,44.254-13.618,88.833-38.5,127.236l-14.963,23.09c-5.041,7.778-14.841,29.422-25.691,25.837-10.622-3.51-8.846-19.824-6.831-27.942a80.79,80.79,0,0,1,4.934-13.224C103.068,395.425,109.165,379,117.354,365.052Z" fill="url(#linear-gradient-7)"/>
        </g>
        <g id="Groupe_2563" data-name="Groupe 2563">
          <path id="Tracé_2173" data-name="Tracé 2173" d="M119.485,346.995c-.106-3.564-.26-6.961-.1-9.675.507-8.581,2.268-17.369,1.067-25.912-3.482-24.752-2.849-41.822,13.216-62.688,7.023-9.121,25-20.922,26.182-33.286.645-6.813-15.666-30.688-21.053-38.365,1.445-.831,2.957-1.6,4.518-2.313,1.739,2.4,4.372,6.079,8.229,11.554C160.078,198.426,168.694,209,166.716,218S163.5,257.45,153.71,273.914s-20.348-1.243-17.863,27.958,17.707,52.811-2.174,81.391-16.98,30.444-24.648,43.188c-2.118,3.518-9.706,17.671-14.544,17.565-7.106-.157-1.184-20.7.591-25.1,1.437-3.569,4.354-6.309,5.388-10.015.99-3.545,1.428-7.22,2.276-10.8C107.128,379.539,120.078,367.039,119.485,346.995Z" fill="#95bd3f"/>
        </g>
        <g id="Groupe_2564" data-name="Groupe 2564">
          <path id="Tracé_2174" data-name="Tracé 2174" d="M205.281,265c.97,3.111,2.565,8.286,4.442,14.624-10.466,2.193-37.22,6.782-44.669-1.8C158.022,269.72,189.419,266.228,205.281,265Z" fill="#1c3661"/>
        </g>
        <g id="Groupe_2565" data-name="Groupe 2565">
          <path id="Tracé_2175" data-name="Tracé 2175" d="M138.451,189.422c4.384,1.882,6.634,6.554,8.979,11.093,7.333,14.191,8.563,30.616,15.433,45,1.779,3.726,4.179,7.5,7.991,9.09,4.231,1.758,9.042.38,13.407-1.011,9.048-2.881,18.1-6.3,27.269-8.72a50.615,50.615,0,0,1,13-2.08c1.95.01,12.066,1.208,8.07,4.932a137.328,137.328,0,0,1-30.234,21.267c-10.831,5.615-22.2,10.918-34.625,9.347-29.484-3.729-46.073-69.7-44.092-79.682,1.122-5.657,4.627-10.287,10.788-10.092A10.956,10.956,0,0,1,138.451,189.422Z" fill="#f5b29c"/>
        </g>
        <g id="Groupe_2566" data-name="Groupe 2566">
          <path id="Tracé_2176" data-name="Tracé 2176" d="M269.816,226.307s10.639.077,12.192,4.038,0,8.543,1.01,9.863-1.942,2.641-3.495.622-1.964-6.7-3.817-6.223-7.522,1.816-10.395-.592S264.847,226.406,269.816,226.307Z" fill="#f5b29c"/>
        </g>
        <g id="Groupe_2567" data-name="Groupe 2567">
          <path id="Tracé_2177" data-name="Tracé 2177" d="M286.209,235.816s.848,3.217-.153,4.915-3.882,1.136-6.038,1.767a8.871,8.871,0,0,1-6.234.139c-3.24-.831-4.214-4.479-1.8-5.186a76.3,76.3,0,0,1,9.229-1.295s.265-2.421,2.416-2.114A2.923,2.923,0,0,1,286.209,235.816Z" fill="#f5b29c"/>
        </g>
        <g id="Groupe_2568" data-name="Groupe 2568">
          <path id="Tracé_2178" data-name="Tracé 2178" d="M223.242,243.183s4.334-5.524,9.373-6.78,9.378,2.56,8.5,3.144-3.378,1.05-3.378,2.972c0,1.9,7.006,3.745,7.006,3.745s-9.744,7.38-14.753,5.458S223.242,243.183,223.242,243.183Z" fill="#f5b29c"/>
        </g>
        <g id="Groupe_2570" data-name="Groupe 2570">
          <g id="Groupe_2569" data-name="Groupe 2569">
            <path id="Tracé_2179" data-name="Tracé 2179" d="M123.646,198.659c1.982-9.983,8.769-11.3,14.842-9.32,13.491,4.4,19.209,34.182,26.543,51.02-1.981,6.577-10.182,15.719-25.3,18.178C126.488,237.162,122.339,205.248,123.646,198.659Z" fill="#19559f"/>
          </g>
        </g>
        <g id="Groupe_2571" data-name="Groupe 2571">
          <path id="Tracé_2180" data-name="Tracé 2180" d="M139.73,258.537c-13.242-21.375-17.391-53.289-16.084-59.878,1.49-7.507,5.7-10.113,10.276-10.1a42.392,42.392,0,0,1-.4,10.49c-1.242,6.679-2.33,8.388,3.262,16.309s9.009,12.281,9.009,18.256,9.38,10.013,11.136,15.6c.163.521.332,1.089.5,1.677A36.808,36.808,0,0,1,139.73,258.537Z" fill="#1c3661"/>
        </g>
        <g id="Groupe_2572" data-name="Groupe 2572">
          <path id="Tracé_2181" data-name="Tracé 2181" d="M225.593,400.386c-.194,5.057-.456,10.1-.8,14.987-11.856,2.428-26.559.027-36.028-1.924-.1-5.809-1.108-11.629-.944-17.18C200.162,401.739,216.749,401.2,225.593,400.386Z" fill="url(#linear-gradient-7)"/>
        </g>
        <g id="Groupe_2573" data-name="Groupe 2573">
          <path id="Tracé_2182" data-name="Tracé 2182" d="M192.241,436.189c-.468-5.338-2.918-10.714-3.1-16.539,12.453,4.3,26.885,2.359,35.233,1.23-.459,5.438-1.027,10.611-1.716,15.331C211.882,438.526,201.529,437.6,192.241,436.189Z" fill="url(#linear-gradient-7)"/>
        </g>
        <g id="Groupe_2576" data-name="Groupe 2576">
          <g id="Groupe_2574" data-name="Groupe 2574">
            <path id="Tracé_2183" data-name="Tracé 2183" d="M111.926,375.546c9.358,6.9,23.493,11.8,34.939,12.722-3.563,7.1-8.571,12.841-17.128,12.008-8.368-.815-16.792-6.15-24.246-9.858C108.231,384.879,109.781,379.742,111.926,375.546Z" fill="url(#linear-gradient-7)"/>
          </g>
          <g id="Groupe_2575" data-name="Groupe 2575">
            <path id="Tracé_2184" data-name="Tracé 2184" d="M96.639,411.083c2.365-5.136,3.88-10.49,6.407-15.652,8.945,7.341,20.111,9.059,31.02,11.814-4.869,8.9-8.62,14.132-19.4,10.789C113.306,417.611,96.414,411.575,96.639,411.083Z" fill="url(#linear-gradient-7)"/>
          </g>
        </g>
        <g id="Groupe_2578" data-name="Groupe 2578">
          <g id="Groupe_2577" data-name="Groupe 2577">
            <path id="Tracé_2185" data-name="Tracé 2185" d="M103.727,395.164l.017-.035c5.072,4.164,11.637,7.049,18.152,9.059a142.709,142.709,0,0,0-6.949,14.089,130.1,130.1,0,0,1-17.609-7.495C99.7,405.658,101.206,400.316,103.727,395.164Z" fill="url(#linear-gradient-7)"/>
          </g>
        </g>
        <g id="Groupe_2579" data-name="Groupe 2579">
          <path id="Tracé_2186" data-name="Tracé 2186" d="M198.191,467.359c.761-.994,1.649-9.549,1.916-10.383.977-3.056,3.643-5.019,6.888-5.874,2.043-.539,11.151-1.938,12.368-.291,1.088,1.472-4.836,10.3-3.112,13.092.751,1.219,14.388,7.958,14.374,13.838-.005,2.75-29.723,2.657-34.575-.133C193.513,476.149,195.69,470.63,198.191,467.359Z" fill="#122a4c"/>
        </g>
        <g id="Groupe_2580" data-name="Groupe 2580">
          <path id="Tracé_2187" data-name="Tracé 2187" d="M84.284,451.852c1.128-.543,5.792-7.771,6.407-8.393,2.254-2.284,5.52-2.827,8.8-2.122,2.066.444,10.822,3.316,11.162,5.337.3,1.8-8.972,6.994-8.7,10.266.119,1.428,9.231,13.608,6.559,18.845-1.25,2.449-27.71-11.08-30.773-15.763C76.136,457.573,80.574,453.636,84.284,451.852Z" fill="#122a4c"/>
        </g>
      </g>
    </g>
  </g>
</svg>
