<svg xmlns="http://www.w3.org/2000/svg" xmlns:xlink="http://www.w3.org/1999/xlink" width="700" height="500" viewBox="0 0 700 500">
  <defs>
    <linearGradient id="linear-gradient" y1="0.5" x2="1" y2="0.5" gradientUnits="objectBoundingBox">
      <stop offset="0" stop-color="#bedefc"/>
      <stop offset="1" stop-color="#fff"/>
    </linearGradient>
    <linearGradient id="linear-gradient-5" y1="0.5" x2="1" y2="0.5" gradientUnits="objectBoundingBox">
      <stop offset="0" stop-color="#95bd3f"/>
      <stop offset="1" stop-color="#e1f1c1"/>
    </linearGradient>
    <linearGradient id="linear-gradient-9" x1="0.134" y1="0.817" x2="0.837" y2="0.817" gradientUnits="objectBoundingBox">
      <stop offset="0" stop-color="#ef9348"/>
      <stop offset="1" stop-color="#fff4df"/>
    </linearGradient>
    <linearGradient id="linear-gradient-10" x1="0" y1="0.5" x2="1" y2="0.5" xlink:href="#linear-gradient-9"/>
    <linearGradient id="linear-gradient-12" x1="1.759" y1="0.133" x2="0.715" y2="2.419" xlink:href="#linear-gradient-9"/>
    <linearGradient id="linear-gradient-13" x1="-124.459" y1="0.5" x2="-123.459" y2="0.5" gradientUnits="objectBoundingBox">
      <stop offset="0" stop-color="#fff"/>
      <stop offset="0.093" stop-color="#f1eef5"/>
      <stop offset="0.388" stop-color="#cbbedb"/>
      <stop offset="0.648" stop-color="#af9bc8"/>
      <stop offset="0.86" stop-color="#9e86bc"/>
      <stop offset="1" stop-color="#987fb8"/>
    </linearGradient>
    <linearGradient id="linear-gradient-14" x1="229.378" y1="0.283" x2="229.59" y2="1.541" gradientUnits="objectBoundingBox">
      <stop offset="0" stop-color="#fff"/>
      <stop offset="0.189" stop-color="#d8d8da"/>
      <stop offset="0.452" stop-color="#a8a8ae"/>
      <stop offset="0.685" stop-color="#85858d"/>
      <stop offset="0.875" stop-color="#70707a"/>
      <stop offset="1" stop-color="#696973"/>
    </linearGradient>
    <linearGradient id="linear-gradient-15" x1="0.5" x2="0.5" y2="1" gradientUnits="objectBoundingBox">
      <stop offset="0" stop-color="#fff"/>
      <stop offset="1" stop-color="#bedefc"/>
    </linearGradient>
    <clipPath id="clip-Etudes_pour_le_recyclage_de_produits">
      <rect width="700" height="500"/>
    </clipPath>
  </defs>
  <g id="Etudes_pour_le_recyclage_de_produits" data-name="Etudes pour le recyclage de produits" clip-path="url(#clip-Etudes_pour_le_recyclage_de_produits)">
    <rect width="700" height="500" fill="#fff"/>
    <g id="Groupe_2521" data-name="Groupe 2521" transform="translate(-14.018 -2.062)">
      <g id="Groupe_2461" data-name="Groupe 2461">
        <g id="Groupe_2458" data-name="Groupe 2458">
          <path id="Tracé_2079" data-name="Tracé 2079" d="M667.858,104.056s12.52-8.537,17.647.851c2.512,4.6,7.066,13.325-29.9,12.3-7.832-.218-26.172.586-27.669-5.515-1.128-4.591,7.806-10.067,16.007-5.52,0,0,2.935-13.534,12.059-15.948C662.264,88.569,669.232,97.227,667.858,104.056Z" fill="url(#linear-gradient)"/>
        </g>
        <g id="Groupe_2459" data-name="Groupe 2459">
          <path id="Tracé_2080" data-name="Tracé 2080" d="M106.266,59.066s15.821-10.788,22.3,1.074c3.174,5.813,8.929,16.837-37.773,15.542-9.9-.274-33.069.742-34.961-6.967-1.424-5.8,9.864-12.72,20.226-6.975,0,0,3.708-17.1,15.237-20.151C99.2,39.5,108,50.436,106.266,59.066Z" fill="url(#linear-gradient)"/>
        </g>
        <g id="Groupe_2460" data-name="Groupe 2460">
          <path id="Tracé_2081" data-name="Tracé 2081" d="M461.4,43.275c-15.17-8.473-45.283-4.579-43.13,9.4,1.907,12.384,54.519,8,74.945,6.758,18.244-1.11,71.655,1.037,71.229-10.252-.3-7.867-35.36-26.831-56.488-7.189,0,0,4.4-15.364-10.231-16.6-14.816-1.251-14.142,12.226-14.142,12.226s-8.391-14.245-20.238-8.49C455.3,33.038,461.4,43.275,461.4,43.275Z" fill="url(#linear-gradient)"/>
        </g>
      </g>
      <g id="Groupe_2467" data-name="Groupe 2467">
        <g id="Groupe_2462" data-name="Groupe 2462">
          <circle id="Ellipse_94" data-name="Ellipse 94" cx="225.248" cy="225.248" r="225.248" transform="translate(124.752 23.064)" fill="url(#linear-gradient)"/>
        </g>
        <g id="Groupe_2463" data-name="Groupe 2463">
          <path id="Tracé_2082" data-name="Tracé 2082" d="M209.938,251.817c14.59-27.69,42.11-9.117,69.837-30.13,29.21-22.136,29.942,21.788,50.605,33.162,18.07,9.946,33.376-12.974,47.319,5.6,9.884,13.169,1.8,31.209-21.576,43.861C336.28,315.054,320.9,334.594,326.2,353.42c11.489,40.822,39.9,74.43,25.2,80.461-33.35,13.683-67.7-40.548-85.548-79.842-15.62-34.381-29.6-24.7-49.261-48.874S209.938,251.817,209.938,251.817Z" fill="url(#linear-gradient-5)"/>
        </g>
        <g id="Groupe_2464" data-name="Groupe 2464">
          <path id="Tracé_2083" data-name="Tracé 2083" d="M575.243,248.309A224.281,224.281,0,0,1,524.07,391.26c-17.8,9.117-32.9,8.966-39.037,2.061-10.9-12.265,8.754-18.245,14.061-48.814,7.424-42.761-10.606-44.984-11.759-71.655-1.458-33.72,2.3-49.876-21.485-53.713-19.358-3.122-27.624,5.755-53.329.767-19.094-3.7-35.165-28.006-26.667-39.2,20.912-27.554-6.882-46.136,37.275-55.285,34.664-7.182,44.322,6.844,51.929,4.711,10.54-2.956-.825-15.933-7.04-23.058-13.92-15.955-6.883-38.166,5.593-47.086A225.032,225.032,0,0,1,575.243,248.309Z" fill="url(#linear-gradient-5)"/>
        </g>
        <g id="Groupe_2465" data-name="Groupe 2465">
          <path id="Tracé_2084" data-name="Tracé 2084" d="M371.347,78.344c-27.5-3.461-5.18-24.459-44.888-21.639s-60.427,43.795-44.888,50.724,46.161.449,36.186,20.4c-8.67,17.341-31.843,31.076-62.153,36.064-44.627,7.344-68.675-15.224-72.128,3.837s27.851,39.777,6.172,42.109c-36.864-1.441-49.9-42.519-40.785-63.023A225.554,225.554,0,0,1,411.044,31.441C424.031,55.7,402.328,82.242,371.347,78.344Z" fill="url(#linear-gradient-5)"/>
        </g>
        <g id="Groupe_2466" data-name="Groupe 2466">
          <path id="Tracé_2085" data-name="Tracé 2085" d="M327.732,87.43c8.21-13.521,20.718-8.44,28.391,5.371s25.322,8.057,19.951,17.649C367.69,125.42,314.688,108.915,327.732,87.43Z" fill="url(#linear-gradient-5)"/>
        </g>
      </g>
      <g id="Groupe_2498" data-name="Groupe 2498">
        <g id="Groupe_2468" data-name="Groupe 2468">
          <path id="Tracé_2086" data-name="Tracé 2086" d="M99.848,117.124s2.494-8.534,11.266-5.881c5.513,1.668,8.809,16.676,8.809,16.676s3.211,16.588,2.033,22.241c-2.058,9.872-8.909,83.646-28.414,88.417s-48.5-5.466-41.67-45.037,26.9-55.174,30.364-64.012C88.994,112.295,99.848,117.124,99.848,117.124Z" fill="#1c3661"/>
        </g>
        <g id="Groupe_2473" data-name="Groupe 2473">
          <g id="Groupe_2472" data-name="Groupe 2472">
            <g id="Groupe_2469" data-name="Groupe 2469">
              <path id="Tracé_2087" data-name="Tracé 2087" d="M123.172,178.966c6.268,11.153,8.963,35.66,14.133,38.756,7.1,4.251,41.273-4.18,49.446-6.636s12.277,5.736.414,14.7-41.2,17.262-58.111,13.751c-9.9-2.055-17.442-16.868-19.843-25.586a138.53,138.53,0,0,1-5.393-37.129c.007-1.875.106-3.893,1.254-5.375,2.082-2.689,6.428-2.114,9.253-.219C116.958,172.995,121.632,176.226,123.172,178.966Z" fill="url(#linear-gradient-9)"/>
            </g>
            <g id="Groupe_2471" data-name="Groupe 2471">
              <g id="Groupe_2470" data-name="Groupe 2470">
                <path id="Tracé_2088" data-name="Tracé 2088" d="M106.59,177.543a6.819,6.819,0,0,1,.609.411c1.744,1.308,4.46,3,5.371,5.077.859,1.964.457,4.938.736,7.122a94.4,94.4,0,0,0,4.067,17.538c1.757,5.323,4.023,16.364,9.522,18.83,6.721,3.014,16.856,4.419,30.428,5.665s14.555-1.24,19.4-3.52c3.144-1.481,5.392-2.557,8.792-1.715-12.747,8.5-40.282,15.945-56.458,12.587-17.2-3.571-19.349-25.948-22.662-39.9a80.47,80.47,0,0,1-1.747-13.615C104.492,183.6,102.614,175.192,106.59,177.543Z" fill="#f58b5d"/>
              </g>
            </g>
          </g>
        </g>
        <g id="Groupe_2474" data-name="Groupe 2474">
          <path id="Tracé_2089" data-name="Tracé 2089" d="M104.228,470.91a20.371,20.371,0,0,0,3.067-9.863L118.268,461a10.322,10.322,0,0,0,1.13,6.7c.812,1.28,17.928,9.57,18.155,11.325.379,2.924-29.891,2.96-34.933.146C99.984,477.7,101.81,474.51,104.228,470.91Z" fill="#1c3661"/>
        </g>
        <g id="Groupe_2475" data-name="Groupe 2475">
          <path id="Tracé_2090" data-name="Tracé 2090" d="M44.92,470.91a20.371,20.371,0,0,0,3.067-9.863L58.961,461a10.325,10.325,0,0,0,1.129,6.7c.812,1.28,17.929,9.57,18.156,11.325.378,2.924-29.891,2.96-34.933.146C40.676,477.7,42.5,474.51,44.92,470.91Z" fill="#1c3661"/>
        </g>
        <g id="Groupe_2476" data-name="Groupe 2476">
          <path id="Tracé_2091" data-name="Tracé 2091" d="M120.753,464.889c-1.031,3.519-14.93,2.9-14.93,2.9-1-4.642-4.324-72.784,6.188-98.938,3.97-9.878-1.138-24.947-3.28-34.713-3.4-15.517-9.236-31.085-10.273-46.987-.642-9.842.86-20.057,5.881-28.546,3.654-6.176,9.821-11.561,17-11.591a10.168,10.168,0,0,1,5.356,1.337,13.212,13.212,0,0,1,3.953,4.268c10.306,15.883,10.11,36.788,9.636,55.011-.5,19.4-1.335,38.791-2.873,58.136C134.753,399.153,130.192,432.68,120.753,464.889Z" fill="#1c3661"/>
        </g>
        <g id="Groupe_2477" data-name="Groupe 2477">
          <path id="Tracé_2092" data-name="Tracé 2092" d="M58.961,461c-2.06,3.033-11.508,3.746-11.508,3.746-.207-4.745,7.98-72.475,22.741-96.488a17.815,17.815,0,0,0,2.007-6.1c1.59-8.5,1.068-17.5.714-26.088-.215-5.191-.532-10.377-.843-15.564-.226-3.778.49-7.565.191-11.292-.365-4.559-2.216-8.981-2.69-13.584a58.9,58.9,0,0,1,.265-14.159,56.876,56.876,0,0,1,10.189-25.577,18.446,18.446,0,0,1,5.879-5.672c4.357-2.338,9.94-1.415,14.062,1.315s6.987,7,9.185,11.428a60.451,60.451,0,0,1,5.461,35.929c-.515,3.28-2.008,6.271-2.387,9.489-1.583,13.459-1.614,26.739-4.288,40.155C99.89,388.92,82.008,427.062,58.961,461Z" fill="#1c3661"/>
        </g>
        <g id="Groupe_2478" data-name="Groupe 2478">
          <path id="Tracé_2093" data-name="Tracé 2093" d="M112.387,306.44c-4.274,2.182-8.325,6.249-10.69,8.43-5.69,5.25-6.179,20.543-6.407,29.446s-11.413,36.521-15.3,46.337-10.719,29.445-11.4,38.8S65.159,448.4,55.8,457.3c-3.852,3.663-4.939,6.076-4.908,7.663,5.37.274,6.577-1.772,8.068-3.967C96.193,406.174,113.743,351.293,112.387,306.44Z" fill="#19559f"/>
        </g>
        <g id="Groupe_2479" data-name="Groupe 2479">
          <path id="Tracé_2094" data-name="Tracé 2094" d="M141.039,289.475c-.494-12.718-2.053-25.469-6.526-37.421a3.889,3.889,0,0,0-.981-1.643,4.255,4.255,0,0,0-2.61-.726c-2.859-.153-6.438.121-7.53,2.767a7.156,7.156,0,0,0-.054,3.918c4.216,24.619,1.361,49.6,6.267,74.072,3.347,16.694,7.952,41.265-10.163,60.667-5.57,5.966,2.663,19.536.957,25.793-5.287,19.384-9.727,34.985-9.254,50.8,3.927-.223,9.062-.772,9.608-2.81,10.163-37.912,15.168-77.343,17.987-116.428,1.178-16.326,2.582-32.776,2.5-49.091C141.223,296.084,141.167,292.78,141.039,289.475Z" fill="#19559f"/>
        </g>
        <g id="Groupe_2480" data-name="Groupe 2480">
          <path id="Tracé_2095" data-name="Tracé 2095" d="M138.276,266.2c.657-.2,7.239-2.262,6.837-3.508l-4.737-14.7c-4.6-14.287-11.878-29.556-8.281-44.889.731-3.116,1.922-6.2,1.756-9.4-.207-3.98-2.54-7.608-5.532-10.241s-6.616-4.418-10.194-6.173c-5.818-2.853-12.513-7.635-18.775-9.209-3.757-.944-7.642,1.671-10.854,3.2-2.543,1.212-5.269,2.6-6.5,5.138-1.048,2.167-.766,4.713-.461,7.1.817,6.4.257,13.418,2.107,19.506,1.938,6.374,5.307,13.106,3.939,19.943-.248,1.228-14.36,22.171-20.272,45.613C82.05,274.035,109.548,274.777,138.276,266.2Z" fill="url(#linear-gradient-10)"/>
        </g>
        <g id="Groupe_2481" data-name="Groupe 2481">
          <path id="Tracé_2096" data-name="Tracé 2096" d="M95.092,147.376,95.329,170c.054,3.723,9.44,13.079,15.206,8.233,1.688-1.419-.688-6.484-2.4-10.311L103.263,148.6Z" fill="#f5b29c"/>
        </g>
        <g id="Groupe_2482" data-name="Groupe 2482">
          <path id="Tracé_2097" data-name="Tracé 2097" d="M106.158,160.072a13.009,13.009,0,0,1-9.843-9l7.644.281Z" fill="#1c3661"/>
        </g>
        <g id="Groupe_2489" data-name="Groupe 2489">
          <g id="Groupe_2483" data-name="Groupe 2483">
            <path id="Tracé_2098" data-name="Tracé 2098" d="M95.143,133.783l-1.159,8.711c-.919,6.907,3.636,13.631,10.522,14.692,6.358.981,12.388-2.807,13.141-10.827.669-7.131-4.52-13.153-6.421-16.326C106.894,122.8,97.21,123.863,95.143,133.783Z" fill="#f5b29c"/>
          </g>
          <g id="Groupe_2484" data-name="Groupe 2484">
            <path id="Tracé_2099" data-name="Tracé 2099" d="M95.58,142.119a10.849,10.849,0,0,1-.628-2.221c-.27-1.443-1.006-3.525-2.95-2.071-2.828,2.115-.967,9.725,2.709,9.643C97.442,147.409,96.332,143.914,95.58,142.119Z" fill="#f5b29c"/>
          </g>
          <g id="Groupe_2486" data-name="Groupe 2486">
            <g id="Groupe_2485" data-name="Groupe 2485">
              <path id="Tracé_2100" data-name="Tracé 2100" d="M114.55,140.463a10.858,10.858,0,0,0,0-2.308c-.133-1.462.009-3.666,2.275-2.8,3.3,1.266,3.578,9.1.018,10.017C114.2,146.06,114.316,142.4,114.55,140.463Z" fill="#f5b29c"/>
            </g>
          </g>
          <g id="Groupe_2488" data-name="Groupe 2488">
            <g id="Groupe_2487" data-name="Groupe 2487">
              <path id="Tracé_2101" data-name="Tracé 2101" d="M105.21,154.344c2.605.02,7.206-1.116,9.073-2.745,1.654-1.444,3.078-4.871,3.381-5.633-.008.132,0,.26-.017.393-.753,8.02-6.783,11.808-13.141,10.827a12.47,12.47,0,0,1-9.334-7.135A16.122,16.122,0,0,0,105.21,154.344Z" fill="#f5b29c"/>
            </g>
          </g>
        </g>
        <g id="Groupe_2495" data-name="Groupe 2495">
          <g id="Groupe_2493" data-name="Groupe 2493">
            <g id="Groupe_2490" data-name="Groupe 2490">
              <path id="Tracé_2102" data-name="Tracé 2102" d="M90.073,192.989c-4.612,11.933-21.8,29.61-20.9,35.569,1.238,8.178,29.495,29.171,36.592,33.912s3.391,13.12-11.076,9.677S55.154,251.357,47.1,236.08c-4.717-8.945,1.909-24.189,7.1-31.59a138.541,138.541,0,0,1,25.2-27.793c1.45-1.188,3.069-2.4,4.943-2.454,3.4-.1,5.722,3.613,6.059,7C90.723,184.4,91.206,190.057,90.073,192.989Z" fill="url(#linear-gradient-10)"/>
            </g>
            <g id="Groupe_2492" data-name="Groupe 2492">
              <g id="Groupe_2491" data-name="Groupe 2491">
                <path id="Tracé_2103" data-name="Tracé 2103" d="M89.13,178.064c-.589,2.524-3.183,5.028-4.864,6.266-7.963,5.864-14.8,14.156-20.038,22.47-2.988,4.744-10.061,13.519-8.463,19.33,1.954,7.1,7.321,15.813,15,27.073s10.222,10.437,15.06,12.719c3.144,1.482,5.4,2.531,6.919,5.689C78.073,267.19,54.8,250.692,47.1,236.079c-8.193-15.539,7.7-31.44,16.349-42.875,4.4-5.809,9.569-10.046,14.742-15.028C80.568,175.886,91.11,169.579,89.13,178.064Z" fill="#f58b5d"/>
              </g>
            </g>
          </g>
          <g id="Groupe_2494" data-name="Groupe 2494">
            <path id="Tracé_2104" data-name="Tracé 2104" d="M106.464,266.659c1,.2,3.327,1.971,4.425,3.279,2.1,2.5,3.631,1.608,4.861,1.826s.4,2.149-2.371,2.176c-1.776.017-3.53-1.431-2.813.15s9.808,7.152,5.119,7.212c-.661.009-3.352-.358-3.352-.358a15.905,15.905,0,0,1-3.671-.82c-2.256-.969-5.225-4.13-6.843-8.059C101.026,270.139,100.909,265.543,106.464,266.659Z" fill="#f5b29c"/>
          </g>
        </g>
        <g id="Groupe_2496" data-name="Groupe 2496">
          <path id="Tracé_2105" data-name="Tracé 2105" d="M170.846,185.386a6.353,6.353,0,0,0-3.042-.214,2.784,2.784,0,0,0-1.8,1.661l6.806.812S173.541,186.2,170.846,185.386Z" fill="#ffd5d4"/>
          <rect id="Rectangle_526" data-name="Rectangle 526" width="59.776" height="40.688" rx="3.075" transform="matrix(0.113, -0.994, 0.994, 0.113, 152.085, 244.441)" fill="#122a4c"/>
          <path id="Tracé_2106" data-name="Tracé 2106" d="M196.3,228.458l.962,6.933L164.9,231.615s4.705-44.431,3.213-45.507l7.16.709Z" fill="#bedefc"/>
          <path id="Tracé_2107" data-name="Tracé 2107" d="M167.8,185.172s1.658-.5,3.6,1.452-3.395,42.741-3.395,42.741,26.328,2.2,32.14,1.171a31.536,31.536,0,0,1-.742-8.782c1.094-10.926,4.344-29.6,2.506-32.257C199.4,185.874,171.4,184.006,167.8,185.172Z" fill="#fff"/>
        </g>
        <g id="Groupe_2497" data-name="Groupe 2497">
          <path id="Tracé_2108" data-name="Tracé 2108" d="M195.338,207.212a5.982,5.982,0,0,1,3.8-2.43c1.242-.1,1.7-1.229,2.642-2.828,1.042-1.775,1.468-1.837,2.879-1.472.629.163,1.269.868,1.482,2.247a14.1,14.1,0,0,1-.19,3.979l-1.186,8.169a15.176,15.176,0,0,1-.609,2.9c-1.539,4.173-6.525,2.226-8.271,1.034C194.517,217.88,192.1,213.331,195.338,207.212Z" fill="#f5b29c"/>
        </g>
      </g>
      <g id="Groupe_2504" data-name="Groupe 2504">
        <path id="Tracé_2109" data-name="Tracé 2109" d="M517.682,159.635s2.251-5.436,9.454-5.494,37.139,23.126,51.094,23.126,6.528,23.409-5.177,25.21-52.938-10.691-57.4-27.738C512.906,164.221,517.682,159.635,517.682,159.635Z" fill="#e5e5e5"/>
        <path id="Tracé_2110" data-name="Tracé 2110" d="M517.682,159.635s2.251-5.436,9.454-5.494,37.139,23.126,51.094,23.126,6.528,23.409-5.177,25.21-52.938-10.691-57.4-27.738C512.906,164.221,517.682,159.635,517.682,159.635Z" fill="#bedefc"/>
        <path id="Tracé_2111" data-name="Tracé 2111" d="M518.386,148.262s6.4,4.433,5.646,9.16-5.3,4.614-6.35,2.213S518.386,148.262,518.386,148.262Z" fill="#f5b29c"/>
        <g id="Groupe_2499" data-name="Groupe 2499">
          <rect id="Rectangle_527" data-name="Rectangle 527" width="40.555" height="57.219" rx="3.2" transform="translate(473.726 132.699) rotate(-11.751)" fill="#1c3661" stroke="#fff" stroke-width="3"/>
          <path id="Tracé_2113" data-name="Tracé 2113" d="M491.885,130.76,519.593,162.9l1.961,9.425-37.01-40.042Z" fill="#19559f" opacity="0.35" style="mix-blend-mode: multiply;isolation: isolate"/>
        </g>
        <path id="Tracé_2114" data-name="Tracé 2114" d="M494.255,174.5c-.368-1.2-2.757-3.563-4.436-4.522-3.211-1.831-2.371-4.067-2.791-5.554s-2.574.2-2.236,3.725c.217,2.256,2.148,4,.2,3.614s-3.792-5.791-5.821-1.785c-2.709,5.351,1.015,10.9,9.363,12.2C490.9,182.542,496.3,181.167,494.255,174.5Z" fill="#f5b29c"/>
        <path id="Tracé_2115" data-name="Tracé 2115" d="M566.385,463.767l-1.043-3.264,14.925-1-2.831,6.838s6.808,6.443,4.639,9.363c-3.06,4.123-28.529,2.407-28.256.953C553.819,469.818,566.385,463.767,566.385,463.767Z" fill="#1c3661"/>
        <path id="Tracé_2116" data-name="Tracé 2116" d="M627.6,463.767,626.56,460.5l10.92-.732,1.174,6.57s6.809,6.443,4.639,9.363c-3.06,4.123-28.528,2.407-28.256.953C615.037,469.818,627.6,463.767,627.6,463.767Z" fill="#1c3661"/>
        <path id="Tracé_2117" data-name="Tracé 2117" d="M576.906,252.6s38.509-3.606,38.505-5.207c14.728,0,27.542-1.148,33.371-1.685.642,2.434,1.364,4.983,2.2,7.681,6.3,20.4-2.472,76.272.45,101.695,4.5,39.165-.9,73.828,4.052,107.591,1.025,6.993-18.843,2.057-28.234,1.461a5.337,5.337,0,0,1-4.994-4.875c-1.873-22.588-10.2-124.107-10.467-146.419,0,0-15.047,39.518-17.926,53.271-5.19,24.792-2.078,68.651-7.931,98.363-1.4,7.091-29.711-.71-29.711-.71s-7.249-56.237-2.4-111.608C556.045,326.706,576.906,252.6,576.906,252.6Z" fill="url(#linear-gradient-12)"/>
        <g id="Groupe_2500" data-name="Groupe 2500">
          <path id="Tracé_2118" data-name="Tracé 2118" d="M651.429,355.085c-2.922-25.423,5.847-81.293-.45-101.695-.833-2.7-1.555-5.247-2.2-7.681-5.742.528-18.266,1.648-32.714,1.682,4.543,21.617-4.282,65.452-4.282,65.452.087,7.264,1.029,22.926,2.324,41.524,3.13,1.626,8.579,5.876,15.267,17,7.934,13.193,5.286,66.863,3.421,93.373,10,1.329,23.534,3.74,22.683-2.063C650.529,428.913,655.931,394.25,651.429,355.085Z" fill="#f58b5d"/>
        </g>
        <path id="Tracé_2119" data-name="Tracé 2119" d="M608.608,116.7l4.824,12.087a7.939,7.939,0,0,1-5.016,9.872c-3.253,1.1-5.4,1.244-9.665,1-3.555-.2-5.579-3.475-5.872-8.1a43.266,43.266,0,0,1,1.87-14.606C596.787,110.174,604.887,109.052,608.608,116.7Z" fill="#f5b29c"/>
        <g id="Groupe_2501" data-name="Groupe 2501">
          <path id="Tracé_2120" data-name="Tracé 2120" d="M615.161,247.622c-3.146,1.69-38.255,4.979-38.255,4.979s-14.93,53.035-20.878,84.783a42.382,42.382,0,0,1,19.1,22.2c5.845,15.41,3.328,80.71,1.989,107.842,4.633.17,8.333-.5,8.815-2.951,5.853-29.712,2.741-73.571,7.931-98.363,2.879-13.753,17.926-53.271,17.926-53.271S623.293,264.463,615.161,247.622Z" fill="#f58b5d"/>
        </g>
        <path id="Tracé_2121" data-name="Tracé 2121" d="M613.432,128.786l-.163-.406a7.916,7.916,0,0,1-5.287,6.406c-3.253,1.1-5.4,1.244-9.664,1-2.85-.164-4.713-2.3-5.492-5.523.01.43.026.861.053,1.3.293,4.624,2.317,7.895,5.872,8.1,4.267.244,6.412.1,9.665-1A7.939,7.939,0,0,0,613.432,128.786Z" fill="url(#linear-gradient-13)" style="mix-blend-mode: multiply;isolation: isolate"/>
        <path id="Tracé_2122" data-name="Tracé 2122" d="M610.985,125.126l9.584,20.608c-4.423,9.521-22.765,4.164-21.4.92l8.1-17.665Z" fill="#f5b29c"/>
        <path id="Tracé_2123" data-name="Tracé 2123" d="M610.383,135.852s5.785-.362,7.11-6.025,3.091-14.682,1.057-18.423c-1.829-3.363-6.123-10.407-13.349-10.742-24.17-1.121-10.846,23.38-8.8,24.464S602.791,136.575,610.383,135.852Z" fill="#1c3661"/>
        <g id="Groupe_2502" data-name="Groupe 2502" style="mix-blend-mode: multiply;isolation: isolate">
          <path id="Tracé_2124" data-name="Tracé 2124" d="M597.545,101.436c-.652,4.292-1.548,13.028,1.549,15.136,3.2,2.177,14.842,3.588,20.37-.628.1,4.294-1.041,9.91-1.971,13.882-1.325,5.664-7.11,6.026-7.11,6.026-7.592.723-11.931-9.641-13.98-10.726C594.622,124.184,584.337,105.558,597.545,101.436Z" fill="url(#linear-gradient-14)"/>
        </g>
        <path id="Tracé_2125" data-name="Tracé 2125" d="M641.276,257.2c4.7-1.763,10.089-3.528,13.128-6.711q-.129-4.438-.261-8.851c-1.232-40.531-1.837-78.071-9.387-85.887-10.83-11.213-41.036-19.789-68.942-5.838-11.171,5.585-11.153,56.16-14.549,100.66C586.961,260.32,613.631,265.1,641.276,257.2Z" fill="url(#linear-gradient-15)"/>
        <path id="Tracé_2126" data-name="Tracé 2126" d="M563.576,213.9c-.631,10.6-1.23,21.663-2,32.463,7.085-4.719,33.942-39.6,27.741-58.083C586.89,181.044,569.478,211.236,563.576,213.9Z" fill="#1c3661"/>
        <path id="Tracé_2127" data-name="Tracé 2127" d="M596.325,126.321s-.529-4.686,1.814-3.326,1.512,7.182.454,7.711S596.628,128.665,596.325,126.321Z" fill="#f5b29c"/>
        <path id="Tracé_2128" data-name="Tracé 2128" d="M591.009,164.192c1.921,23.429-8.6,64.15-36.238,72.7-40.308,12.473-70.206-15.18-70.227-45.692-.013-18.19,10.4-17.18,10.4-17.18s31.018,21.772,38.842,27.6c9.807,7.3,30.057-26.526,32.428-36.892C570.631,145.43,589.52,146.019,591.009,164.192Z" fill="url(#linear-gradient-15)"/>
        <path id="Tracé_2129" data-name="Tracé 2129" d="M558.219,210.485c-35.24,10.9-62.52-8.86-68.839-34.392-2.476,2.133-4.842,6.436-4.836,15.11.021,30.512,29.918,58.165,70.227,45.692,26.023-8.053,36.865-44.614,36.443-68.417C586.21,187,575.6,205.106,558.219,210.485Z" fill="#bedefc"/>
        <path id="Tracé_2130" data-name="Tracé 2130" d="M518.871,156.982a46,46,0,0,0-1.751-4.7c-.788-1.576-.441-2.739.906-2.139s3.841,3.215,5.092,5.777-.6,3.722-1.889,3.682S518.871,156.982,518.871,156.982Z" fill="#f5b29c"/>
        <g id="Groupe_2503" data-name="Groupe 2503">
          <path id="Tracé_2131" data-name="Tracé 2131" d="M654.144,241.637c-1.233-40.531-1.838-78.071-9.388-85.887-4.137-4.284-11.108-8.177-19.692-10.582,3.114,12.984,9.191,44.007,5.536,76.441-2.042,18.124-8.346,30.751-15.809,39.526a169.793,169.793,0,0,0,39.756-5.723C654.413,250.807,654.282,246.2,654.144,241.637Z" fill="#bedefc"/>
        </g>
      </g>
      <g id="Groupe_2514" data-name="Groupe 2514">
        <g id="Groupe_2507" data-name="Groupe 2507">
          <g id="Groupe_2505" data-name="Groupe 2505">
            <path id="Tracé_2132" data-name="Tracé 2132" d="M322.563,126.14l39.861,59.277L335.438,201.98l75.224-2.02,15.225-51.5-18.529,12.131-21.008-31a23.766,23.766,0,0,0-23.744-10.246Z" fill="#fff"/>
          </g>
          <g id="Groupe_2506" data-name="Groupe 2506">
            <path id="Tracé_2133" data-name="Tracé 2133" d="M309.7,134.981l-52.063,48.785,38.413,34.114L346.713,169.3l-25.187-37.738C318.07,126.384,314.246,130.724,309.7,134.981Z" fill="#fff"/>
          </g>
        </g>
        <g id="Groupe_2510" data-name="Groupe 2510">
          <g id="Groupe_2508" data-name="Groupe 2508">
            <path id="Tracé_2134" data-name="Tracé 2134" d="M482.735,281.492l-70.4,12.1-4.058-31.4-28.96,69.455,40.755,34.977-3.479-21.87,36.883-6.472a23.762,23.762,0,0,0,19.069-17.471Z" fill="#fff"/>
          </g>
          <g id="Groupe_2509" data-name="Groupe 2509">
            <path id="Tracé_2135" data-name="Tracé 2135" d="M479.932,266.14l-23.187-67.473-46.853,21.077,23.58,66.11,44.741-7.525C484.352,277.3,481.959,272.029,479.932,266.14Z" fill="#fff"/>
          </g>
        </g>
        <g id="Groupe_2513" data-name="Groupe 2513">
          <g id="Groupe_2511" data-name="Groupe 2511">
            <path id="Tracé_2136" data-name="Tracé 2136" d="M265.891,343.612l13.994-70.05,30.765,7.486L256.224,229.08l-47.28,25.476,21.662,4.605-7.2,36.75a23.76,23.76,0,0,0,9.455,24.069Z" fill="#fff"/>
          </g>
          <g id="Groupe_2512" data-name="Groupe 2512">
            <path id="Tracé_2137" data-name="Tracé 2137" d="M281.224,346.509l71.3,2.585-2.844-51.3-70.165-1.731-9.045,44.457C269.227,346.629,275,346.282,281.224,346.509Z" fill="#fff"/>
          </g>
        </g>
      </g>
      <g id="Groupe_2520" data-name="Groupe 2520">
        <g id="Groupe_2515" data-name="Groupe 2515">
          <path id="Tracé_2138" data-name="Tracé 2138" d="M326.495,162.111c-2.171-3.812-5.88-7.433-11.353-6.86,7.678,3.675,8.819,13.636,11.353,13.636s4.493-9.716,11.352-13.636C332.374,154.678,328.665,158.3,326.495,162.111Z" fill="#19559f"/>
        </g>
        <g id="Groupe_2516" data-name="Groupe 2516">
          <path id="Tracé_2139" data-name="Tracé 2139" d="M308.533,55.209c-2.325-4.144-6.318-8.092-12.25-7.508,8.291,4.033,9.46,14.83,12.2,14.847s4.934-10.493,12.39-14.692C314.952,47.2,310.91,51.094,308.533,55.209Z" fill="#19559f"/>
        </g>
        <g id="Groupe_2517" data-name="Groupe 2517">
          <path id="Tracé_2140" data-name="Tracé 2140" d="M264.85,40.358c-2.35-3.9-6.29-7.559-11.952-6.824,8.058,3.615,9.5,13.918,12.125,13.853s4.412-10.194,11.427-14.435C270.758,32.5,267,36.348,264.85,40.358Z" fill="#19559f"/>
        </g>
        <g id="Groupe_2518" data-name="Groupe 2518">
          <path id="Tracé_2141" data-name="Tracé 2141" d="M287.825,101.774c-4.107-1.54-8.458-.893-12.3,3.05,8.251-2.089,13.645,2.259,15.591.638s-.907-7.766,1.856-15.168C288.4,93.356,287.054,97.456,287.825,101.774Z" fill="#19559f"/>
        </g>
        <g id="Groupe_2519" data-name="Groupe 2519">
          <path id="Tracé_2142" data-name="Tracé 2142" d="M337.611,82.19c-5.148-4.221-11.717-5.418-19.16-1.63,12.878,1.032,18.5,9.917,22.09,8.54s2.494-11.6,10.083-20.886C342.557,70.378,338.614,75.609,337.611,82.19Z" fill="#19559f"/>
        </g>
      </g>
    </g>
  </g>
</svg>
