<svg xmlns="http://www.w3.org/2000/svg" xmlns:xlink="http://www.w3.org/1999/xlink" width="700" height="500" viewBox="0 0 700 500">
  <defs>
    <linearGradient id="linear-gradient" y1="0.5" x2="1" y2="0.5" gradientUnits="objectBoundingBox">
      <stop offset="0" stop-color="#ef9348"/>
      <stop offset="1" stop-color="#fff4df"/>
    </linearGradient>
    <linearGradient id="linear-gradient-2" y1="0.5" x2="1" y2="0.5" gradientUnits="objectBoundingBox">
      <stop offset="0" stop-color="#95bd3f"/>
      <stop offset="1" stop-color="#e1f1c1"/>
    </linearGradient>
    <clipPath id="clip-Réparations">
      <rect width="700" height="500"/>
    </clipPath>
  </defs>
  <g id="Réparations" clip-path="url(#clip-Réparations)">
    <rect width="700" height="500" fill="#fff"/>
    <g id="Groupe_2457" data-name="Groupe 2457" transform="translate(7.502 -10.569)">
      <g id="Groupe_2416" data-name="Groupe 2416">
        <ellipse id="Ellipse_89" data-name="Ellipse 89" cx="93.153" cy="13.795" rx="93.153" ry="13.795" transform="translate(406.501 171.066)" fill="#bedefc" opacity="0.4"/>
        <g id="Groupe_2410" data-name="Groupe 2410">
          <path id="Tracé_1918" data-name="Tracé 1918" d="M509.5,182.963c.094,5.544-4.222,11.865-11.068,11.751a9.815,9.815,0,0,1-9.583-10.154c0-5.545,3.671-10.652,10.154-11.181C504.593,172.922,509.385,176.231,509.5,182.963Z" fill="#1c3661"/>
          <path id="Tracé_1919" data-name="Tracé 1919" d="M510.752,183.191c.09,5.544-4.034,11.866-10.576,11.751-5.3-.092-9.159-4.609-9.159-10.154s3.509-10.652,9.7-11.181C506.064,173.151,510.643,176.459,510.752,183.191Z" fill="#19559f"/>
          <path id="Tracé_1920" data-name="Tracé 1920" d="M508.357,183.27c.063,3.942-2.869,8.436-7.52,8.355-3.767-.066-6.511-3.277-6.511-7.219s2.494-7.573,6.9-7.95C505.023,176.132,508.279,178.484,508.357,183.27Z" fill="#a5aec0"/>
          <path id="Tracé_1921" data-name="Tracé 1921" d="M500.654,177.141c3.8-.325,7.055,2.028,7.132,6.814a9.005,9.005,0,0,1-1.768,5.4,8.977,8.977,0,0,0,2.339-6.082c-.078-4.786-3.334-7.138-7.132-6.814a7.177,7.177,0,0,0-5.3,2.9A7.219,7.219,0,0,1,500.654,177.141Z" fill="#5c687c"/>
          <path id="Tracé_1922" data-name="Tracé 1922" d="M511.324,169.043s.342,2.054,0,2.282S503.68,184.9,503.68,184.9l-4.222.457-.228-10.839-7.986,1.825-2.967-1.369,14.946-5.02Z" fill="#c6d1e5"/>
          <path id="Tracé_1923" data-name="Tracé 1923" d="M484.284,173.721l3.993,1.255,14.946-5.02-8.557.342Z" fill="#5c687c"/>
          <path id="Tracé_1924" data-name="Tracé 1924" d="M594.914,173.036c.088,5.545-3.986,11.866-10.448,11.752-5.235-.092-9.048-4.609-9.048-10.154s3.466-10.652,9.586-11.181C590.282,163,594.806,166.3,594.914,173.036Z" fill="#1c3661"/>
          <path id="Tracé_1925" data-name="Tracé 1925" d="M596.1,173.265c.085,5.544-3.809,11.865-9.985,11.751-5-.092-8.646-4.609-8.646-10.154s3.312-10.652,9.161-11.181C591.671,163.224,595.994,166.533,596.1,173.265Z" fill="#19559f"/>
          <path id="Tracé_1926" data-name="Tracé 1926" d="M593.835,173.344c.061,3.942-2.707,8.436-7.1,8.355-3.557-.066-6.148-3.277-6.148-7.219s2.355-7.574,6.514-7.95C590.689,166.206,593.762,168.558,593.835,173.344Z" fill="#a5aec0"/>
          <path id="Tracé_1927" data-name="Tracé 1927" d="M586.564,167.215c3.586-.325,6.66,2.028,6.733,6.813a9.37,9.37,0,0,1-1.669,5.4,9.282,9.282,0,0,0,2.207-6.082c-.073-4.786-3.146-7.138-6.732-6.814a6.693,6.693,0,0,0-5,2.9A6.667,6.667,0,0,1,586.564,167.215Z" fill="#5c687c"/>
          <path id="Tracé_1928" data-name="Tracé 1928" d="M596.637,159.117s.323,2.054,0,2.282-7.217,13.577-7.217,13.577l-3.985.456-.215-10.839-7.54,1.826-2.8-1.369,14.11-5.02Z" fill="#c6d1e5"/>
          <path id="Tracé_1929" data-name="Tracé 1929" d="M571.109,163.795l3.77,1.255,14.11-5.02-8.078.342Z" fill="#5c687c"/>
          <path id="Tracé_1930" data-name="Tracé 1930" d="M482.787,169.546c.087,5.156-3.926,11.036-10.293,10.93a9.13,9.13,0,0,1-8.914-9.445,10.074,10.074,0,0,1,9.444-10.4C478.224,160.208,482.681,163.285,482.787,169.546Z" fill="#1c3661"/>
          <path id="Tracé_1931" data-name="Tracé 1931" d="M483.953,169.758c.083,5.157-3.752,11.036-9.837,10.93-4.928-.086-8.519-4.287-8.519-9.444s3.264-9.907,9.026-10.4C479.592,160.42,483.851,163.5,483.953,169.758Z" fill="#19559f"/>
          <path id="Tracé_1932" data-name="Tracé 1932" d="M481.725,169.832c.059,3.666-2.668,7.846-6.994,7.771-3.5-.062-6.056-3.048-6.056-6.715s2.32-7.044,6.417-7.393C478.624,163.193,481.653,165.381,481.725,169.832Z" fill="#a5aec0"/>
          <path id="Tracé_1933" data-name="Tracé 1933" d="M474.561,164.131c3.533-.3,6.561,1.886,6.633,6.337a8.382,8.382,0,0,1-1.644,5.021,8.351,8.351,0,0,0,2.175-5.657c-.072-4.451-3.1-6.639-6.633-6.337a6.675,6.675,0,0,0-4.925,2.7A6.717,6.717,0,0,1,474.561,164.131Z" fill="#5c687c"/>
          <path id="Tracé_1934" data-name="Tracé 1934" d="M484.485,156.6s.318,1.91,0,2.122-7.11,12.628-7.11,12.628l-3.926.424-.213-10.081-7.428,1.7-2.759-1.273,13.9-4.669Z" fill="#c6d1e5"/>
          <path id="Tracé_1935" data-name="Tracé 1935" d="M459.335,160.95l3.714,1.167,13.9-4.669-7.959.318Z" fill="#5c687c"/>
          <path id="Tracé_1936" data-name="Tracé 1936" d="M565.538,161.657c.086,5.064-3.855,10.837-10.107,10.733a8.966,8.966,0,0,1-8.753-9.274,9.893,9.893,0,0,1,9.274-10.212C561.057,152.487,565.434,155.509,565.538,161.657Z" fill="#1c3661"/>
          <path id="Tracé_1937" data-name="Tracé 1937" d="M566.683,161.865c.082,5.064-3.684,10.837-9.659,10.733-4.839-.084-8.365-4.209-8.365-9.274s3.205-9.728,8.863-10.211C562.4,152.7,566.583,155.718,566.683,161.865Z" fill="#19559f"/>
          <path id="Tracé_1938" data-name="Tracé 1938" d="M564.495,161.938c.058,3.6-2.619,7.7-6.867,7.63-3.441-.06-5.947-2.992-5.947-6.593s2.278-6.916,6.3-7.26C561.451,155.419,564.424,157.567,564.495,161.938Z" fill="#a5aec0"/>
          <path id="Tracé_1939" data-name="Tracé 1939" d="M557.461,156.34c3.469-.3,6.442,1.852,6.513,6.223a8.225,8.225,0,0,1-1.614,4.93,8.2,8.2,0,0,0,2.135-5.555c-.071-4.371-3.044-6.519-6.513-6.223a6.558,6.558,0,0,0-4.836,2.649A6.6,6.6,0,0,1,557.461,156.34Z" fill="#5c687c"/>
          <path id="Tracé_1940" data-name="Tracé 1940" d="M567.205,148.945s.313,1.875,0,2.084-6.981,12.4-6.981,12.4l-3.856.417-.208-9.9-7.294,1.667-2.709-1.25,13.65-4.585Z" fill="#c6d1e5"/>
          <path id="Tracé_1941" data-name="Tracé 1941" d="M542.51,153.217l3.647,1.146,13.65-4.585-7.815.313Z" fill="#5c687c"/>
          <path id="Tracé_1942" data-name="Tracé 1942" d="M464.945,151.986l30.52,14.6v4.57l-30.52-15.123Z" fill="#1c3661"/>
          <path id="Tracé_1943" data-name="Tracé 1943" d="M602.029,156.036c-.342,0-106.564,10.548-106.564,10.548v4.57L601.8,160.372Z" fill="#19559f"/>
          <path id="Tracé_1944" data-name="Tracé 1944" d="M464.945,151.986l98.977-9.07,38.107,13.121L495.465,166.584Z" fill="url(#linear-gradient)"/>
          <path id="Tracé_1945" data-name="Tracé 1945" d="M495.693,34.412l-29.208-5.477,98.273-2.815L600.2,30.6" fill="none" stroke="#c6d1e5" stroke-miterlimit="10" stroke-width="0.405"/>
          <path id="Tracé_1946" data-name="Tracé 1946" d="M495.693,37.15l-29.208-5.477,97.893-2.51L599.291,33.5" fill="none" stroke="#c6d1e5" stroke-miterlimit="10" stroke-width="0.405"/>
          <path id="Tracé_1947" data-name="Tracé 1947" d="M495.693,47.875,466.485,42.4l98.349-3.423,34.913,5.477" fill="none" stroke="#c6d1e5" stroke-miterlimit="10" stroke-width="0.405"/>
          <path id="Tracé_1948" data-name="Tracé 1948" d="M495.921,59.741l-29.436-6.617,98.121-3.879,35.6,5.7" fill="none" stroke="#c6d1e5" stroke-miterlimit="10" stroke-width="0.405"/>
          <path id="Tracé_1949" data-name="Tracé 1949" d="M495.921,71.15l-29.436-7.987,98.349-3.879L599.747,65.9" fill="none" stroke="#c6d1e5" stroke-miterlimit="10" stroke-width="0.405"/>
          <path id="Tracé_1950" data-name="Tracé 1950" d="M495.921,82.686l-29.436-8.8,98.121-4.564,35.141,7.3" fill="none" stroke="#c6d1e5" stroke-miterlimit="10" stroke-width="0.405"/>
          <path id="Tracé_1951" data-name="Tracé 1951" d="M495.921,93.993l-29.436-9.607,98.577-5.248,34.685,8.9" fill="none" stroke="#c6d1e5" stroke-miterlimit="10" stroke-width="0.405"/>
          <path id="Tracé_1952" data-name="Tracé 1952" d="M495.921,105.528,466.485,95.11l98.121-5.477,34.913,8.443" fill="none" stroke="#c6d1e5" stroke-miterlimit="10" stroke-width="0.405"/>
          <path id="Tracé_1953" data-name="Tracé 1953" d="M495.921,116.835l-29.436-11.228,98.121-5.933,35.141,9.356" fill="none" stroke="#c6d1e5" stroke-miterlimit="10" stroke-width="0.405"/>
          <path id="Tracé_1954" data-name="Tracé 1954" d="M495.921,128.37l-29.436-12.039,98.349-6.617,35.141,10.5" fill="none" stroke="#c6d1e5" stroke-miterlimit="10" stroke-width="0.405"/>
          <path id="Tracé_1955" data-name="Tracé 1955" d="M494.324,139.221l-28.3-12.393,99.034-6.617,34.685,10.953" fill="none" stroke="#c6d1e5" stroke-miterlimit="10" stroke-width="0.405"/>
          <path id="Tracé_1956" data-name="Tracé 1956" d="M495.465,151.213l-29.436-13.66,99.034-7.074L600.2,141.889" fill="none" stroke="#c6d1e5" stroke-miterlimit="10" stroke-width="0.405"/>
          <path id="Tracé_1957" data-name="Tracé 1957" d="M495.465,161.658l-29.436-14.065,98.577-7.53,35.369,12.55" fill="none" stroke="#c6d1e5" stroke-miterlimit="10" stroke-width="0.405"/>
          <line id="Ligne_51" data-name="Ligne 51" y2="116.832" transform="translate(555.479 26.654)" fill="none" stroke="#c6d1e5" stroke-miterlimit="10" stroke-width="0.405"/>
          <line id="Ligne_52" data-name="Ligne 52" y2="117.517" transform="translate(545.666 26.882)" fill="none" stroke="#c6d1e5" stroke-miterlimit="10" stroke-width="0.405"/>
          <line id="Ligne_53" data-name="Ligne 53" y2="117.745" transform="translate(536.083 27.567)" fill="none" stroke="#c6d1e5" stroke-miterlimit="10" stroke-width="0.405"/>
          <line id="Ligne_54" data-name="Ligne 54" y2="119.114" transform="translate(526.27 27.567)" fill="none" stroke="#c6d1e5" stroke-miterlimit="10" stroke-width="0.405"/>
          <line id="Ligne_55" data-name="Ligne 55" y2="119.063" transform="translate(516.458 27.846)" fill="none" stroke="#c6d1e5" stroke-miterlimit="10" stroke-width="0.405"/>
          <line id="Ligne_56" data-name="Ligne 56" y2="119.799" transform="translate(506.418 28.023)" fill="none" stroke="#c6d1e5" stroke-miterlimit="10" stroke-width="0.405"/>
          <line id="Ligne_57" data-name="Ligne 57" y2="119.799" transform="translate(498.431 28.023)" fill="none" stroke="#c6d1e5" stroke-miterlimit="10" stroke-width="0.405"/>
          <line id="Ligne_58" data-name="Ligne 58" y2="121.396" transform="translate(486.109 28.479)" fill="none" stroke="#c6d1e5" stroke-miterlimit="10" stroke-width="0.405"/>
          <line id="Ligne_59" data-name="Ligne 59" y2="122.612" transform="translate(475.841 28.33)" fill="none" stroke="#c6d1e5" stroke-miterlimit="10" stroke-width="0.405"/>
          <line id="Ligne_60" data-name="Ligne 60" y2="120.357" transform="translate(471.733 29.723)" fill="none" stroke="#c6d1e5" stroke-miterlimit="10" stroke-width="0.405"/>
          <line id="Ligne_61" data-name="Ligne 61" y2="125.783" transform="translate(490.217 32.992)" fill="none" stroke="#c6d1e5" stroke-miterlimit="10" stroke-width="0.405"/>
          <line id="Ligne_62" data-name="Ligne 62" y2="124.362" transform="translate(483.501 31.827)" fill="none" stroke="#c6d1e5" stroke-miterlimit="10" stroke-width="0.405"/>
          <line id="Ligne_63" data-name="Ligne 63" y2="122.36" transform="translate(477.619 30.812)" fill="none" stroke="#c6d1e5" stroke-miterlimit="10" stroke-width="0.405"/>
          <line id="Ligne_64" data-name="Ligne 64" y2="123.399" transform="translate(593.358 29.671)" fill="none" stroke="#c6d1e5" stroke-miterlimit="10" stroke-width="0.405"/>
          <line id="Ligne_65" data-name="Ligne 65" y2="121.168" transform="translate(587.653 29.392)" fill="none" stroke="#c6d1e5" stroke-miterlimit="10" stroke-width="0.405"/>
          <line id="Ligne_66" data-name="Ligne 66" y2="119.342" transform="translate(582.176 28.479)" fill="none" stroke="#c6d1e5" stroke-miterlimit="10" stroke-width="0.405"/>
          <line id="Ligne_67" data-name="Ligne 67" y2="120.027" transform="translate(576.472 27.795)" fill="none" stroke="#c6d1e5" stroke-miterlimit="10" stroke-width="0.405"/>
          <line id="Ligne_68" data-name="Ligne 68" y2="118.201" transform="translate(571.223 27.338)" fill="none" stroke="#c6d1e5" stroke-miterlimit="10" stroke-width="0.405"/>
          <g id="Groupe_2409" data-name="Groupe 2409">
            <path id="Tracé_1958" data-name="Tracé 1958" d="M466.333,63.772s-6.541.153-5.933,1.217,16.886,5.629,18.407,5.781,16.43.913,16.43.913" fill="none" stroke="#19559f" stroke-miterlimit="10" stroke-width="3.242"/>
            <path id="Tracé_1959" data-name="Tracé 1959" d="M466.181,154.135V27.871s.456-5.933,3.955-5.933,21.3,3.347,21.3,3.347,5.02,1.065,4.868,8.671,0,132.653,0,132.653" fill="none" stroke="#19559f" stroke-miterlimit="10" stroke-width="3.242"/>
            <path id="Tracé_1960" data-name="Tracé 1960" d="M564.758,144.285V26.121s.537-5.552,4.654-5.552S594.471,23.7,594.471,23.7s5.907,1,5.728,8.115,0,124.143,0,124.143" fill="none" stroke="#19559f" stroke-miterlimit="10" stroke-width="3.402"/>
            <line id="Ligne_69" data-name="Ligne 69" y1="1.978" x2="98.121" transform="translate(481.698 21.482)" fill="none" stroke="#19559f" stroke-miterlimit="10" stroke-width="3.242"/>
          </g>
        </g>
        <g id="Groupe_2415" data-name="Groupe 2415">
          <path id="Tracé_1961" data-name="Tracé 1961" d="M446.63,52.946c5.3,2.137,8.893,16.449,14.347,16.431,6.875-.022,16.574-19.227,22.055-16.431s-5.343,25.141-14.2,28.55c-12.349,4.755-26.461-7.476-26.876-14S443.087,51.518,446.63,52.946Z" fill="#f58b5d"/>
          <g id="Groupe_2411" data-name="Groupe 2411">
            <path id="Tracé_1962" data-name="Tracé 1962" d="M457.715,67.694c-3.8-3.842-6.913-13.066-11.085-14.748-3.543-1.428-5.085,8.029-4.671,14.551.2,3.184,3.67,7.728,8.6,10.993A15.96,15.96,0,0,0,457.715,67.694Z" fill="#1c3661"/>
          </g>
          <path id="Tracé_1963" data-name="Tracé 1963" d="M436.3,182.292a7.958,7.958,0,0,0,1.119-3.875l4.283-.105a4.038,4.038,0,0,0,.494,2.608,6.042,6.042,0,0,0,2.535,1.345c2.031.981,4.54,2.248,4.642,2.932.171,1.138-11.645,1.391-13.635.333C434.693,184.976,435.381,183.716,436.3,182.292Z" fill="#1c3661"/>
          <path id="Tracé_1964" data-name="Tracé 1964" d="M447.454,85.428s9.716,28.223,9.386,43.5c-.31,14.351-6.965,48.351-15.92,50.81s-6.08-17.926-6.08-17.926L439,127.961s-13.563-36.836-8.238-40.442S447.454,85.428,447.454,85.428Z" fill="url(#linear-gradient-2)"/>
          <path id="Tracé_1965" data-name="Tracé 1965" d="M420.958,182.326a8.514,8.514,0,0,0,1.318-4.106l4.582.024a4.31,4.31,0,0,0,.445,2.8c.334.537,1.315.941,2.667,1.518,2.14,1.113,4.781,2.547,4.868,3.28.147,1.223-12.49,1.12-14.584-.074C419.159,185.145,419.934,183.82,420.958,182.326Z" fill="#1c3661"/>
          <path id="Tracé_1966" data-name="Tracé 1966" d="M421.068,85.9s-2.767,5.124-3.35,8.515c-1.4,8.125-4.218,54.409-2.5,69.771s7.569,15.445,12.957,15.559,7.55-68.807,7.55-75.685-.607-16.862-.607-16.862Z" fill="url(#linear-gradient-2)"/>
          <path id="Tracé_1967" data-name="Tracé 1967" d="M420.736,86.534c-.3-.2-1.343-6.811-3.575-11.842-1.983-4.471-7.038-14.562,2.758-21.264,7.406-5.067,21.694-4.017,26.46-.67,8.561,6.01.266,30.506,1.075,32.67C447.454,85.428,433.694,88.327,420.736,86.534Z" fill="#19559f"/>
          <path id="Tracé_1968" data-name="Tracé 1968" d="M446.379,52.758c-2.221-1.56-6.51-2.62-11.206-2.795a17.434,17.434,0,0,1,4.673,10.484c.318,6.18.384,17.775.907,26.012,4.058-.475,6.7-1.031,6.7-1.031C446.645,83.264,454.94,58.768,446.379,52.758Z" fill="#1c3661"/>
          <g id="Groupe_2412" data-name="Groupe 2412">
            <path id="Tracé_1969" data-name="Tracé 1969" d="M431.479,43.111a3.861,3.861,0,0,0-.392-4.159c-2.132-2.6-5.638,1.62-6.353,2.164a3.737,3.737,0,0,0-.825,3.707c.459,1.52.941,3.173,2.583,3.691S431.968,45.266,431.479,43.111Z" fill="#1a1047"/>
            <path id="Tracé_1970" data-name="Tracé 1970" d="M426.394,45.927l-.4,6.753c.235.9,5.744,2.086,6.856.565.325-.445-.024-1.275-.667-2.1l-3.7-4.453Z" fill="#f5b29c"/>
            <path id="Tracé_1971" data-name="Tracé 1971" d="M429.227,47.585c-1.038.093-2.46.2-2.46.2a4.433,4.433,0,0,0,2.215,2.367,4.247,4.247,0,0,0,2.661.339Z" fill="#1a1047"/>
            <path id="Tracé_1972" data-name="Tracé 1972" d="M427.145,43.259l-.45,3.851a2.365,2.365,0,0,0,2.208,2.45,6.542,6.542,0,0,0,2.857-.462c1.007-.334,1.335-1.432,1.061-2.784a12.885,12.885,0,0,0-1.67-4.056C430.039,40.466,427.623,40.771,427.145,43.259Z" fill="#f5b29c"/>
            <path id="Tracé_1973" data-name="Tracé 1973" d="M430.029,45.409a6.388,6.388,0,0,0,2.073-.356s.192.78-.23,1.149S430.5,46.289,430.029,45.409Z" fill="#fff"/>
            <path id="Tracé_1974" data-name="Tracé 1974" d="M431.808,47.691c-1.2,0-1.724,1.93-4.113.688a3.016,3.016,0,0,1-.99-1.354l-.01.085a2.365,2.365,0,0,0,2.208,2.45,6.542,6.542,0,0,0,2.857-.462,1.644,1.644,0,0,0,1.1-1.349A5.661,5.661,0,0,1,431.808,47.691Z" fill="#f58b5d"/>
            <path id="Tracé_1975" data-name="Tracé 1975" d="M428.042,41.581a4.734,4.734,0,0,0-.384,2.227c.231.706.388.99.19,1.233s-1.007-.167-1.143-.919S426.5,41.437,428.042,41.581Z" fill="#1a1047"/>
            <path id="Tracé_1976" data-name="Tracé 1976" d="M427.552,45.044a3.339,3.339,0,0,1-.207-.687c-.091-.447-.33-1.091-.927-.629-.869.671-.253,3.028.89,2.985C428.157,46.68,427.794,45.6,427.552,45.044Z" fill="#f5b29c"/>
          </g>
          <path id="Tracé_1977" data-name="Tracé 1977" d="M447.954,59.811c-.729-2.705-1.5-5.329-2.137-7.409a22.292,22.292,0,0,0-8.678-2.311c1.6,2.787,5.315,9.548,4.406,10.884-1.151,1.69-11.779,1.519-11.779,1.519l-5.039-11.3a17.782,17.782,0,0,0-4.808,2.237c-.255.175-.5.352-.733.531,6.808,8.234,4.922,27.837,5.382,33.192a65.892,65.892,0,0,0,22.886-1.723c-.181-.483.093-2.081.531-4.335.175-2.677.464-6.01.859-9.512A31.589,31.589,0,0,0,447.954,59.811Z" fill="url(#linear-gradient-2)"/>
          <path id="Tracé_1978" data-name="Tracé 1978" d="M418.461,67.618A19.538,19.538,0,0,0,425.2,79.383c6.009,5.019,14.643,1.321,14.643,1.321Z" fill="#1c3661"/>
          <path id="Tracé_1979" data-name="Tracé 1979" d="M447.985,81.093c.175-2.677.464-6.01.859-9.512a31.589,31.589,0,0,0-.89-11.77c-.729-2.705-1.5-5.329-2.137-7.409a17.988,17.988,0,0,0-5.463-1.857c.715,1.291,1.707,3.206,2.833,5.727,2.272,5.084,2.272,5.612,1.876,10.763-.3,3.88-2.133,13.382-1.834,19.329,2.627-.484,4.225-.936,4.225-.936C447.273,84.945,447.547,83.347,447.985,81.093Z" fill="#1c3661"/>
          <path id="Tracé_1980" data-name="Tracé 1980" d="M416.867,59.28c4.557-5.644,23.5,8.874,31.761,9.248,11.134.5,28.263-13.916,30.838-11.627,6.421,5.706-14.329,26.51-32.158,25.982C432.2,82.435,411.439,66,416.867,59.28Z" fill="#f5b29c"/>
          <path id="Tracé_1981" data-name="Tracé 1981" d="M480.421,61.419A6.364,6.364,0,0,0,476.164,64c-2.179,3.566-5.282,5.877-10.037,7.132s-8.122,3.9-14.725,6.8-6.4.4-11.952-2.179c-3.981-1.848-12.486-3.254-16.97-3.9,6.429,5.667,16.49,10.786,24.828,11.033C461.82,83.313,478.266,69.61,480.421,61.419Z" fill="#f58b5d"/>
          <path id="Tracé_1982" data-name="Tracé 1982" d="M476.062,58.588a9.529,9.529,0,0,1,4.985-3.705,5.179,5.179,0,0,0,2.085-1.027c.884-1.084,1.283.637-.158,1.808-.686.558-1.073,1.3-.277,1s4.271-3.713,3.851-1.915c-.744,3.181-3.67,5.541-7.572,5.7C477.31,60.51,475.244,59.789,476.062,58.588Z" fill="#f5b29c"/>
          <g id="Groupe_2413" data-name="Groupe 2413">
            <path id="Tracé_1983" data-name="Tracé 1983" d="M441.145,66.273C432.072,62.327,420.326,55,416.867,59.28c-3.98,4.928,5.621,16.843,17.248,22.084C434.119,81.36,442.172,72.148,441.145,66.273Z" fill="#19559f"/>
          </g>
          <g id="Groupe_2414" data-name="Groupe 2414">
            <path id="Tracé_1984" data-name="Tracé 1984" d="M425.994,68.8c-2.427-4.7-2.854-1.042-5.165-2.428-1.8-1.079-3.557-5-4.249-6.682-3.172,5.151,6.219,16.57,17.535,21.671a45.527,45.527,0,0,0,4.144-5.743,10.784,10.784,0,0,0-3.564.923C433.375,76.94,428.422,73.506,425.994,68.8Z" fill="#1c3661"/>
          </g>
          <path id="Tracé_1985" data-name="Tracé 1985" d="M443.388,85.134a8.192,8.192,0,0,0-.159,1.23c-.114,3.683,1.187,21.215,5.093,26.96s9.353,11,5.688,20.305-9.707,24.459-10.2,30.554c-.415,5.108-5.21,10.952-5.12,15.681a4.675,4.675,0,0,0,2.232-.122c8.955-2.459,15.61-36.459,15.92-50.81.33-15.281-9.386-43.5-9.386-43.5S445.765,85.2,443.388,85.134Z" fill="#95bd3f"/>
          <path id="Tracé_1986" data-name="Tracé 1986" d="M435.69,100.833c-1.611.845-3.437,3.154-3.728,9.222-.273,5.706,1.092,28.032-9.482,37.738-9.407,8.636,5.053,19.941,3.867,23.772a24.159,24.159,0,0,0-1.024,8.035c.948.1,1.908.122,2.853.142,5.388.115,7.55-68.807,7.55-75.685C435.726,103.036,435.713,101.947,435.69,100.833Z" fill="#95bd3f"/>
        </g>
      </g>
      <g id="Groupe_2442" data-name="Groupe 2442">
        <ellipse id="Ellipse_90" data-name="Ellipse 90" cx="173.363" cy="16.632" rx="173.363" ry="16.632" transform="translate(7.498 275.292)" fill="#bedefc" opacity="0.4"/>
        <g id="Groupe_2434" data-name="Groupe 2434">
          <g id="Groupe_2420" data-name="Groupe 2420">
            <g id="Groupe_2417" data-name="Groupe 2417">
              <path id="Tracé_1987" data-name="Tracé 1987" d="M276.563,290.906a58.94,58.94,0,1,1,41.678-17.263A58.554,58.554,0,0,1,276.563,290.906Zm41.678-100.619A58.558,58.558,0,0,1,335.5,231.965m-58.941-49.912a49.912,49.912,0,1,0,49.912,49.912A49.968,49.968,0,0,0,276.563,182.053Z" fill="#1c3661"/>
            </g>
            <g id="Groupe_2418" data-name="Groupe 2418">
              <path id="Tracé_1988" data-name="Tracé 1988" d="M270.287,290.906a58.94,58.94,0,1,1,41.678-17.263A58.554,58.554,0,0,1,270.287,290.906Zm41.678-100.619a58.558,58.558,0,0,1,17.263,41.678m-58.941-49.912A49.912,49.912,0,1,0,320.2,231.965,49.968,49.968,0,0,0,270.287,182.053Z" fill="#19559f"/>
            </g>
            <g id="Groupe_2419" data-name="Groupe 2419">
              <path id="Tracé_1989" data-name="Tracé 1989" d="M270.287,284.631a52.666,52.666,0,1,1,37.24-15.426A52.318,52.318,0,0,1,270.287,284.631Zm0-101.587a48.921,48.921,0,1,0,48.922,48.921A48.977,48.977,0,0,0,270.287,183.044Z" fill="url(#linear-gradient-2)"/>
            </g>
          </g>
          <g id="Groupe_2424" data-name="Groupe 2424">
            <g id="Groupe_2421" data-name="Groupe 2421">
              <path id="Tracé_1990" data-name="Tracé 1990" d="M77.817,292.506A58.94,58.94,0,1,1,119.5,275.243,58.558,58.558,0,0,1,77.817,292.506Zm0-108.853a49.912,49.912,0,1,0,49.912,49.912A49.969,49.969,0,0,0,77.817,183.653Z" fill="#1c3661"/>
            </g>
            <g id="Groupe_2422" data-name="Groupe 2422">
              <path id="Tracé_1991" data-name="Tracé 1991" d="M71.37,292.506a58.94,58.94,0,1,1,41.678-17.263A58.558,58.558,0,0,1,71.37,292.506Zm0-108.853a49.912,49.912,0,1,0,49.912,49.912A49.969,49.969,0,0,0,71.37,183.653Z" fill="#19559f"/>
            </g>
            <g id="Groupe_2423" data-name="Groupe 2423">
              <path id="Tracé_1992" data-name="Tracé 1992" d="M71.37,286.23A52.664,52.664,0,1,1,108.61,270.8,52.32,52.32,0,0,1,71.37,286.23Zm0-101.587a48.922,48.922,0,1,0,48.922,48.922A48.978,48.978,0,0,0,71.37,184.643Z" fill="url(#linear-gradient-2)"/>
            </g>
          </g>
          <g id="Groupe_2425" data-name="Groupe 2425">
            <path id="Tracé_1993" data-name="Tracé 1993" d="M270.286,234.058a2.078,2.078,0,0,1-.865-.189l-7.259-3.3a2.092,2.092,0,0,1-1.081-1.14l-33.039-84.279a2.089,2.089,0,0,1,.02-1.575l7.306-17.353-16.339-12.774h-9.518a2.092,2.092,0,0,1,0-4.184h10.238a2.089,2.089,0,0,1,1.289.444l18.168,14.2a2.091,2.091,0,0,1,.639,2.46l-7.6,18.044,32.419,82.7,6.486,2.952a2.092,2.092,0,0,1-.867,4Z" fill="#1c3661"/>
          </g>
          <g id="Groupe_2426" data-name="Groupe 2426">
            <path id="Tracé_1994" data-name="Tracé 1994" d="M226.864,142.845l-5.6-16.626-16.339-12.774h-9.518a2.092,2.092,0,1,1,0-4.184h10.239a2.089,2.089,0,0,1,1.288.444l18.168,14.2a2.093,2.093,0,0,1,.64,2.46l5.307,17.317S226.652,143.348,226.864,142.845Z" fill="#1c3661"/>
          </g>
          <g id="Groupe_2427" data-name="Groupe 2427">
            <path id="Tracé_1995" data-name="Tracé 1995" d="M132.122,195.281a2.091,2.091,0,0,1-1.673-3.346A133.323,133.323,0,0,1,164.344,159.7a111.706,111.706,0,0,1,32.238-14.366c19.31-5.11,33.142-3.1,33.721-3.017a2.092,2.092,0,1,1-.627,4.137c-.234-.034-13.777-1.943-32.225,2.978-17.06,4.551-41.953,16.055-63.653,45.014A2.09,2.09,0,0,1,132.122,195.281Z" fill="#1c3661"/>
          </g>
          <g id="Groupe_2428" data-name="Groupe 2428">
            <path id="Tracé_1996" data-name="Tracé 1996" d="M148.079,237.281a2.093,2.093,0,0,1-1.954-1.344L115,154.622a2.092,2.092,0,0,1,3.908-1.5l30.606,79.951c10.434-.294,17.947-3.855,23.564-11.139,5.4-7.005,8.56-16.719,11.9-27,1.052-3.233,2.139-6.577,3.317-9.9A42.893,42.893,0,0,1,199.14,168.7a69.072,69.072,0,0,1,14.709-10.686,89.891,89.891,0,0,1,18.565-7.758,2.092,2.092,0,0,1,1.073,4.044,87.358,87.358,0,0,0-17.695,7.421c-8.4,4.665-19.3,12.74-23.552,24.72-1.159,3.265-2.238,6.582-3.281,9.789-3.46,10.639-6.727,20.687-12.571,28.265a31.053,31.053,0,0,1-11.309,9.329A38.544,38.544,0,0,1,148.079,237.281Z" fill="#1c3661"/>
          </g>
          <g id="Groupe_2429" data-name="Groupe 2429">
            <path id="Tracé_1997" data-name="Tracé 1997" d="M101.427,153.135h0a1.249,1.249,0,0,0,1.141.739H125.08a2.772,2.772,0,0,0,2.772-2.772h0a2.772,2.772,0,0,0-2.126-2.7l-17-4.07A6.372,6.372,0,0,0,101.427,153.135Z" fill="#19559f"/>
          </g>
          <g id="Groupe_2430" data-name="Groupe 2430">
            <path id="Tracé_1998" data-name="Tracé 1998" d="M62.11,242.265a2.094,2.094,0,0,1-2.029-2.608,75.374,75.374,0,0,1,15.55-30.075,95.994,95.994,0,0,1,22.162-19.114,111.748,111.748,0,0,1,28.477-13.085,2.092,2.092,0,1,1,1.068,4.045,109.822,109.822,0,0,0-27.407,12.639c-13.039,8.313-29.833,23.149-35.795,46.62A2.094,2.094,0,0,1,62.11,242.265Z" fill="#1c3661"/>
          </g>
          <g id="Groupe_2431" data-name="Groupe 2431">
            <path id="Tracé_1999" data-name="Tracé 1999" d="M56.272,240.584h0a19.929,19.929,0,0,1,14.091-5.837H141.2c14.295,0,33.752,4.657,33.752,15.787l-20,.65a23.961,23.961,0,0,1-13.364-3.578c-3.177-1.961-4.516-3.941-10.267-3.941H57.548A1.8,1.8,0,0,1,56.272,240.584Z" fill="#1c3661"/>
          </g>
          <g id="Groupe_2432" data-name="Groupe 2432">
            <circle id="Ellipse_91" data-name="Ellipse 91" cx="11.507" cy="11.507" r="11.507" transform="translate(149.759 243.094)" fill="#c6d1e5"/>
          </g>
          <g id="Groupe_2433" data-name="Groupe 2433">
            <path id="Tracé_2000" data-name="Tracé 2000" d="M187.307,270.8H173.983l-14.364-14.579a2.312,2.312,0,0,1,3.294-3.246l13.006,13.2h11.388a2.313,2.313,0,0,1,0,4.625Z" fill="#19559f"/>
          </g>
        </g>
        <g id="Groupe_2441" data-name="Groupe 2441">
          <path id="Tracé_2001" data-name="Tracé 2001" d="M205.328,105.119s14.357,0,17.5,5.369c2.295,3.915-21.045,1.475-22.029,0S205.328,105.119,205.328,105.119Z" fill="#f58b5d"/>
          <path id="Tracé_2002" data-name="Tracé 2002" d="M110.131,89.267s32.116,19.743,44.308,21.221c13.458,1.631,43.414-9.047,54.035-4.524s-19.341,29.938-54.035,29.927C133.062,135.884,106,97.548,110.131,89.267Z" fill="#f58b5d"/>
          <path id="Tracé_2003" data-name="Tracé 2003" d="M206.147,181.033s9.047-2.262,10.457,1.541-4.885,6.359-7.474,5.277S206.147,181.033,206.147,181.033Z" fill="#f5b29c"/>
          <path id="Tracé_2004" data-name="Tracé 2004" d="M79.172,153.021s-9.9-11.146-22.736,4.417,11.291,76.569,4.013,84.437c0,0-38.024,10.358-40.2,22.618C17.056,282.427,63.324,285.675,85,260.456c16.959-19.728,15.9-73.774,15.9-73.774Z" fill="url(#linear-gradient)"/>
          <g id="Groupe_2435" data-name="Groupe 2435">
            <path id="Tracé_2005" data-name="Tracé 2005" d="M139.118,281.736c-.855-2.649-4.616-5.307-4.616-5.307l.912-2.853-9.544-.64-1.026,5.742a9.427,9.427,0,0,0,4.289,4.093C133.332,284.933,139.973,284.386,139.118,281.736Z" fill="#f5b29c"/>
            <path id="Tracé_2006" data-name="Tracé 2006" d="M156.352,287.7c7.144-7.144-21.85-11.266-21.85-11.266s-1.973,3.858-6.084,3.858c-1.156,0-3.574-1.609-3.574-1.609s-5.951,5.631-4.055,8.184C123.464,290.464,155.438,288.609,156.352,287.7Z" fill="#1c3661"/>
          </g>
          <path id="Tracé_2007" data-name="Tracé 2007" d="M109.639,159.11s55.487-.185,61.661,21.219-28.244,97.342-41.209,97.342c-32.548,0,.3-80.641.3-80.641s-85.925,5.077-76.017-33.523C56.1,156.793,84.878,156.171,109.639,159.11Z" fill="url(#linear-gradient)"/>
          <path id="Tracé_2008" data-name="Tracé 2008" d="M142.131,84.039s-1.165,3.027-2.021,6.155-2.159,5.351-4.394,5.376c-3.852.042-7.2-5.588-4.837-9.158S142.131,84.039,142.131,84.039Z" fill="#f5b29c"/>
          <path id="Tracé_2009" data-name="Tracé 2009" d="M130.667,86.8c.842,1.812,1.221,4.109,2.712,5.606a7.192,7.192,0,0,0,4.768,1.985,3.22,3.22,0,0,1-2.431,1.179C132,95.61,128.765,90.375,130.667,86.8Z" fill="#f58b5d"/>
          <path id="Tracé_2010" data-name="Tracé 2010" d="M195.127,194.629l25.086-15.1a5.8,5.8,0,0,0,2.211-2.4c.608-1.228,1.654-2.86,2.858-3.2a4.1,4.1,0,0,1,4.389,1.332l-2.563.694a1.471,1.471,0,0,0-1.068,1.177l-.087.514a1.473,1.473,0,0,0,.386,1.26l.384.4a1.474,1.474,0,0,0,1.827.247l2.056-1.237a3.071,3.071,0,0,1-.542,2.1,5.441,5.441,0,0,1-4.638,2.528,2.069,2.069,0,0,1-.315-.025,5.144,5.144,0,0,0-3.477.553L197.25,198.157a3.225,3.225,0,0,1-5.493,1.789,3.228,3.228,0,0,1,3.37-5.317Zm-2.389,3.84a1.549,1.549,0,1,0,.529-2.125A1.55,1.55,0,0,0,192.738,198.469Z" fill="#c6d1e5"/>
          <path id="Tracé_2011" data-name="Tracé 2011" d="M118.946,94.353s10.044-10.27,14.915-9.529-2.564,15.872-4.87,15.626S118.946,94.353,118.946,94.353Z" fill="#f5b29c"/>
          <path id="Tracé_2012" data-name="Tracé 2012" d="M128.35,88.89h0a5.426,5.426,0,0,1-.67-4.739c1.18-3.646,3.718-9.727,7.443-9.4,5.3.463,11.794-1.046,12.2,2.619.716,6.419-5.475,7.005-6.567,9.033s-1.628,2.875-2.231,2.25-1.707-1.157-3.29.028S128.35,88.89,128.35,88.89Z" fill="#1c3661"/>
          <g id="Groupe_2436" data-name="Groupe 2436">
            <path id="Tracé_2013" data-name="Tracé 2013" d="M136.444,82.533a22.246,22.246,0,0,0,6.648,2.059,6.3,6.3,0,0,0-2.334,1.809c-1.092,2.028-1.628,2.875-2.231,2.25s-1.707-1.157-3.29.028-6.887.211-6.887.211a5.426,5.426,0,0,1-.67-4.739,26.612,26.612,0,0,1,3-6.529C131.429,79.235,133.756,81.184,136.444,82.533Z" fill="#1e1240"/>
          </g>
          <g id="Groupe_2437" data-name="Groupe 2437">
            <path id="Tracé_2014" data-name="Tracé 2014" d="M20.245,264.493c2.18-12.26,40.2-22.618,40.2-22.618C67.727,234.007,43.6,173,56.436,157.438c7.814-9.474,14.534-9.047,18.6-7.266-2.41,12.857-6.285,38.343-2.08,51.5,5.77,18.047-1.049,41.649-6.294,46.369-4.353,3.918,1.761,18.67,16.636,14.283C61,285.495,17.137,281.971,20.245,264.493Z" fill="#f58b5d"/>
          </g>
          <path id="Tracé_2015" data-name="Tracé 2015" d="M138.392,89.222a2.356,2.356,0,0,0,.236-2.561c-.782-1.3-2.3-.2-2.533,2.357S137.163,91.457,138.392,89.222Z" fill="#f5b29c"/>
          <path id="Tracé_2016" data-name="Tracé 2016" d="M107.761,160.718c2.344-.134,3.166-5.892,4.41-7.883,15.436-24.7,30.312-21.844,32.561-30.727,4.926-19.448-28.8-40.777-43.757-31.24-16.812,10.722-46.113,55.3-47.881,74.561C58.545,178.354,92.385,161.6,107.761,160.718Z" fill="#19559f"/>
          <g id="Groupe_2438" data-name="Groupe 2438">
            <path id="Tracé_2017" data-name="Tracé 2017" d="M94.593,186.048c12.391.951,31.49,4.455,35.512,3.982s17.986-5.427,25.264,2.163S136.5,243.645,138.95,253.872a23.334,23.334,0,0,0,5.2,9.625c-5.437,8.576-10.536,14.174-14.054,14.174-32.548,0,.3-80.641.3-80.641s-27.9,1.644-50.068-4.079C81.873,190.124,85.811,185.373,94.593,186.048Z" fill="#f58b5d"/>
          </g>
          <path id="Tracé_2018" data-name="Tracé 2018" d="M100.975,90.868c4.661-2.973,11.147-2.946,17.717-.912-5.009,2.2-15.149,14.908-19.535,22.648-5.941,10.483-16.366,24.24-29.347,26.207a26.571,26.571,0,0,1-6.722.116C73.569,119.471,89.954,97.9,100.975,90.868Z" fill="#1c3661"/>
          <path id="Tracé_2019" data-name="Tracé 2019" d="M122.426,139.848c-3.175-15.061,3.886-23.224,3.886-23.224l8.266,14.235A56.455,56.455,0,0,0,122.426,139.848Z" fill="#1c3661"/>
          <path id="Tracé_2020" data-name="Tracé 2020" d="M137.928,107.792c10.57,2.532,12.452,38.524,21.356,48.871,9.641,11.2,52.24,22.143,52.261,30.144.028,10.6-51.567,2.863-70.338-19.477C113.571,134.441,122.458,104.087,137.928,107.792Z" fill="#f5b29c"/>
          <path id="Tracé_2021" data-name="Tracé 2021" d="M217.817,187.95c-1.23-3.344-5.894-6.042-8.753-7.114-1.594-.6-6.36-1.123-7.694,2.246a5.722,5.722,0,0,0,.364,4.16c1.822,3.428,2.1,4.714,6.511,5.789C210.64,193.615,218.356,189.415,217.817,187.95Z" fill="#f5b29c"/>
          <g id="Groupe_2439" data-name="Groupe 2439">
            <path id="Tracé_2022" data-name="Tracé 2022" d="M14.64,259.128s6-.238,8.654,2.614.851,18.194.851,18.194,10.163,4.523,6.525,7.572-14.359.3-16.03-1.475S14.64,259.128,14.64,259.128Z" fill="#1c3661"/>
            <path id="Tracé_2023" data-name="Tracé 2023" d="M10.706,262.529s1.912-4.7,5.507-3.049.984,13.031,2.262,21.242c.386,2.481,6.589,8.153,6.589,8.153s-7.523,1.288-11.949-2.252C9.36,283.619,7.952,267.643,10.706,262.529Z" fill="#19559f"/>
          </g>
          <path id="Tracé_2024" data-name="Tracé 2024" d="M85.283,115.411c7.846-2.736,22.61-19.956,28.129-26.642a34.033,34.033,0,0,1,6.438,1.566c-2.3,3.25-5.937,8.8-4.933,10.118,1.187,1.562,11.166-3.485,14.659-5.319a45.944,45.944,0,0,1,4.4,3.252c-7.763,5.381-37.283,28.661-35.845,34.393,2.785,11.1,14.717,11.158,19.966,11.786-1.949,2.356-3.586,5.977-5.018,9.456-1.355,3.294-2.77,9.307-5.114,9.441-15.376.882-49.422,14.892-54.873,1.967,1.062-11.572,12.061-32.278,24.32-49.293A15.04,15.04,0,0,0,85.283,115.411Z" fill="url(#linear-gradient)"/>
          <path id="Tracé_2025" data-name="Tracé 2025" d="M214.03,109.16c1.377.885,2.606,1.967,2.705,2.852s-.836,1.566-1.279,1a5.645,5.645,0,0,0-4.13-1.447c-1.967.1-4.671.295-4.622-2.065S212.654,108.275,214.03,109.16Z" fill="#f58b5d"/>
          <path id="Tracé_2026" data-name="Tracé 2026" d="M145.318,160.564c4.15,5.98,13.394,9.913,21.065,15.027s3.934,3.9,11.015,4.8c5.849.743,20.194,5.553,25.01,11.036-15.68.9-47.36-7.63-61.2-24.1a87.112,87.112,0,0,1-12.333-18.962C133.988,151.269,142.486,156.483,145.318,160.564Z" fill="#f58b5d"/>
          <g id="Groupe_2440" data-name="Groupe 2440">
            <path id="Tracé_2027" data-name="Tracé 2027" d="M137.928,107.792c9.174,2.2,11.8,29.593,18.158,43.559-1.986,4-6.966,10.081-18.935,10.816C114.53,131.343,123.271,104.282,137.928,107.792Z" fill="#19559f"/>
          </g>
          <path id="Tracé_2028" data-name="Tracé 2028" d="M145.318,160.564a29.292,29.292,0,0,1-8.167,1.6c-17.657-24.061-16.205-45.827-7.748-52.552-1.082,3.756-2.7,11.812.7,18.637,4.612,9.248,5.318,3.74,7.39,13.05C138.684,146.641,142.38,154.676,145.318,160.564Z" fill="#1c3661"/>
          <path id="Tracé_2029" data-name="Tracé 2029" d="M53.094,165.429c1.062-11.572,12.061-32.278,24.32-49.293a15.04,15.04,0,0,0,7.869-.725c7.846-2.736,22.61-19.956,28.129-26.642a31.769,31.769,0,0,1,3.52.7,98.28,98.28,0,0,0-6.736,7.515c-3.409,4.459-10.752,20.193-22.029,25.176S72.695,132.648,67.974,153.1c-1.446,6.267,3.629,11.48,4.053,17.2C62.177,185.108,52.24,171.592,53.094,165.429Z" fill="#f58b5d"/>
        </g>
      </g>
      <g id="Groupe_2456" data-name="Groupe 2456">
        <ellipse id="Ellipse_92" data-name="Ellipse 92" cx="29.065" cy="281.755" rx="29.065" ry="281.755" transform="translate(113.271 491.779) rotate(-88.906)" fill="#bedefc" opacity="0.4"/>
        <g id="Groupe_2453" data-name="Groupe 2453">
          <path id="Tracé_2030" data-name="Tracé 2030" d="M561.934,161.158c1.412-2.391,4.04-3.806,6.687-4.644a8.207,8.207,0,0,1,4.443-.4c1.91.484,3.322,2.037,4.769,3.375s3.294,2.59,5.235,2.25a9.089,9.089,0,0,0,2.795-1.281,18.819,18.819,0,0,1,20.024,1.25c4.869,3.624,7.656,9.453,9.111,15.346a26.785,26.785,0,0,1,.86,9.207c-.695,6.539-4.908,12.375-10.352,16.063s-12.009,5.423-18.551,6.1a65.168,65.168,0,0,1-27.716-3.16,18.562,18.562,0,0,1-6.2-3.182,17.845,17.845,0,0,1-4-5.518,50.612,50.612,0,0,1-4.588-13.013,19.324,19.324,0,0,1-.421-6.736c.744-4.921,4.375-7.234,9.06-7.338,2.059-.046,4.085-.367,5.643-1.879C560.517,165.868,560.716,163.22,561.934,161.158Z" fill="#1c3661"/>
          <path id="Tracé_2031" data-name="Tracé 2031" d="M394.285,214.026c-5.654-2.084-12.1-2.372-18.061-2.13-3.1.126-6.083.627-9.142,1.048-2.432.334-4.764.344-6.633,2.218-3.024,3.033-2.143,10.052,2.884,10.454a8.448,8.448,0,0,0,3.4-.655c3.42-1.192,7.223-3.811,10.788-4.21,3.592-.4,7.14-.369,10.75-1.132C390.349,219.181,400.785,216.423,394.285,214.026Z" fill="#f5b29c"/>
          <g id="Groupe_2444" data-name="Groupe 2444">
            <path id="Tracé_2032" data-name="Tracé 2032" d="M483.272,454.074a11.65,11.65,0,0,1-6.644-2.105c-2.254-1.613-5.231-3.222-7.074-2.155-3.277,1.9.209,9.012-2.755,10.729s-15.864,3.314-21.585,7.89c-3.394,2.716-5.149,8.166,1.4,8.79,4.8.457,27.892.244,39.872.1a7.616,7.616,0,0,0,7.516-7.77c-.1-5.019-.808-11.014-3.483-13.066A12.07,12.07,0,0,0,483.272,454.074Z" fill="#19559f"/>
            <g id="Groupe_2443" data-name="Groupe 2443">
              <path id="Tracé_2033" data-name="Tracé 2033" d="M490.669,472.386c-3.64.936-37.966,1.976-40.878-1.144a7.348,7.348,0,0,0-5.288-2.174c-2.893,2.85-3.961,7.576,2.115,8.155,4.8.457,27.892.244,39.872.1a7.613,7.613,0,0,0,7.376-6.167A15.784,15.784,0,0,1,490.669,472.386Z" fill="#1c3661"/>
            </g>
          </g>
          <g id="Groupe_2446" data-name="Groupe 2446">
            <path id="Tracé_2034" data-name="Tracé 2034" d="M636.23,402.233s-.938-7.617,5.408-9.964,13.044-.936,14.541,15.615c1.041,11.51-2.739,32.524-8.012,34.3-5.689,1.921-22.981,2.627-23.35-4.534C624.3,427.741,636.23,402.233,636.23,402.233Z" fill="#19559f"/>
            <g id="Groupe_2445" data-name="Groupe 2445">
              <path id="Tracé_2035" data-name="Tracé 2035" d="M656.179,407.884a34.531,34.531,0,0,0-2.283-10.407c.687,9.447-.424,22.782-2.369,27.031-3.974,8.679-11.922,13.109-17.6,10.853-3.7-1.469-9.2.544-9.109,2.294.369,7.161,18.34,7.843,23.35,4.534C656.035,436.99,657.22,419.394,656.179,407.884Z" fill="#1c3661"/>
            </g>
          </g>
          <path id="Tracé_2036" data-name="Tracé 2036" d="M533.417,296.505s65.893,17.885,59.094,40.321C579.821,378.7,486.8,345.148,484.962,350.8c-2.451,7.545,3.058,12.569,14.054,45.163,1.96,5.809,9.079,51.725-1.627,63.431-5.583,6.1-30.948,3.943-33.076-.909-12.427-28.343-37.287-77.653-34.515-125.7C431.591,301.7,476.037,277.742,533.417,296.505Z" fill="url(#linear-gradient-2)"/>
          <path id="Tracé_2037" data-name="Tracé 2037" d="M533.417,296.505c-1.475-.482-2.935-.918-4.392-1.345-14.835,9.407-45.331,28.31-54.356,30.6-12.076,3.059-13.674,12.618-16.507,15.677s-16.5-3.442-15.977,7.647,45.6,68.827,47.534,86.8a146.457,146.457,0,0,0,5.07,25.271,7.943,7.943,0,0,0,2.6-1.755c10.7-11.706,3.587-57.622,1.627-63.431-11-32.594-16.505-37.618-14.054-45.163,1.836-5.654,94.859,27.9,107.549-13.976C599.31,314.39,533.417,296.505,533.417,296.505Z" fill="#95bd3f"/>
          <path id="Tracé_2038" data-name="Tracé 2038" d="M511.294,211.17a128.622,128.622,0,0,1-15.438,27.32c-8,10.831-20.626,28.295-36.473,24.789a27.565,27.565,0,0,1-9.5-4.442c-7.2-4.945-12.907-11.719-19.086-17.9-9.36-9.357-20.377-18.592-32.342-24.424-4.732-2.307-20.156-8.651-17.259,2.581,1.238,4.8,6.084,8.042,8.651,12.12A160.333,160.333,0,0,0,400.376,246c8.16,10.194,17.315,19.621,28.328,26.482,12.034,7.5,22.172,16.88,35.417,22.555,4.078,1.747,6.689.752,10.484-1.343a120.586,120.586,0,0,0,55.627-67.055C523.191,222.906,517.314,216.4,511.294,211.17Z" fill="#f5b29c"/>
          <path id="Tracé_2039" data-name="Tracé 2039" d="M512.588,254.5c-9.581,12.59-18.354,25.084-30.686,31.865-13.391,7.364-26.17-.86-36.939-9.092q-17.514-13.389-33.642-28.469-8.051-7.528-15.721-15.449c-3.319-3.427-7.265-10.793-12.648-9.942-3.063.484,17.637,24.831,19.069,26.132q15.256,13.857,30.5,27.722c12.32,11.2,28.484,26.354,46.229,19.446a62.6,62.6,0,0,0,19.581-12.524c8.473-7.832,15.059-17.49,20.811-27.492,3.429-5.961,6.69-12.672,5.455-19.437a36.1,36.1,0,0,0-3.9,2.957c-1.1,1.345-1.281,2.528-1.94,4.034A51.992,51.992,0,0,1,512.588,254.5Z" fill="#f58b5d"/>
          <path id="Tracé_2040" data-name="Tracé 2040" d="M553.108,304.432s-26.464,58.108-24.627,102.919c2.128,51.931,16.011,67.8,31.858,67.95,23.436.221,70.18-29.655,83.4-47.834s.394-32.608-8.054-31.873c-6.6.573-35.016,2.448-50.279,11.589,0,0,31.875-58.493,31.3-85.3C615.235,253.888,553.108,304.432,553.108,304.432Z" fill="url(#linear-gradient-2)"/>
          <path id="Tracé_2041" data-name="Tracé 2041" d="M635.688,395.594c-6.6.573-35.016,2.448-50.279,11.589,0,0,31.875-58.493,31.3-85.3-.606-28.011-11.506-35.9-24.115-35.5-6.083,20.764-16.34,55.771-18.918,64.541-3.729,12.681-9.751,58.96-4.015,66.506s13.192,17.981,8.6,33.842c-2.712,9.375-10.734,18.216-17.137,24,23.675-.422,69.539-29.829,82.619-47.811C656.964,409.289,644.136,394.859,635.688,395.594Z" fill="#95bd3f"/>
          <path id="Tracé_2042" data-name="Tracé 2042" d="M604.265,310.381c17.429-28.548,22.11-106.107-15.427-118.43-14.14-4.642-30.943-3.5-45.212-.145-9.952,2.342-20.916,6.283-27.945,14.066-10.264,11.366-1.776,23.147-3.046,36.342-.291,3.026-.874,6.268.531,8.964a12.345,12.345,0,0,0,3.261,3.6c3.326,2.759,8.664,4.911,11.342,8.221,1.762,2.178,1.922,5.035,2.461,7.717,1.146,5.708,2.28,11.423,3.708,17.069,2.2,8.68,6.168,27.569,17.365,29.078C576.826,320.308,596.269,323.476,604.265,310.381Z" fill="#19559f"/>
          <path id="Tracé_2043" data-name="Tracé 2043" d="M588.838,191.951a62.221,62.221,0,0,0-14.519-2.589c.7,7.745.539,15.5,1.063,23.227.213,3.15,1.255,5.653.61,8.813-.945,4.63-3.448,8.616-3.732,13.477-.38,6.522,2.425,12.559,4.965,18.389a48.793,48.793,0,0,1,4.489,18.53c.73,15.688,4.748,32.129,7.854,47.5,6.491-1.063,11.507-3.693,14.7-8.917C621.694,281.833,626.375,204.274,588.838,191.951Z" fill="#19559f"/>
          <path id="Tracé_2044" data-name="Tracé 2044" d="M612.905,263.719a24.474,24.474,0,0,0,2.506,2.109,38.176,38.176,0,0,0,1.935-11.2c.051-2.371,1.184-12.851-.547-14.422l-22.861-20.749c.485.44-.162,5.046-.146,5.755a36.236,36.236,0,0,0,1.56,10.129c2.147,6.84,6.167,12.936,10.121,18.845A56.13,56.13,0,0,0,612.905,263.719Z" fill="#1c3661"/>
          <g id="Groupe_2450" data-name="Groupe 2450">
            <path id="Tracé_2045" data-name="Tracé 2045" d="M527.513,160.516s-2.179-10.175,6.974-12.987c12.967-3.981,20.368,9.492,19.186,15.207-1.652,7.989-7,6.975-12.158,5.343S527.513,160.516,527.513,160.516Z" fill="#19559f"/>
            <path id="Tracé_2046" data-name="Tracé 2046" d="M546.663,160.466s-12.759-10.143-19.581-10.283c-9.328-.192-10.53,8.256-8.035,11.514s13,8.059,15.529,7.618S546.663,160.466,546.663,160.466Z" fill="#19559f"/>
            <g id="Groupe_2449" data-name="Groupe 2449">
              <path id="Tracé_2047" data-name="Tracé 2047" d="M549.082,170.148c.83.283,1.392,1.911,1.555,3.078a19.909,19.909,0,0,0,3.97,8.979,44.933,44.933,0,0,0,4.574,5.117c.932.919,2.737,2.117,3.03,3.509.277,1.319-1.321,2.911-2.1,3.766a34.435,34.435,0,0,1-5.754,4.942c-3.4,2.39-11.119,7.815-14.253,2.527a5.436,5.436,0,0,1,.355-5.848,23.512,23.512,0,0,0,2.371-2.857,7.243,7.243,0,0,0,.311-4.37c-.392-2.662-1.188-4.856-.309-7.438.68-2,1.057-4.106,1.536-6.159.311-1.33,2.485-3.3,3.283-4.438C548.186,170.2,548.667,170.006,549.082,170.148Z" fill="#f5b29c"/>
              <path id="Tracé_2048" data-name="Tracé 2048" d="M543.408,179.515c1.352-.532,7.471-2.082,7.673-3.952-.6,5.524-1.577,13.175-7.592,15.241a.172.172,0,0,1-.15,0,.17.17,0,0,1-.056-.11c-.323-1.453-.868-2.919-1.132-4.36a9.717,9.717,0,0,1,.577-3.911C542.8,182.117,543.113,179.631,543.408,179.515Z" fill="#1c3661"/>
              <g id="Groupe_2448" data-name="Groupe 2448">
                <path id="Tracé_2049" data-name="Tracé 2049" d="M525.643,186a11.891,11.891,0,0,1-4.341-1.554c-1.976-1.187-3.705-3.323-3.307-5.593.327-1.863,2.023-3.579,1.417-5.37-.543-1.6-2.634-2.162-3.422-3.659-.754-1.435-.045-3.235,1.024-4.454,3.978-4.536,8.438-9.589,14.956-9.488a26.4,26.4,0,0,1,7.787,1.6c3.6,1.2,9.982,3.256,11.871,6.96a18.743,18.743,0,0,1,2.018,11.594c-2.252-.256-3.547-.73-5.359.616-3.1,2.3-6.4,3.369-9.761,5.249-3.07,1.718-6.135,3.713-9.708,4.146A11.8,11.8,0,0,1,525.643,186Z" fill="#1c3661"/>
                <path id="Tracé_2050" data-name="Tracé 2050" d="M543.141,162.058l3.39,5.172c1.6,2.437,4.472,5.267,3.87,8.366a11.052,11.052,0,0,1-1.683,3.745c-1.812,2.851-3.975,6.049-7.046,7.663-1.508.792-3.088,1.532-4.748.882a10.144,10.144,0,0,1-4.118-3.558c-4.276-5.722-4.955-12.134-4.323-19.011C529.184,157.681,537.541,154.742,543.141,162.058Z" fill="#f5b29c"/>
                <path id="Tracé_2051" data-name="Tracé 2051" d="M540.535,175.155a23.163,23.163,0,0,1-7.321,2.216s.643,2.849,2.615,3.365S540.421,178.794,540.535,175.155Z" fill="#fff"/>
                <g id="Groupe_2447" data-name="Groupe 2447">
                  <path id="Tracé_2052" data-name="Tracé 2052" d="M534.757,186.2a7.517,7.517,0,0,1-.859-.942,7.487,7.487,0,0,0,5.426.015,17.654,17.654,0,0,0,5.744-3.7,28.041,28.041,0,0,0,3.851-4.365,12.79,12.79,0,0,0,1.5-2.348,4.168,4.168,0,0,1,.332-.881c.908,2.134-.244,5.138-1.349,7-2.27,3.828-5.325,7.829-10.215,7.273A7.9,7.9,0,0,1,534.757,186.2Z" fill="#f58b5d"/>
                </g>
                <path id="Tracé_2053" data-name="Tracé 2053" d="M544.2,167.382c-.054-1.064-.815-3.888.153-4.7a1.6,1.6,0,0,1,1-.265,4.314,4.314,0,0,1,4.177,3.77c.274,1.954.67,4.368-1.5,5.334C545.216,172.8,544.316,169.58,544.2,167.382Z" fill="#f5b29c"/>
              </g>
            </g>
          </g>
          <path id="Tracé_2054" data-name="Tracé 2054" d="M604.357,314.285c1.81-1.87-3.533-14.5-4.368-16.716-2.015-5.356-4.44-10.543-6.841-15.734-4.8-10.38-10.79-20.155-14.848-30.894-2.855-7.557-4.94-16.212-1.5-23.52,2.783-5.909,6.573-10.051,7.02-16.827.1-1.459.32-19.892-.138-19.985a81.126,81.126,0,0,0-14.877-1.485c1.362.02-.614,12.548-.808,13.819-.877,5.73-2.328,11.64-5.524,16.556q-3.293,5.061-6.089,10.423c-.879,1.685-2.1,4.138-3.935,5-2,.936-5.352.655-7.556.861-2.77.259-5.548.476-8.331.514-.773.011-7.665-.652-7.787-.429,6.039-10.994,5.933-28.225,1.938-39.893a51.375,51.375,0,0,0-11.994,7.005c-1.321,1.059,1.252,9.515,1.372,10.924a43.614,43.614,0,0,1-1.222,14.625c-1.437,5.54-3.968,10.777-5.035,16.4s-.369,12.061,3.756,16.028c2.3,2.217,5.4,3.408,7.918,5.385,12.082,9.5-5.77,22.555-6.837,32.177-1.644,14.838,17.833,20.947,32.629,22.942C574.554,324.59,595.255,323.692,604.357,314.285Z" fill="url(#linear-gradient-2)"/>
          <path id="Tracé_2055" data-name="Tracé 2055" d="M604.357,314.285c1.663-3.326-3.234-13.722-4.459-16.956-5.786-15.284-14.055-29.3-19.766-44.72-3.514-9.491-6.13-16.733-1.883-26.561,1.483-3.431,3.706-6.176,4.608-9.976.62-2.613,2.13-25.2.829-25.463a73.22,73.22,0,0,0-9.139-1.23c.327,7.566,1.706,16.43.054,23.812-1.8,8.039-8.392,14.211-9.326,22.592-.753,6.754,2.3,13.037,4.719,19.138a67.674,67.674,0,0,1,4.606,20.572c1.152,15.838,3.011,31.9,7.522,47.179C591.807,321.744,599.641,319.159,604.357,314.285Z" fill="#95bd3f"/>
          <g id="Groupe_2452" data-name="Groupe 2452">
            <path id="Tracé_2056" data-name="Tracé 2056" d="M525.226,285.519a5.262,5.262,0,0,0-3.852,6.341L529.4,324.7a5.246,5.246,0,0,0,10.193-2.49l-8.022-32.844A5.261,5.261,0,0,0,525.226,285.519Z" fill="#19559f"/>
            <path id="Tracé_2057" data-name="Tracé 2057" d="M531.567,289.37a5.261,5.261,0,0,0-6.341-3.851,5.2,5.2,0,0,0-1.557.668c.887,1.86,2.873,5.7,5.046,7.78,2.936,2.809,3.31,8.643,4.6,14.552s.911,8.028,2.264,12.648a6.78,6.78,0,0,1-1.986,7.456,5.185,5.185,0,0,0,2.14-.068,5.262,5.262,0,0,0,3.852-6.341Z" fill="#1c3661"/>
            <g id="Groupe_2451" data-name="Groupe 2451">
              <path id="Tracé_2058" data-name="Tracé 2058" d="M518.9,288.471l.467,1.911c.2.8,3.334.724,7.008-.174s6.5-2.275,6.3-3.076l-.467-1.911Z" fill="#1c3661"/>
              <path id="Tracé_2059" data-name="Tracé 2059" d="M532.2,285.221c.2.8-2.625,2.179-6.3,3.076s-6.813.976-7.009.174,2.625-2.179,6.3-3.076S532.008,284.42,532.2,285.221Z" fill="#c6d1e5"/>
            </g>
            <path id="Tracé_2060" data-name="Tracé 2060" d="M518.493,251.085l-3.165.773a.76.76,0,0,0-.568.861l1.31,7.889a.945.945,0,0,0,1.156.763l.453-.111,6.209,25.42a1.575,1.575,0,0,0,1.9,1.157h0a1.575,1.575,0,0,0,1.157-1.9l-6.209-25.421.454-.11a.945.945,0,0,0,.674-1.21l-2.475-7.6A.759.759,0,0,0,518.493,251.085Z" fill="#c6d1e5"/>
          </g>
          <path id="Tracé_2061" data-name="Tracé 2061" d="M597.579,196.5c3.373,0,7.139,3.215,9.653,5.1a102.712,102.712,0,0,1,15.026,14.112,95.541,95.541,0,0,1,20.7,38.952c3.192,12.974,1.756,27.809-6.94,37.953a47.714,47.714,0,0,1-7.117,6.546,68.079,68.079,0,0,1-7.791,5.292,81.241,81.241,0,0,1-11.233,5.161,176.63,176.63,0,0,1-51.381,11.4,68.06,68.06,0,0,1-6.968.165c-7.4-.25-26.609-6.291-14.826-14.907,7.2-5.262,17.474-7.043,25.967-8.945,10.626-2.38,21.38-4.142,32.01-6.5,5.766-1.28,12.758-1.742,17.372-5.79,5.3-4.649,7.247-12.453,6.285-19.254-1.19-8.419-5.976-15.852-10.92-22.771-4.125-5.774-7.409-12.408-11.656-17.954C591.164,219.052,583.533,196.5,597.579,196.5Z" fill="#f5b29c"/>
          <path id="Tracé_2062" data-name="Tracé 2062" d="M542.707,303.118s-7.1-7.091-9.29-6.613-3.527,5.353-10.654,1.041c-4.207-2.545-.06,8.588,1.526,14.145s11.337,11.389,17.646,8.712S542.707,303.118,542.707,303.118Z" fill="#f5b29c"/>
          <path id="Tracé_2063" data-name="Tracé 2063" d="M642.524,284.765c3.274-9.641,2.9-20.584.125-30.505-3.751-13.426-11.584-28.769-20.927-39.149a99.746,99.746,0,0,0-15.075-13.948c-2.391-1.747-5.9-4.661-9.068-4.661a9.986,9.986,0,0,0-2.963.407,16.285,16.285,0,0,0,7.542,11.459c11.245,7.229,20.157,20.078,26.665,31.478,7.971,13.962,14.326,29.462,9.049,45.6a29.575,29.575,0,0,1-2.919,6.461c-7.6,12.214-23.889,18.369-37.383,20.468-9.288,1.445-18.636,2.516-27.96,3.694-4.543.574-9.09,1.086-13.636,1.634-3.548.428-8.7.3-11.883,2.1a8.307,8.307,0,0,0,3.832,1c9.889.849,19.42-.68,29.137-2.063,13.967-1.99,30.647-3.448,43.288-9.943,7.1-3.737,13.662-8.82,18.062-15.534A37.326,37.326,0,0,0,642.524,284.765Z" fill="#f58b5d"/>
        </g>
        <g id="Groupe_2455" data-name="Groupe 2455">
          <path id="Tracé_2064" data-name="Tracé 2064" d="M383.343,447.767h-15.9a40.775,40.775,0,0,1,63.571-33.8l-8.9,13.174a24.875,24.875,0,0,0-38.771,20.629Z" fill="#19559f"/>
          <g id="Groupe_2454" data-name="Groupe 2454">
            <path id="Tracé_2065" data-name="Tracé 2065" d="M135.543,447.767a32.821,32.821,0,0,1,65.642,0C201.185,465.892,135.543,465.892,135.543,447.767Z" fill="#fff"/>
            <path id="Tracé_2066" data-name="Tracé 2066" d="M209.877,447.767H192.493a24.129,24.129,0,1,0-48.257,0H126.851a41.513,41.513,0,1,1,83.026,0Z" fill="#19559f"/>
          </g>
          <path id="Tracé_2067" data-name="Tracé 2067" d="M441.035,447.013a32.821,32.821,0,1,1-32.82-32.821A32.82,32.82,0,0,1,441.035,447.013Z" fill="#1c3661"/>
          <path id="Tracé_2068" data-name="Tracé 2068" d="M201.185,447.767a32.821,32.821,0,1,1-32.82-32.821A32.821,32.821,0,0,1,201.185,447.767Z" fill="#1c3661"/>
          <path id="Tracé_2069" data-name="Tracé 2069" d="M190.39,447.767a22.026,22.026,0,1,1-22.025-22.026A22.024,22.024,0,0,1,190.39,447.767Z" fill="#c6d1e5"/>
          <path id="Tracé_2070" data-name="Tracé 2070" d="M430.24,447.767a22.025,22.025,0,1,1-22.025-22.026A22.024,22.024,0,0,1,430.24,447.767Z" fill="#c6d1e5"/>
          <path id="Tracé_2071" data-name="Tracé 2071" d="M201.185,431.357v8.1H167.356a7.559,7.559,0,0,0,0,15.117H329.833l11.22-15.117h8.936v-8.1Z" fill="#19559f"/>
          <path id="Tracé_2072" data-name="Tracé 2072" d="M321.411,454.57,392.8,366.75l6.384,17.311L342.446,454.57Z" fill="#19559f"/>
          <path id="Tracé_2073" data-name="Tracé 2073" d="M397.667,355.061l-10.433,1.775L353.866,165.024l10.432-1.775Z" fill="#1c3661"/>
          <rect id="Rectangle_523" data-name="Rectangle 523" width="17.133" height="57.628" transform="matrix(0.986, -0.168, 0.168, 0.986, 384.004, 357.384)" fill="#19559f"/>
          <path id="Tracé_2074" data-name="Tracé 2074" d="M414.288,447.017c.655,3.846-1.251,7.38-4.258,7.892l-1.452.247c-3.005.511-5.974-2.194-6.628-6.041l-8.286-34.943c-.7-4.115,16.192-6.988,16.891-2.873Z" fill="#19559f"/>
          <rect id="Rectangle_524" data-name="Rectangle 524" width="17.133" height="3.149" transform="matrix(0.986, -0.168, 0.168, 0.986, 383.477, 354.279)" fill="#1c3661"/>
          <path id="Tracé_2075" data-name="Tracé 2075" d="M388.525,155.853a7.628,7.628,0,1,1-8.8-6.243A7.627,7.627,0,0,1,388.525,155.853Z" fill="#1c3661"/>
          <rect id="Rectangle_525" data-name="Rectangle 525" width="34.013" height="7.63" transform="translate(351.173 159.303) rotate(-9.835)" fill="#1c3661"/>
          <path id="Tracé_2076" data-name="Tracé 2076" d="M198.728,446.662a2.915,2.915,0,0,1-2.915,2.914H171.279a2.915,2.915,0,0,1-2.915-2.914h0a2.915,2.915,0,0,1,2.915-2.915h24.534a2.915,2.915,0,0,1,2.915,2.915Z" fill="url(#linear-gradient)"/>
          <path id="Tracé_2077" data-name="Tracé 2077" d="M410.558,447.117a2.575,2.575,0,1,1-2.574-2.575A2.575,2.575,0,0,1,410.558,447.117Z" fill="#1c3661"/>
          <circle id="Ellipse_93" data-name="Ellipse 93" cx="4.803" cy="4.803" r="4.803" transform="translate(389.635 361.152)" fill="#1c3661"/>
        </g>
      </g>
      <path id="Tracé_2078" data-name="Tracé 2078" d="M391.5,217.115a11.63,11.63,0,0,1-3.872,2.916c-2.676,1.338-5.018,3.25-4.54,5.066s2.71,1.2,4.175-.334,10.307.143,14.465-2.39S399.39,214.2,391.5,217.115Z" fill="#f5b29c"/>
    </g>
  </g>
</svg>
